<svg width="25" height="25" viewBox="0 0 25 25" fill="none" xmlns="http://www.w3.org/2000/svg">
<g clip-path="url(#clip0)">
<path d="M22.4533 3.58684V6.81356L11.3567 7.41627L0.26001 6.81356V3.58684C0.26001 3.11172 0.645362 2.72632 1.12048 2.72632H21.5928C22.0679 2.72632 22.4533 3.11172 22.4533 3.58684Z" fill="#495D85"/>
<path d="M22.4533 3.58679V6.81351L21.1784 6.91009V3.58679C21.1784 3.11167 20.7931 2.72632 20.3179 2.72632H21.5928C22.0679 2.72627 22.4533 3.11167 22.4533 3.58679Z" fill="#678D98"/>
<path d="M22.4533 6.81348V20.6849C22.4533 21.1601 22.068 21.5454 21.5928 21.5454H1.12048C0.645362 21.5454 0.26001 21.1601 0.26001 20.6849V6.81348H22.4533Z" fill="#EAF6FF"/>
<path d="M22.4533 6.81348V20.6849C22.4533 21.1601 22.068 21.5454 21.5928 21.5454H20.3179C20.7931 21.5454 21.1784 21.1601 21.1784 20.6849V6.81348H22.4533Z" fill="#C8EFFE"/>
<path d="M9.1043 9.4381V11.7753C9.1043 11.9752 8.94205 12.1375 8.74213 12.1375H2.41472C2.2148 12.1375 2.05255 11.9752 2.05255 11.7753V9.4381C2.05255 9.23818 2.2148 9.07593 2.41472 9.07593H8.74213C8.94205 9.07593 9.1043 9.23818 9.1043 9.4381Z" fill="#495D85"/>
<path d="M9.10427 9.4381V11.7753C9.10427 11.9752 8.94202 12.1375 8.7421 12.1375H7.53485C7.73477 12.1375 7.89702 11.9752 7.89702 11.7753V9.4381C7.89702 9.23818 7.73477 9.07593 7.53485 9.07593H8.7421C8.94202 9.07593 9.10427 9.23818 9.10427 9.4381Z" fill="#678D98"/>
<path d="M9.1043 14.1044V16.4416C9.1043 16.6415 8.94205 16.8038 8.74213 16.8038H2.41472C2.2148 16.8038 2.05255 16.6415 2.05255 16.4416V14.1044C2.05255 13.9044 2.2148 13.7422 2.41472 13.7422H8.74213C8.94205 13.7422 9.1043 13.9044 9.1043 14.1044Z" fill="#495D85"/>
<path d="M9.10427 14.1044V16.4416C9.10427 16.6415 8.94202 16.8038 8.7421 16.8038H7.53485C7.73477 16.8038 7.89702 16.6415 7.89702 16.4416V14.1044C7.89702 13.9044 7.73477 13.7422 7.53485 13.7422H8.7421C8.94202 13.7422 9.10427 13.9044 9.10427 14.1044Z" fill="#678D98"/>
<path d="M16.0953 23.3406H23.1884C23.7802 23.3406 24.26 22.8608 24.26 22.269V15.1758C24.26 14.584 23.7802 14.1042 23.1884 14.1042H16.0953C15.5034 14.1042 15.0237 14.584 15.0237 15.1758V22.269C15.0237 22.8608 15.5034 23.3406 16.0953 23.3406Z" fill="#2BBDC4"/>
<path d="M24.26 15.1758V22.2692C24.26 22.8609 23.7804 23.3405 23.1883 23.3405H21.3816C21.9737 23.3405 22.4533 22.8609 22.4533 22.2692V15.1758C22.4533 14.5841 21.9737 14.1041 21.3816 14.1041H23.1883C23.7804 14.1041 24.26 14.5842 24.26 15.1758Z" fill="#139197"/>
<path d="M22.2439 18.2086V19.236C22.2439 19.3335 22.1648 19.4126 22.0672 19.4126H20.5089C20.4113 19.4126 20.3322 19.4917 20.3322 19.5893V21.1476C20.3322 21.2452 20.2531 21.3243 20.1556 21.3243H19.1282C19.0306 21.3243 18.9515 21.2452 18.9515 21.1476V19.5893C18.9515 19.4917 18.8724 19.4126 18.7749 19.4126H17.2165C17.119 19.4126 17.0399 19.3335 17.0399 19.236V18.2086C17.0399 18.111 17.119 18.0319 17.2165 18.0319H18.7749C18.8724 18.0319 18.9515 17.9528 18.9515 17.8553V16.2974C18.9515 16.1998 19.0306 16.1207 19.1281 16.1207H20.1555C20.2531 16.1207 20.3322 16.1998 20.3322 16.2974V17.8553C20.3322 17.9528 20.4113 18.0319 20.5088 18.0319H22.0672C22.1648 18.0319 22.2439 18.111 22.2439 18.2086Z" fill="#EAF6FF"/>
<path d="M3.94396 4.25991C3.7439 4.25991 3.58179 4.09775 3.58179 3.89773V1.57567C3.58179 1.37566 3.7439 1.2135 3.94396 1.2135C4.14403 1.2135 4.30614 1.37566 4.30614 1.57567V3.89769C4.30614 4.09775 4.14403 4.25991 3.94396 4.25991Z" fill="#678D98"/>
<path d="M18.7693 4.25991C18.5692 4.25991 18.4071 4.09775 18.4071 3.89773V1.57567C18.4071 1.37566 18.5692 1.2135 18.7693 1.2135C18.9693 1.2135 19.1314 1.37566 19.1314 1.57567V3.89769C19.1314 4.09775 18.9693 4.25991 18.7693 4.25991Z" fill="#678D98"/>
<path d="M20.2184 10.1905H10.655C10.4549 10.1905 10.2928 10.0284 10.2928 9.82836C10.2928 9.62834 10.4549 9.46619 10.655 9.46619H20.2184C20.4184 9.46619 20.5805 9.62834 20.5805 9.82836C20.5805 10.0284 20.4184 10.1905 20.2184 10.1905Z" fill="#5986CB"/>
<path d="M20.2184 11.7471H10.655C10.4549 11.7471 10.2928 11.5849 10.2928 11.3849C10.2928 11.1849 10.4549 11.0227 10.655 11.0227H20.2184C20.4184 11.0227 20.5805 11.1849 20.5805 11.3849C20.5805 11.5849 20.4184 11.7471 20.2184 11.7471Z" fill="#62DBFB"/>
<path d="M13.0386 14.8568H10.655C10.4549 14.8568 10.2928 14.6946 10.2928 14.4946C10.2928 14.2946 10.4549 14.1324 10.655 14.1324H13.0386C13.2387 14.1324 13.4008 14.2946 13.4008 14.4946C13.4008 14.6946 13.2387 14.8568 13.0386 14.8568Z" fill="#5986CB"/>
<path d="M13.0386 16.4133H10.655C10.4549 16.4133 10.2928 16.2511 10.2928 16.0511C10.2928 15.8511 10.4549 15.689 10.655 15.689H13.0386C13.2387 15.689 13.4008 15.8511 13.4008 16.0511C13.4008 16.2511 13.2387 16.4133 13.0386 16.4133Z" fill="#62DBFB"/>
<path d="M5.57832 19.9496C5.48565 19.9496 5.39294 19.9143 5.32219 19.8435L4.25586 18.7772C4.11442 18.6357 4.11442 18.4064 4.25586 18.265C4.39735 18.1236 4.62663 18.1236 4.76807 18.265L5.57827 19.0753L6.38848 18.265C6.52997 18.1236 6.75925 18.1236 6.90069 18.265C7.04213 18.4065 7.04213 18.6358 6.90069 18.7772L5.83435 19.8435C5.76371 19.9143 5.67099 19.9496 5.57832 19.9496Z" fill="#62DBFB"/>
</g>
<defs>
<clipPath id="clip0">
<rect width="24" height="24" fill="white" transform="translate(0.26001 0.2771)"/>
</clipPath>
</defs>
</svg>
