<svg width="21" height="14" viewBox="0 0 21 14" fill="none" xmlns="http://www.w3.org/2000/svg">
<path d="M0.506927 13.1706H0.00692749V13.6706H0.506927V13.1706ZM12.7569 13.1706V13.6706H13.2569V13.1706H12.7569ZM12.7833 8.17258L12.7423 7.67427L11.3548 7.78844L12.4979 8.58313L12.7833 8.17258ZM14.5071 13.1706H14.0071V13.6706H14.5071V13.1706ZM19.7571 13.1706V13.6706H20.2571V13.1706H19.7571ZM13.6319 6.95058C15.3434 6.95058 16.7482 5.61803 16.7482 3.93058H15.7482C15.7482 5.03193 14.8255 5.95058 13.6319 5.95058V6.95058ZM16.7482 3.93058C16.7482 2.24313 15.3434 0.910583 13.6319 0.910583V1.91058C14.8255 1.91058 15.7482 2.82923 15.7482 3.93058H16.7482ZM13.6319 0.910583C11.9227 0.910583 10.5069 2.241 10.5069 3.93058H11.5069C11.5069 2.83137 12.4361 1.91058 13.6319 1.91058V0.910583ZM10.5069 3.93058C10.5069 5.62017 11.9227 6.95058 13.6319 6.95058V5.95058C12.4361 5.95058 11.5069 5.0298 11.5069 3.93058H10.5069ZM6.63179 6.95058C8.34322 6.95058 9.74804 5.61803 9.74804 3.93058H8.74804C8.74804 5.03193 7.82536 5.95058 6.63179 5.95058V6.95058ZM9.74804 3.93058C9.74804 2.24313 8.34322 0.910583 6.63179 0.910583V1.91058C7.82536 1.91058 8.74804 2.82923 8.74804 3.93058H9.74804ZM6.63179 0.910583C4.92258 0.910583 3.50679 2.241 3.50679 3.93058H4.50679C4.50679 2.83137 5.436 1.91058 6.63179 1.91058V0.910583ZM3.50679 3.93058C3.50679 5.62017 4.92258 6.95058 6.63179 6.95058V5.95058C5.436 5.95058 4.50679 5.0298 4.50679 3.93058H3.50679ZM6.63193 7.63058C5.55274 7.63058 3.96059 7.88703 2.62559 8.39989C1.9581 8.65631 1.32278 8.98887 0.845818 9.41115C0.366387 9.83562 0.00692749 10.3896 0.00692749 11.0706H1.00693C1.00693 10.773 1.15825 10.4701 1.5087 10.1599C1.86162 9.84742 2.37528 9.5673 2.9842 9.33338C4.20201 8.86554 5.67237 8.63058 6.63193 8.63058V7.63058ZM0.00692749 11.0706V13.1706H1.00693V11.0706H0.00692749ZM0.506927 13.6706H12.7569V12.6706H0.506927V13.6706ZM13.2569 13.1706V11.0706H12.2569V13.1706H13.2569ZM13.2569 11.0706C13.2569 10.3896 12.8975 9.83562 12.418 9.41115C11.9411 8.98887 11.3058 8.65631 10.6383 8.39989C9.30326 7.88703 7.71112 7.63058 6.63193 7.63058V8.63058C7.59149 8.63058 9.06184 8.86554 10.2797 9.33338C10.8886 9.5673 11.4022 9.84742 11.7552 10.1599C12.1056 10.4701 12.2569 10.773 12.2569 11.0706H13.2569ZM13.6321 7.63058C13.3585 7.63058 13.0542 7.6486 12.7423 7.67427L12.8243 8.6709C13.1249 8.64617 13.3982 8.63058 13.6321 8.63058V7.63058ZM12.4979 8.58313C13.4332 9.23328 14.0071 10.048 14.0071 11.0706H15.0071C15.0071 9.60677 14.1635 8.52309 13.0687 7.76204L12.4979 8.58313ZM14.0071 11.0706V13.1706H15.0071V11.0706H14.0071ZM14.5071 13.6706H19.7571V12.6706H14.5071V13.6706ZM20.2571 13.1706V11.0706H19.2571V13.1706H20.2571ZM20.2571 11.0706C20.2571 10.3896 19.8976 9.83562 19.4182 9.41115C18.9412 8.98887 18.3059 8.65631 17.6384 8.39989C16.3034 7.88703 14.7113 7.63058 13.6321 7.63058V8.63058C14.5916 8.63058 16.062 8.86554 17.2798 9.33338C17.8887 9.5673 18.4024 9.84742 18.7553 10.1599C19.1057 10.4701 19.2571 10.773 19.2571 11.0706H20.2571Z" fill="#FF715A"/>
</svg>
