<svg width="25" height="25" viewBox="0 0 25 25" fill="none" xmlns="http://www.w3.org/2000/svg">
<path d="M20.5258 1.08053C20.1122 0.666939 19.5406 0.411377 18.9095 0.411377H3.15466V2.26596L5.43971 4.45066V19.669V21.4228C5.43971 22.0539 5.69574 22.6255 6.10886 23.0391C6.5194 23.4497 7.08558 23.7045 7.71074 23.7082C8.25338 23.7115 8.7533 23.5162 9.14766 23.1927H21.195V20.5599V2.69685C21.195 2.06573 20.9394 1.49411 20.5258 1.08053Z" fill="#EAF6FF"/>
<path d="M10.0878 21.0837C9.29169 21.0837 8.64631 20.4384 8.64631 19.6423V3.48882C8.64631 3.48117 8.64627 3.47353 8.64617 3.46584C8.63914 2.89169 9.10553 2.42362 9.67972 2.42362H20.3496C20.6418 2.42362 20.921 2.479 21.1779 2.57888C21.15 1.99169 20.9009 1.46238 20.5116 1.07308C20.098 0.659492 19.5264 0.403931 18.8952 0.403931H6.36127H5.71312H3.14044V2.25851L5.42549 4.44321V19.6615V21.4153C5.42549 22.0465 5.68152 22.6181 6.09464 23.0317C6.27663 23.2137 6.48933 23.3649 6.72412 23.4773C6.73748 23.4839 6.75127 23.4896 6.76473 23.4958C6.78381 23.5045 6.8028 23.5134 6.82221 23.5216C7.09522 23.6393 7.39514 23.7062 7.71068 23.7081C8.25331 23.7114 8.75323 23.5161 9.14759 23.1926H21.1949V21.0837H10.0878V21.0837Z" fill="#B1DBFC"/>
<path d="M9.59306 16.568H7.76562V18.351C7.76562 18.8556 8.17471 19.2647 8.67932 19.2647C9.18397 19.2647 9.59301 18.8556 9.59301 18.351V16.568H9.59306Z" fill="#C9BFC8"/>
<path d="M10.0727 4.49338L9.49634 3.98596H7.91824L7.76758 4.10685V17.2919H7.85058L9.46122 17.3243L10.0414 17.0851C10.0826 16.9903 10.1058 16.8858 10.1058 16.7759V4.55293L10.0727 4.49338Z" fill="#D4F2F6"/>
<path d="M9.03967 17.0857C8.61061 17.0857 8.26267 16.7378 8.26267 16.3087V4.08584L8.29573 4.02629L8.34595 3.98596H7.9182L7.28587 4.49338L7.25281 4.55293V16.7758C7.25281 17.2049 7.60075 17.5528 8.02981 17.5528H9.32871C9.64758 17.5528 9.92166 17.3606 10.0414 17.0858L9.03967 17.0857Z" fill="#2BBDC4"/>
<path d="M7.25281 14.0721H10.1059V15.6038H7.25281V14.0721Z" fill="#A6E7F0"/>
<path d="M7.25287 14.0721H8.26269V15.6038H7.25287V14.0721Z" fill="#62DBFB"/>
<path d="M16.0884 9.32433C17.6956 9.32433 18.9985 8.02146 18.9985 6.4143C18.9985 4.80714 17.6956 3.50427 16.0884 3.50427C14.4813 3.50427 13.1784 4.80714 13.1784 6.4143C13.1784 8.02146 14.4813 9.32433 16.0884 9.32433Z" fill="#2BBDC4"/>
<path d="M3.14029 0.404175C1.87819 0.404175 0.855103 1.42731 0.855103 2.68936V4.24847C0.855103 4.35623 0.942462 4.44354 1.05017 4.44354H5.42544V2.68936C5.42544 1.42731 4.40234 0.404175 3.14029 0.404175Z" fill="#B1DBFC"/>
<path d="M24.0847 20.7794V21.4153C24.0847 22.0465 23.8287 22.6181 23.4156 23.0317C23.002 23.4453 22.4304 23.7008 21.7997 23.7008H7.71051C8.97284 23.7008 9.99556 22.6776 9.99556 21.4153V20.6964C9.99556 20.6169 10.06 20.5525 10.1395 20.5525H21.1807H23.8578C23.9831 20.5525 24.0847 20.6541 24.0847 20.7794Z" fill="#B1DBFC"/>
<path d="M8.90532 2.39173L10.0725 4.49343H7.28613L8.45328 2.39173C8.55175 2.21448 8.80685 2.21448 8.90532 2.39173Z" fill="#C9BFC8"/>
<path d="M9.16758 2.86398L8.90531 2.39173C8.80684 2.21448 8.55175 2.21448 8.45327 2.39173L7.28613 4.49343H8.26266L9.16758 2.86398Z" fill="#BAAFB9"/>
<path d="M23.8577 20.2006H21.5323V2.68925C21.5323 1.23527 20.3494 0.0523682 18.8954 0.0523682H3.1403C1.68632 0.0523682 0.503418 1.23527 0.503418 2.68925V4.24836C0.503418 4.54988 0.74871 4.79517 1.05018 4.79517H5.07375V21.4155C5.07375 22.8695 6.25665 24.0524 7.71063 24.0524H21.7996C23.2536 24.0524 24.4365 22.8695 24.4365 21.4155V20.7794C24.4365 20.4602 24.1768 20.2006 23.8577 20.2006ZM1.2068 2.68925C1.2068 1.62311 2.07416 0.755749 3.1403 0.755749C4.20644 0.755749 5.0738 1.62311 5.0738 2.68925V4.09174H1.2068V2.68925ZM23.7331 21.4155C23.7331 22.4817 22.8657 23.349 21.7996 23.349H9.50182C10.0217 22.8671 10.3475 22.1787 10.3475 21.4155V20.904H12.1604C12.3546 20.904 12.5121 20.7465 12.5121 20.5523C12.5121 20.3581 12.3546 20.2006 12.1604 20.2006H9.99582C9.8016 20.2006 9.64413 20.3581 9.64413 20.5523V21.4155C9.64413 22.4817 8.77677 23.349 7.71063 23.349C6.6445 23.349 5.77713 22.4817 5.77713 21.4155V4.44343V2.68925C5.77713 1.92594 5.45081 1.23771 4.93073 0.755749H18.8954C19.9615 0.755749 20.8288 1.62311 20.8288 2.68925V20.2006H13.6592C13.4649 20.2006 13.3075 20.358 13.3075 20.5523C13.3075 20.7465 13.4649 20.9039 13.6592 20.9039H23.7331V21.4155Z" fill="black"/>
<path d="M11.6695 10.9216C11.4752 10.9216 11.3178 11.079 11.3178 11.2733V14.4502C11.3178 14.5549 11.2326 14.6401 11.1279 14.6401H10.4576V14.072V4.55284C10.4576 4.4931 10.4424 4.43434 10.4134 4.38206L9.21312 2.22094C9.10555 2.02723 8.901 1.90686 8.67944 1.90686C8.45787 1.90686 8.25338 2.02719 8.14576 2.22094L6.94546 4.38206C6.91644 4.4343 6.90125 4.49305 6.90125 4.55284V6.05882C6.90125 6.25305 7.05871 6.41051 7.25294 6.41051C7.44716 6.41051 7.60463 6.25305 7.60463 6.05882V4.90453H9.7543V13.7203H7.60463V7.55763C7.60463 7.36341 7.44716 7.20594 7.25294 7.20594C7.05871 7.20594 6.90125 7.36341 6.90125 7.55763V14.072V15.6037V16.7757C6.90125 17.171 7.1056 17.5192 7.41406 17.7209V18.351C7.41406 19.0487 7.98173 19.6163 8.67948 19.6163C9.37724 19.6163 9.94487 19.0487 9.94487 18.351V17.7209C10.2533 17.5192 10.4577 17.171 10.4577 16.7757V15.6037V15.3435H11.128C11.6205 15.3435 12.0212 14.9428 12.0212 14.4502V11.2733C12.0212 11.079 11.8637 10.9216 11.6695 10.9216ZM9.7542 16.7757C9.7542 17.0102 9.5634 17.2011 9.32889 17.2011H8.02989C7.79538 17.2011 7.60453 17.0103 7.60453 16.7757V15.9553H9.7542V16.7757ZM8.67939 2.70871L9.5083 4.20115H7.85048L8.67939 2.70871ZM9.7542 14.4237V15.252H7.60453V14.4237H9.7542ZM9.24139 18.351C9.24139 18.6609 8.98925 18.913 8.67934 18.913C8.36944 18.913 8.11734 18.6609 8.11734 18.351V17.9045H9.24139V18.351Z" fill="black"/>
<path d="M16.0819 9.58448C16.6491 9.58448 17.2064 9.43222 17.6935 9.14416C17.8606 9.04527 17.916 8.82961 17.8171 8.66244C17.7183 8.49527 17.5026 8.43994 17.3354 8.53874C16.9567 8.7627 16.5233 8.8811 16.0819 8.8811C14.7217 8.8811 13.6151 7.77445 13.6151 6.41425C13.6151 5.05405 14.7217 3.9474 16.0819 3.9474C17.4422 3.9474 18.5488 5.05405 18.5488 6.41425C18.5488 6.82699 18.4448 7.23542 18.2481 7.59541C18.1549 7.76586 18.2176 7.97955 18.388 8.07268C18.5583 8.16576 18.772 8.10321 18.8653 7.93275C19.1184 7.4696 19.2522 6.9445 19.2522 6.41425C19.2522 4.66616 17.83 3.24402 16.0819 3.24402C14.3338 3.24402 12.9117 4.66621 12.9117 6.41425C12.9117 8.16229 14.3338 9.58448 16.0819 9.58448Z" fill="black"/>
<path d="M16.7963 5.34845L15.5698 6.88716L15.263 6.73378C15.0892 6.64684 14.878 6.71732 14.7911 6.89105C14.7042 7.06479 14.7747 7.27604 14.9484 7.36288L15.51 7.64367C15.5602 7.66876 15.614 7.68081 15.6672 7.68081C15.7716 7.68081 15.8738 7.63434 15.9424 7.54829L17.3464 5.78684C17.4674 5.63496 17.4425 5.41367 17.2906 5.2926C17.1387 5.17157 16.9174 5.19656 16.7963 5.34845Z" fill="black"/>
</svg>
