<svg width="31" height="31" viewBox="0 0 31 31" fill="none" xmlns="http://www.w3.org/2000/svg">
<rect x="0.630005" y="0.489624" width="30" height="30" rx="2" fill="#D7E023" fill-opacity="0.5"/>
<path d="M8.70278 13.9296C9.23611 13.9296 9.68611 14.063 10.0528 14.3296C10.4261 14.5963 10.6861 14.953 10.8328 15.3996V13.9996H11.7428V19.4896H10.8328V18.0896C10.6861 18.5363 10.4261 18.893 10.0528 19.1596C9.68611 19.4263 9.23611 19.5596 8.70278 19.5596C8.21611 19.5596 7.78278 19.4463 7.40278 19.2196C7.02278 18.993 6.72278 18.6696 6.50278 18.2496C6.28945 17.823 6.18278 17.323 6.18278 16.7496C6.18278 16.1763 6.28945 15.6763 6.50278 15.2496C6.72278 14.823 7.02278 14.4963 7.40278 14.2696C7.78278 14.043 8.21611 13.9296 8.70278 13.9296ZM8.96278 14.7396C8.40278 14.7396 7.95278 14.9196 7.61278 15.2796C7.27945 15.633 7.11278 16.123 7.11278 16.7496C7.11278 17.3763 7.27945 17.8696 7.61278 18.2296C7.95278 18.583 8.40278 18.7596 8.96278 18.7596C9.32278 18.7596 9.64278 18.6763 9.92278 18.5096C10.2094 18.343 10.4328 18.1096 10.5928 17.8096C10.7528 17.503 10.8328 17.1496 10.8328 16.7496C10.8328 16.3496 10.7528 15.9963 10.5928 15.6896C10.4328 15.383 10.2094 15.1496 9.92278 14.9896C9.64278 14.823 9.32278 14.7396 8.96278 14.7396ZM18.0711 13.9996V19.4896H17.1611V18.1996C17.0211 18.6463 16.7711 18.9896 16.4111 19.2296C16.0577 19.463 15.6444 19.5796 15.1711 19.5796C14.5377 19.5796 14.0244 19.3763 13.6311 18.9696C13.2377 18.5563 13.0411 17.9663 13.0411 17.1996V13.9996H13.9511V17.1096C13.9511 17.6563 14.0911 18.0796 14.3711 18.3796C14.6511 18.673 15.0311 18.8196 15.5111 18.8196C16.0111 18.8196 16.4111 18.6596 16.7111 18.3396C17.0111 18.013 17.1611 17.5396 17.1611 16.9196V13.9996H18.0711ZM21.779 13.9296C22.3123 13.9296 22.7623 14.063 23.129 14.3296C23.5023 14.5963 23.7623 14.953 23.909 15.3996V12.0896H24.819V19.4896H23.909V18.0896C23.7623 18.5363 23.5023 18.893 23.129 19.1596C22.7623 19.4263 22.3123 19.5596 21.779 19.5596C21.2923 19.5596 20.859 19.4463 20.479 19.2196C20.099 18.993 19.799 18.6696 19.579 18.2496C19.3656 17.823 19.259 17.323 19.259 16.7496C19.259 16.1763 19.3656 15.6763 19.579 15.2496C19.799 14.823 20.099 14.4963 20.479 14.2696C20.859 14.043 21.2923 13.9296 21.779 13.9296ZM22.039 14.7396C21.479 14.7396 21.029 14.9196 20.689 15.2796C20.3556 15.633 20.189 16.123 20.189 16.7496C20.189 17.3763 20.3556 17.8696 20.689 18.2296C21.029 18.583 21.479 18.7596 22.039 18.7596C22.399 18.7596 22.719 18.6763 22.999 18.5096C23.2856 18.343 23.509 18.1096 23.669 17.8096C23.829 17.503 23.909 17.1496 23.909 16.7496C23.909 16.3496 23.829 15.9963 23.669 15.6896C23.509 15.383 23.2856 15.1496 22.999 14.9896C22.719 14.823 22.399 14.7396 22.039 14.7396Z" fill="black"/>
</svg>
