<svg width="25" height="25" viewBox="0 0 25 25" fill="none" xmlns="http://www.w3.org/2000/svg">
<g clip-path="url(#clip0)">
<path fill-rule="evenodd" clip-rule="evenodd" d="M3.27603 1.81502C3.05554 1.81502 2.84408 1.90261 2.68816 2.05853C2.53225 2.21444 2.44466 2.4259 2.44466 2.64639V21.0463L9.09562 16.6118L15.7466 21.0463V12.6228C15.7466 12.4023 15.8342 12.1909 15.9901 12.035C16.146 11.8791 16.3575 11.7915 16.578 11.7915C16.7985 11.7915 17.0099 11.8791 17.1658 12.035C17.3217 12.1909 17.4093 12.4023 17.4093 12.6228V24.1523L9.09562 18.6104L0.781921 24.1523V2.64639C0.781921 1.98491 1.04469 1.35053 1.51243 0.882791C1.98017 0.415054 2.61455 0.152283 3.27603 0.152283H9.927C10.1475 0.152283 10.359 0.239873 10.5149 0.395785C10.6708 0.551698 10.7584 0.76316 10.7584 0.983653C10.7584 1.20415 10.6708 1.41561 10.5149 1.57152C10.359 1.72743 10.1475 1.81502 9.927 1.81502H3.27603Z" fill="black"/>
<path fill-rule="evenodd" clip-rule="evenodd" d="M22.1548 2.05778C22.2322 2.13501 22.2936 2.22675 22.3355 2.32776C22.3774 2.42876 22.399 2.53704 22.399 2.64639C22.399 2.75575 22.3774 2.86403 22.3355 2.96503C22.2936 3.06603 22.2322 3.15778 22.1548 3.235L17.1665 8.22323C17.0893 8.30065 16.9976 8.36208 16.8966 8.40399C16.7956 8.4459 16.6873 8.46747 16.5779 8.46747C16.4686 8.46747 16.3603 8.4459 16.2593 8.40399C16.1583 8.36208 16.0666 8.30065 15.9893 8.22323L13.4952 5.72912C13.4179 5.65182 13.3566 5.56005 13.3148 5.45906C13.2729 5.35806 13.2514 5.24982 13.2514 5.1405C13.2514 5.03119 13.2729 4.92295 13.3148 4.82195C13.3566 4.72096 13.4179 4.62919 13.4952 4.55189C13.5725 4.4746 13.6643 4.41328 13.7653 4.37145C13.8663 4.32962 13.9745 4.30808 14.0838 4.30808C14.1931 4.30808 14.3014 4.32962 14.4024 4.37145C14.5034 4.41328 14.5951 4.4746 14.6724 4.55189L16.5779 6.45906L20.9775 2.05778C21.0548 1.98036 21.1465 1.91893 21.2475 1.87702C21.3485 1.83511 21.4568 1.81354 21.5662 1.81354C21.6755 1.81354 21.7838 1.83511 21.8848 1.87702C21.9858 1.91893 22.0775 1.98036 22.1548 2.05778Z" fill="black"/>
</g>
<defs>
<clipPath id="clip0">
<rect width="24" height="24" fill="white" transform="translate(0.281921 0.152283)"/>
</clipPath>
</defs>
</svg>
