<svg width="14" height="15" viewBox="0 0 14 15" fill="none" xmlns="http://www.w3.org/2000/svg">
<path fill-rule="evenodd" clip-rule="evenodd" d="M2.13171 1.29053C1.99911 1.29053 1.87193 1.34321 1.77816 1.43697C1.68439 1.53074 1.63171 1.65792 1.63171 1.79053V12.8565L5.63171 10.1895L9.63171 12.8565V7.79053C9.63171 7.65792 9.68439 7.53074 9.77816 7.43697C9.87193 7.34321 9.99911 7.29053 10.1317 7.29053C10.2643 7.29053 10.3915 7.34321 10.4853 7.43697C10.579 7.53074 10.6317 7.65792 10.6317 7.79053V14.7245L5.63171 11.3915L0.631714 14.7245V1.79053C0.631714 1.3927 0.789749 1.01117 1.07105 0.729867C1.35236 0.448563 1.73389 0.290527 2.13171 0.290527H6.13171C6.26432 0.290527 6.3915 0.343206 6.48527 0.436974C6.57904 0.530742 6.63171 0.657919 6.63171 0.790527C6.63171 0.923136 6.57904 1.05031 6.48527 1.14408C6.3915 1.23785 6.26432 1.29053 6.13171 1.29053H2.13171Z" fill="black"/>
<path fill-rule="evenodd" clip-rule="evenodd" d="M13.4857 1.43651C13.5323 1.48295 13.5692 1.53813 13.5944 1.59887C13.6197 1.65962 13.6326 1.72474 13.6326 1.79051C13.6326 1.85627 13.6197 1.92139 13.5944 1.98214C13.5692 2.04288 13.5323 2.09806 13.4857 2.14451L10.4857 5.14451C10.4393 5.19107 10.3841 5.22801 10.3234 5.25322C10.2626 5.27842 10.1975 5.2914 10.1317 5.2914C10.066 5.2914 10.0008 5.27842 9.9401 5.25322C9.87936 5.22801 9.82418 5.19107 9.77773 5.14451L8.27773 3.64451C8.23125 3.59802 8.19437 3.54283 8.16921 3.48209C8.14405 3.42135 8.1311 3.35625 8.1311 3.29051C8.1311 3.22476 8.14405 3.15966 8.16921 3.09892C8.19437 3.03818 8.23125 2.98299 8.27773 2.93651C8.32422 2.89002 8.37941 2.85314 8.44015 2.82798C8.50089 2.80282 8.56599 2.78987 8.63173 2.78987C8.69748 2.78987 8.76258 2.80282 8.82332 2.82798C8.88406 2.85314 8.93925 2.89002 8.98573 2.93651L10.1317 4.08351L12.7777 1.43651C12.8242 1.38994 12.8794 1.353 12.9401 1.32779C13.0008 1.30259 13.066 1.28961 13.1317 1.28961C13.1975 1.28961 13.2626 1.30259 13.3234 1.32779C13.3841 1.353 13.4393 1.38994 13.4857 1.43651Z" fill="black"/>
</svg>
