<svg width="25" height="24" viewBox="0 0 25 24" fill="none" xmlns="http://www.w3.org/2000/svg">
<g clip-path="url(#clip0)">
<path d="M20.4634 3.22559H4.52869C3.68512 3.22559 3.00122 3.9093 3.00122 4.75287V22.4257C3.00122 23.2692 3.68512 23.9531 4.52869 23.9531H20.4634C21.307 23.9531 21.9907 23.2692 21.9907 22.4257V4.75287C21.9907 3.9093 21.307 3.22559 20.4634 3.22559Z" fill="#495D85"/>
<path d="M5.93732 3.22559V4.99054C5.93732 6.24719 6.95959 7.26965 8.21625 7.26965H16.7757C18.0324 7.26965 19.0548 6.24719 19.0548 4.99054V3.22559H5.93732Z" fill="#495D85"/>
<path d="M4.92273 4.86023H20.0692V21.5232H4.92273V4.86023Z" fill="#EAF6FF"/>
<path d="M7.70007 10.3024C7.60687 10.3024 7.51276 10.2823 7.4234 10.2413C7.18683 10.1325 7.03979 9.9031 7.03979 9.64254V9.02877C7.03979 8.82882 7.20184 8.66659 7.40198 8.66659C7.60211 8.66659 7.76416 8.82882 7.76416 9.02877V9.50136C8.24042 9.11154 8.99445 8.61056 10.0279 8.26596C10.2176 8.20279 10.4227 8.30533 10.486 8.49521C10.5492 8.6849 10.4467 8.88998 10.257 8.95333C9.25171 9.28823 8.54346 9.78518 8.12634 10.143C8.00366 10.2481 7.85315 10.3024 7.70007 10.3024Z" fill="#2BBDC4"/>
<path d="M17.5901 9.63684H12.8505C12.6505 9.63684 12.4883 9.47479 12.4883 9.27466C12.4883 9.07471 12.6505 8.91248 12.8505 8.91248H17.5901C17.7901 8.91248 17.9523 9.07471 17.9523 9.27466C17.9523 9.47479 17.7901 9.63684 17.5901 9.63684Z" fill="#3A484A"/>
<path d="M7.70007 13.2763C7.60687 13.2763 7.51276 13.2561 7.4234 13.2149C7.18683 13.1062 7.03979 12.8769 7.03979 12.6164V12.0026C7.03979 11.8025 7.20184 11.6404 7.40198 11.6404C7.60211 11.6404 7.76416 11.8025 7.76416 12.0026V12.4752C8.24042 12.0854 8.99445 11.5844 10.0279 11.2398C10.2176 11.1764 10.4227 11.2792 10.486 11.4688C10.5492 11.6585 10.4467 11.8638 10.257 11.927C9.25171 12.2621 8.54346 12.759 8.12634 13.1166C8.00366 13.2219 7.85315 13.2763 7.70007 13.2763Z" fill="#2BBDC4"/>
<path d="M17.5901 12.6106H12.8505C12.6505 12.6106 12.4883 12.4484 12.4883 12.2484C12.4883 12.0485 12.6505 11.8862 12.8505 11.8862H17.5901C17.7901 11.8862 17.9523 12.0485 17.9523 12.2484C17.9523 12.4484 17.7901 12.6106 17.5901 12.6106Z" fill="#3A484A"/>
<path d="M7.70007 16.2501C7.60687 16.2501 7.51276 16.2299 7.4234 16.1887C7.18683 16.08 7.03979 15.8505 7.03979 15.5901V14.9762C7.03979 14.7762 7.20184 14.614 7.40198 14.614C7.60211 14.614 7.76416 14.7762 7.76416 14.9762V15.449C8.24042 15.0591 8.99445 14.558 10.0279 14.2136C10.2176 14.1502 10.4227 14.2527 10.486 14.4426C10.5492 14.6323 10.4467 14.8374 10.257 14.9008C9.25171 15.2358 8.54346 15.7326 8.12634 16.0904C8.00366 16.1957 7.85315 16.2501 7.70007 16.2501Z" fill="#2BBDC4"/>
<path d="M17.5901 15.5845H12.8505C12.6505 15.5845 12.4883 15.4222 12.4883 15.2223C12.4883 15.0222 12.6505 14.8601 12.8505 14.8601H17.5901C17.7901 14.8601 17.9523 15.0222 17.9523 15.2223C17.9523 15.4222 17.7901 15.5845 17.5901 15.5845Z" fill="#3A484A"/>
<path d="M7.70007 19.2237C7.60687 19.2237 7.51276 19.2036 7.4234 19.1624C7.18683 19.0538 7.03979 18.8244 7.03979 18.5638V17.95C7.03979 17.7501 7.20184 17.5879 7.40198 17.5879C7.60211 17.5879 7.76416 17.7501 7.76416 17.95V18.4226C8.24042 18.0328 8.99445 17.5318 10.0279 17.1872C10.2176 17.1241 10.4227 17.2266 10.486 17.4163C10.5492 17.6062 10.4467 17.8113 10.257 17.8744C9.25171 18.2095 8.54346 18.7065 8.12634 19.0643C8.00366 19.1694 7.85315 19.2237 7.70007 19.2237Z" fill="#2BBDC4"/>
<path d="M17.5901 18.5581H12.8505C12.6505 18.5581 12.4883 18.3961 12.4883 18.1959C12.4883 17.996 12.6505 17.8337 12.8505 17.8337H17.5901C17.7901 17.8337 17.9523 17.996 17.9523 18.1959C17.9523 18.3961 17.7901 18.5581 17.5901 18.5581Z" fill="#3A484A"/>
<path d="M5.93732 4.86023V4.9906C5.93732 6.24725 6.95959 7.26971 8.21625 7.26971H16.7757C18.0324 7.26971 19.0548 6.24725 19.0548 4.9906V4.86023H5.93732Z" fill="#D4D2D3"/>
<path d="M16.7757 1.98431H14.4107C14.4129 1.94678 14.4144 1.90924 14.4144 1.87134C14.4144 0.81189 13.5554 -0.046875 12.496 -0.046875C11.4365 -0.046875 10.5778 0.81189 10.5778 1.87152C10.5778 1.90942 10.579 1.94696 10.5812 1.98431H8.21625C7.75775 1.98431 7.38586 2.35602 7.38586 2.8147V4.99054C7.38586 5.44904 7.75775 5.82092 8.21625 5.82092H16.7757C17.2342 5.82092 17.6061 5.44904 17.6061 4.99054V2.8147C17.6061 2.35602 17.2344 1.98431 16.7757 1.98431Z" fill="#BAB8B9"/>
<path d="M13.1248 1.87158C13.1248 2.21875 12.8431 2.50018 12.496 2.50018C12.1488 2.50018 11.8674 2.21875 11.8674 1.87158C11.8674 1.52423 12.1488 1.2428 12.496 1.2428C12.8431 1.2428 13.1248 1.52423 13.1248 1.87158Z" fill="#D4D2D3"/>
<path d="M9.44397 4.3631C9.24402 4.3631 9.08179 4.20087 9.08179 4.00092V3.44849C9.08179 3.24854 9.24402 3.0863 9.44397 3.0863C9.6441 3.0863 9.80615 3.24854 9.80615 3.44849V4.00092C9.80615 4.20087 9.6441 4.3631 9.44397 4.3631Z" fill="#3A484A"/>
<path d="M15.548 4.3631C15.3478 4.3631 15.1858 4.20087 15.1858 4.00092V3.44849C15.1858 3.24854 15.3478 3.0863 15.548 3.0863C15.7481 3.0863 15.9102 3.24854 15.9102 3.44849V4.00092C15.9102 4.20087 15.7481 4.3631 15.548 4.3631Z" fill="#3A484A"/>
<path d="M12.496 4.65793C12.0979 4.65793 11.724 4.4913 11.47 4.2009C11.3384 4.0502 11.3538 3.8215 11.5045 3.68985C11.655 3.5582 11.8839 3.57358 12.0155 3.72409C12.1318 3.85721 12.3068 3.93356 12.496 3.93356C12.6851 3.93356 12.8602 3.85721 12.9764 3.72409C13.1081 3.57358 13.337 3.5582 13.4875 3.68985C13.6382 3.8215 13.6536 4.0502 13.5219 4.2009C13.2681 4.4913 12.8942 4.65793 12.496 4.65793Z" fill="#3A484A"/>
</g>
<defs>
<clipPath id="clip0">
<rect width="24" height="24" fill="white" transform="translate(0.469971)"/>
</clipPath>
</defs>
</svg>
