<svg width="25" height="25" viewBox="0 0 25 25" fill="none" xmlns="http://www.w3.org/2000/svg">
<path fill-rule="evenodd" clip-rule="evenodd" d="M2.43799 6.79602V21.796C2.43799 22.1938 2.59602 22.5754 2.87733 22.8567C3.15863 23.138 3.54016 23.296 3.93799 23.296H21.938C22.3358 23.296 22.7173 23.138 22.9986 22.8567C23.28 22.5754 23.438 22.1938 23.438 21.796V6.79602H2.43799ZM3.93799 2.29602C3.14234 2.29602 2.37928 2.61209 1.81667 3.1747C1.25406 3.73731 0.937988 4.50037 0.937988 5.29602L0.937988 21.796C0.937988 22.5917 1.25406 23.3547 1.81667 23.9173C2.37928 24.4799 3.14234 24.796 3.93799 24.796H21.938C22.7336 24.796 23.4967 24.4799 24.0593 23.9173C24.6219 23.3547 24.938 22.5917 24.938 21.796V5.29602C24.938 4.50037 24.6219 3.73731 24.0593 3.1747C23.4967 2.61209 22.7336 2.29602 21.938 2.29602H3.93799Z" fill="#9188E5"/>
<path fill-rule="evenodd" clip-rule="evenodd" d="M6.18799 0.796021C6.3869 0.796021 6.57767 0.875038 6.71832 1.01569C6.85897 1.15634 6.93799 1.34711 6.93799 1.54602V2.29602C6.93799 2.49493 6.85897 2.6857 6.71832 2.82635C6.57767 2.967 6.3869 3.04602 6.18799 3.04602C5.98908 3.04602 5.79831 2.967 5.65766 2.82635C5.51701 2.6857 5.43799 2.49493 5.43799 2.29602V1.54602C5.43799 1.34711 5.51701 1.15634 5.65766 1.01569C5.79831 0.875038 5.98908 0.796021 6.18799 0.796021V0.796021ZM19.688 0.796021C19.8869 0.796021 20.0777 0.875038 20.2183 1.01569C20.359 1.15634 20.438 1.34711 20.438 1.54602V2.29602C20.438 2.49493 20.359 2.6857 20.2183 2.82635C20.0777 2.967 19.8869 3.04602 19.688 3.04602C19.4891 3.04602 19.2983 2.967 19.1577 2.82635C19.017 2.6857 18.938 2.49493 18.938 2.29602V1.54602C18.938 1.34711 19.017 1.15634 19.1577 1.01569C19.2983 0.875038 19.4891 0.796021 19.688 0.796021V0.796021Z" fill="#9188E5"/>
<path d="M19.688 9.79602H18.188C17.7738 9.79602 17.438 10.1318 17.438 10.546V12.046C17.438 12.4602 17.7738 12.796 18.188 12.796H19.688C20.1022 12.796 20.438 12.4602 20.438 12.046V10.546C20.438 10.1318 20.1022 9.79602 19.688 9.79602Z" fill="#9188E5"/>
</svg>
