<svg width="12" height="15" viewBox="0 0 12 15" fill="none" xmlns="http://www.w3.org/2000/svg">
<path d="M9.99999 2.50903C8.93913 1.44816 7.50028 0.852173 5.99999 0.852173C4.4997 0.852173 3.06086 1.44816 1.99999 2.50903C0.939128 3.56989 0.34314 5.00874 0.34314 6.50903C0.34314 8.00932 0.939128 9.44816 1.99999 10.509L5.51333 14.029C5.5753 14.0915 5.64904 14.1411 5.73028 14.175C5.81152 14.2088 5.89865 14.2262 5.98666 14.2262C6.07467 14.2262 6.1618 14.2088 6.24304 14.175C6.32428 14.1411 6.39802 14.0915 6.45999 14.029L9.99999 10.4757C11.0564 9.41924 11.6499 7.9864 11.6499 6.49236C11.6499 4.99832 11.0564 3.56548 9.99999 2.50903ZM9.04666 9.52236L5.99999 12.5824L2.95333 9.52236C2.35142 8.9199 1.94164 8.15252 1.77579 7.31722C1.60994 6.48192 1.69545 5.61619 2.02153 4.82948C2.34761 4.04277 2.89961 3.37039 3.60775 2.89735C4.31589 2.4243 5.14838 2.17181 5.99999 2.17181C6.8516 2.17181 7.6841 2.4243 8.39224 2.89735C9.10038 3.37039 9.65238 4.04277 9.97846 4.82948C10.3045 5.61619 10.3901 6.48192 10.2242 7.31722C10.0583 8.15252 9.64856 8.9199 9.04666 9.52236ZM3.99999 4.46236C3.4618 5.00221 3.15959 5.7334 3.15959 6.49569C3.15959 7.25798 3.4618 7.98918 3.99999 8.52903C4.39983 8.92955 4.90905 9.20308 5.46376 9.3153C6.01847 9.42751 6.59396 9.37341 7.11804 9.1598C7.64212 8.94618 8.09145 8.58255 8.40965 8.11453C8.72785 7.64651 8.90075 7.09494 8.90666 6.52903C8.90966 6.15116 8.83687 5.77653 8.6926 5.42729C8.54832 5.07804 8.33548 4.76126 8.06666 4.49569C7.80244 4.22541 7.48738 4.01005 7.13961 3.862C6.79184 3.71396 6.41822 3.63614 6.04026 3.63305C5.6623 3.62995 5.28746 3.70163 4.93731 3.84395C4.58716 3.98628 4.26861 4.19645 3.99999 4.46236ZM7.12666 7.58236C6.87402 7.83885 6.54013 7.99963 6.18208 8.0372C5.82402 8.07476 5.46404 7.98679 5.16366 7.78831C4.86329 7.58984 4.64119 7.29319 4.53533 6.94908C4.42947 6.60498 4.44643 6.23478 4.5833 5.9018C4.72017 5.56881 4.96846 5.2937 5.28572 5.12352C5.60297 4.95333 5.96949 4.89863 6.32262 4.96877C6.67574 5.03891 6.99353 5.22953 7.22167 5.50805C7.4498 5.78656 7.5741 6.13567 7.57333 6.49569C7.56363 6.90721 7.39099 7.29805 7.09333 7.58236H7.12666Z" fill="white"/>
</svg>
