<svg width="29" height="29" viewBox="0 0 29 29" fill="none" xmlns="http://www.w3.org/2000/svg">
<g clip-path="url(#clip0)">
<path d="M26.5396 4.05227C25.555 3.06697 24.219 2.51358 22.8262 2.51405C21.4338 2.51077 20.0979 3.06398 19.1155 4.05057L12.3367 10.8294C10.9955 12.1727 10.4828 14.1348 10.9954 15.9625C11.1455 16.4946 11.6985 16.8043 12.2306 16.6542C12.7627 16.5041 13.0724 15.9511 12.9223 15.419C12.6063 14.2887 12.9234 13.0758 13.7521 12.2448L20.5309 5.46702C21.7982 4.19937 23.8533 4.19914 25.1209 5.46655C26.3886 6.73392 26.3888 8.78898 25.1215 10.0566L18.3427 16.8354C17.8985 17.2802 17.3343 17.586 16.7191 17.7153C16.1779 17.828 15.8305 18.3581 15.9431 18.8993C16.04 19.3647 16.4509 19.6977 16.9263 19.6963C16.9962 19.6963 17.066 19.6889 17.1345 19.6743C18.1287 19.4646 19.0403 18.97 19.7581 18.2508L26.5369 11.4731C28.5868 9.42459 28.588 6.10223 26.5396 4.05227Z" fill="black"/>
<path d="M17.1255 12.1167C16.9754 11.5846 16.4224 11.2749 15.8903 11.425C15.3582 11.5751 15.0485 12.1281 15.1986 12.6602C15.5146 13.7905 15.1975 15.0034 14.3688 15.8343L7.58995 22.6132C6.32259 23.8808 4.26753 23.881 2.99988 22.6136C1.73222 21.3463 1.73199 19.2912 2.99935 18.0235L9.77816 11.2437C10.2217 10.799 10.7852 10.4933 11.3998 10.3638C11.9419 10.2554 12.2935 9.72805 12.185 9.18598C12.0766 8.64392 11.5492 8.29229 11.0072 8.40074C11.0005 8.40209 10.994 8.40344 10.9874 8.40491C9.993 8.61482 9.08107 9.10938 8.36276 9.82834L1.58395 16.6071C-0.449879 18.6724 -0.424424 21.9952 1.64078 24.0291C3.68347 26.0407 6.96237 26.0409 9.00535 24.0295L15.7841 17.2497C17.1254 15.9064 17.6381 13.9443 17.1255 12.1167Z" fill="black"/>
</g>
<defs>
<clipPath id="clip0">
<rect width="28" height="28" fill="white" transform="translate(0.0750732 0.0259399)"/>
</clipPath>
</defs>
</svg>
