<svg width="24" height="24" viewBox="0 0 24 24" fill="none" xmlns="http://www.w3.org/2000/svg">
<path d="M22.8 12H22.4V2.4H22.8C23.4627 2.4 24 1.86272 24 1.2C24 0.537281 23.4628 0 22.8 0H1.2C0.537234 0 0 0.537234 0 1.2C0 1.86277 0.537234 2.4 1.2 2.4H1.59998V12H1.2C0.537234 12 0 12.5373 0 13.2C0 13.8627 0.537234 14.4 1.2 14.4H22.8C23.4627 14.4 24 13.8627 24 13.2C24 12.5373 23.4628 12 22.8 12ZM1.2 1.59998C0.979219 1.5997 0.800297 1.42078 0.800016 1.2C0.800297 0.979219 0.979219 0.800297 1.2 0.800016H22.8C23.0209 0.800016 23.2 0.979078 23.2 1.2C23.2 1.42092 23.0209 1.59998 22.8 1.59998H1.2ZM21.6 2.4V12H2.4V2.4H21.6ZM22.8 13.6H1.2C0.979078 13.6 0.800016 13.4209 0.800016 13.2C0.800016 12.9791 0.979078 12.8 1.2 12.8H22.8C23.0208 12.8003 23.1997 12.9792 23.2 13.2C23.1997 13.4208 23.0208 13.5997 22.8 13.6Z" fill="url(#paint0_linear)"/>
<path d="M6.80004 9.17326C7.02096 9.17326 7.20002 8.99415 7.20002 8.77327V6.81502L8.40002 7.32493V9.7119L8.40091 9.71626C8.40138 9.76707 8.41155 9.81732 8.43082 9.86429C8.45833 9.90742 8.48655 9.95002 8.51552 9.99221C8.55241 10.0299 8.59647 10.06 8.64504 10.0806L10.634 10.9252C11.5083 11.2932 12.4942 11.2929 13.3682 10.9242L15.3551 10.0806C15.4036 10.0599 15.4477 10.0299 15.4846 9.99217C15.5135 9.95002 15.5418 9.90737 15.5693 9.86424C15.5886 9.81723 15.5987 9.76698 15.5992 9.71621L15.6 9.71185V7.32488L17.1842 6.65166C17.4378 6.53382 17.6 6.27957 17.6 5.99991C17.6 5.72026 17.4378 5.46601 17.1842 5.34816L12.2483 3.25074C12.0897 3.18277 11.9102 3.18277 11.7516 3.25074L6.81583 5.34816C6.55896 5.46226 6.39522 5.7189 6.4 5.99991V8.77318C6.40005 8.99415 6.57911 9.17326 6.80004 9.17326ZM14.8 9.44724L13.0578 10.1869C12.3821 10.4716 11.6202 10.472 10.9443 10.1879L9.19994 9.44724V7.66491L11.7517 8.74923C11.9103 8.8172 12.0898 8.8172 12.2484 8.74923L14.8 7.66491V9.44724H14.8ZM12 4.01443L16.6723 6.00001L15.0462 6.69104L15.0427 6.69254L12 7.98554L8.95736 6.69254L8.95385 6.69104L7.32775 6.00001L12 4.01443Z" fill="url(#paint1_linear)"/>
<path d="M23.2 21.6H22.4V21.0857C22.3897 20.073 21.8085 19.1528 20.8985 18.7084C21.5356 18.1645 21.7663 17.2812 21.4764 16.4953C21.1866 15.7093 20.4376 15.1873 19.5999 15.1873C18.7622 15.1873 18.0133 15.7093 17.7234 16.4953C17.4336 17.2812 17.6642 18.1645 18.3014 18.7084C17.3913 19.1529 16.8102 20.073 16.7999 21.0857V21.6H14.7999V21.0857C14.7896 20.073 14.2085 19.1528 13.2984 18.7084C13.9356 18.1645 14.1662 17.2812 13.8764 16.4953C13.5865 15.7093 12.8376 15.1873 11.9999 15.1873C11.1622 15.1873 10.4132 15.7093 10.1234 16.4953C9.83353 17.2812 10.0642 18.1645 10.7013 18.7084C9.79125 19.1529 9.21009 20.073 9.19983 21.0857V21.6H7.2V21.0857C7.18973 20.073 6.60858 19.1528 5.69855 18.7084C6.33567 18.1645 6.56634 17.2812 6.27647 16.4953C5.98664 15.7093 5.23767 15.1873 4.39997 15.1873C3.56227 15.1873 2.8133 15.7093 2.52347 16.4953C2.23364 17.2812 2.46427 18.1645 3.10139 18.7084C2.19136 19.1529 1.6102 20.073 1.59994 21.0857V21.6H0.800016C0.358359 21.6004 0.000421875 21.9584 0 22.4V23.2C0.000421875 23.6417 0.358359 23.9996 0.800016 24.0001H23.2C23.6417 23.9996 23.9996 23.6417 24 23.2V22.4C23.9996 21.9584 23.6416 21.6004 23.2 21.6ZM19.6 16C20.2627 16 20.8 16.5372 20.8 17.2C20.8 17.8628 20.2628 18.4 19.6 18.4C18.9375 18.3993 18.4007 17.8624 18.4 17.2C18.4 16.5373 18.9373 16 19.6 16ZM17.6 21.0857C17.6623 20.0268 18.5392 19.2 19.6 19.2C20.6608 19.2 21.5377 20.0268 21.6 21.0857V21.6H17.6001V21.0857H17.6ZM12 16C12.6627 16 13.2 16.5372 13.2 17.2C13.2 17.8628 12.6627 18.4 12 18.4C11.3376 18.3993 10.8007 17.8624 10.8 17.2C10.8 16.5373 11.3373 16 12 16ZM9.99998 21.0857C10.0623 20.0268 10.9392 19.2 12 19.2C13.0608 19.2 13.9377 20.0268 14 21.0857V21.6H10V21.0857H9.99998ZM4.40002 16C5.06273 16 5.60002 16.5372 5.60002 17.2C5.60002 17.8628 5.06278 18.4 4.40002 18.4C3.73758 18.3993 3.20072 17.8624 3.20002 17.2C3.20002 16.5373 3.73725 16 4.40002 16ZM2.4 21.0857C2.43366 20.0137 3.3278 19.1706 4.40002 19.2C5.47219 19.1706 6.36633 20.0137 6.40003 21.0857V21.6H2.4V21.0857ZM0.800016 23.2V22.4H23.2L23.2006 23.2H0.800016Z" fill="url(#paint2_linear)"/>
<defs>
<linearGradient  x1="12" y1="0" x2="12" y2="14.4" gradientUnits="userSpaceOnUse">
<stop stop-color="#FF715A"/>
<stop offset="1" stop-color="#8CA0C9"/>
</linearGradient>
<linearGradient  x1="12" y1="3.19976" x2="12" y2="11.2009" gradientUnits="userSpaceOnUse">
<stop stop-color="#FF715A"/>
<stop offset="1" stop-color="#8CA0C9"/>
</linearGradient>
<linearGradient x1="12" y1="15.1873" x2="12" y2="24.0001" gradientUnits="userSpaceOnUse">
<stop stop-color="#FF715A"/>
<stop offset="1" stop-color="#8CA0C9"/>
</linearGradient>
</defs>
</svg>
