<svg width="25" height="19" viewBox="0 0 25 19" fill="none" xmlns="http://www.w3.org/2000/svg">
<path fill-rule="evenodd" clip-rule="evenodd" d="M22.688 2.02234H3.18799C2.98908 2.02234 2.79831 2.10136 2.65766 2.24201C2.51701 2.38266 2.43799 2.57343 2.43799 2.77234V16.2723C2.43799 16.4713 2.51701 16.662 2.65766 16.8027C2.79831 16.9433 2.98908 17.0223 3.18799 17.0223H22.688C22.8869 17.0223 23.0777 16.9433 23.2183 16.8027C23.359 16.662 23.438 16.4713 23.438 16.2723V2.77234C23.438 2.57343 23.359 2.38266 23.2183 2.24201C23.0777 2.10136 22.8869 2.02234 22.688 2.02234ZM3.18799 0.522339C2.59125 0.522339 2.01895 0.759392 1.597 1.18135C1.17504 1.60331 0.937988 2.1756 0.937988 2.77234L0.937988 16.2723C0.937988 16.8691 1.17504 17.4414 1.597 17.8633C2.01895 18.2853 2.59125 18.5223 3.18799 18.5223H22.688C23.2847 18.5223 23.857 18.2853 24.279 17.8633C24.7009 17.4414 24.938 16.8691 24.938 16.2723V2.77234C24.938 2.1756 24.7009 1.60331 24.279 1.18135C23.857 0.759392 23.2847 0.522339 22.688 0.522339H3.18799Z" fill="#6FCF97"/>
<path fill-rule="evenodd" clip-rule="evenodd" d="M5.43799 10.2723C5.43799 10.0734 5.51701 9.88266 5.65766 9.74201C5.79831 9.60136 5.98908 9.52234 6.18799 9.52234H19.688C19.8869 9.52234 20.0777 9.60136 20.2183 9.74201C20.359 9.88266 20.438 10.0734 20.438 10.2723C20.438 10.4713 20.359 10.662 20.2183 10.8027C20.0777 10.9433 19.8869 11.0223 19.688 11.0223H6.18799C5.98908 11.0223 5.79831 10.9433 5.65766 10.8027C5.51701 10.662 5.43799 10.4713 5.43799 10.2723ZM5.43799 13.2723C5.43799 13.0734 5.51701 12.8827 5.65766 12.742C5.79831 12.6014 5.98908 12.5223 6.18799 12.5223H15.188C15.3869 12.5223 15.5777 12.6014 15.7183 12.742C15.859 12.8827 15.938 13.0734 15.938 13.2723C15.938 13.4713 15.859 13.662 15.7183 13.8027C15.5777 13.9433 15.3869 14.0223 15.188 14.0223H6.18799C5.98908 14.0223 5.79831 13.9433 5.65766 13.8027C5.51701 13.662 5.43799 13.4713 5.43799 13.2723Z" fill="#6FCF97"/>
<path d="M5.43799 5.77234C5.43799 5.57343 5.51701 5.38266 5.65766 5.24201C5.79831 5.10136 5.98908 5.02234 6.18799 5.02234H19.688C19.8869 5.02234 20.0777 5.10136 20.2183 5.24201C20.359 5.38266 20.438 5.57343 20.438 5.77234V7.27234C20.438 7.47125 20.359 7.66202 20.2183 7.80267C20.0777 7.94332 19.8869 8.02234 19.688 8.02234H6.18799C5.98908 8.02234 5.79831 7.94332 5.65766 7.80267C5.51701 7.66202 5.43799 7.47125 5.43799 7.27234V5.77234Z" fill="#6FCF97"/>
</svg>
