<svg width="29" height="29" viewBox="0 0 29 29" fill="none" xmlns="http://www.w3.org/2000/svg">
<path d="M14.0751 1.77594C7.31023 1.77594 1.82507 7.2611 1.82507 14.0259C1.82507 20.7908 7.31023 26.2759 14.0751 26.2759C20.8399 26.2759 26.3251 20.7908 26.3251 14.0259C26.3251 7.2611 20.8399 1.77594 14.0751 1.77594ZM14.0751 24.1978C8.45867 24.1978 3.9032 19.6423 3.9032 14.0259C3.9032 8.40953 8.45867 3.85406 14.0751 3.85406C19.6915 3.85406 24.2469 8.40953 24.2469 14.0259C24.2469 19.6423 19.6915 24.1978 14.0751 24.1978Z" fill="black"/>
<path d="M17.1266 8.68571C16.3063 7.96657 15.2235 7.57281 14.0751 7.57281C12.9266 7.57281 11.8438 7.9693 11.0235 8.68571C10.1704 9.43219 9.70007 10.4357 9.70007 11.5103V11.7181C9.70007 11.8384 9.79851 11.9369 9.91882 11.9369H11.2313C11.3516 11.9369 11.4501 11.8384 11.4501 11.7181V11.5103C11.4501 10.3045 12.6286 9.32281 14.0751 9.32281C15.5216 9.32281 16.7001 10.3045 16.7001 11.5103C16.7001 12.3607 16.0985 13.14 15.1661 13.4982C14.5864 13.7197 14.0942 14.108 13.7415 14.6166C13.3833 15.1361 13.1973 15.7595 13.1973 16.3912V16.9791C13.1973 17.0994 13.2958 17.1978 13.4161 17.1978H14.7286C14.8489 17.1978 14.9473 17.0994 14.9473 16.9791V16.3584C14.9488 16.0929 15.0301 15.834 15.1808 15.6155C15.3316 15.397 15.5446 15.229 15.7923 15.1334C17.4055 14.5127 18.4473 13.0908 18.4473 11.5103C18.4501 10.4357 17.9798 9.43219 17.1266 8.68571ZM12.9813 20.0416C12.9813 20.3316 13.0966 20.6098 13.3017 20.815C13.5068 21.0201 13.785 21.1353 14.0751 21.1353C14.3652 21.1353 14.6434 21.0201 14.8485 20.815C15.0536 20.6098 15.1688 20.3316 15.1688 20.0416C15.1688 19.7515 15.0536 19.4733 14.8485 19.2682C14.6434 19.063 14.3652 18.9478 14.0751 18.9478C13.785 18.9478 13.5068 19.063 13.3017 19.2682C13.0966 19.4733 12.9813 19.7515 12.9813 20.0416Z" fill="black"/>
</svg>
