<svg width="25" height="25" viewBox="0 0 25 25" fill="none" xmlns="http://www.w3.org/2000/svg">
<path d="M23.2226 20.0527C23.3866 19.7387 23.4798 19.3823 23.4798 19.0043V18.1022C23.4798 17.1212 22.8549 16.2834 21.9823 15.9658C21.8065 14.9982 21.2485 14.1518 20.4313 13.6055C20.5951 13.2917 20.6884 12.9353 20.6884 12.5575V11.6555C20.6884 10.4023 19.6689 9.38281 18.4157 9.38281C17.1626 9.38281 16.143 10.4023 16.143 11.6555V12.5575C16.143 12.9354 16.2363 13.2917 16.4001 13.6056C16.1054 13.8027 15.8445 14.0392 15.6228 14.3061C15.3998 14.0368 15.1392 13.8016 14.8481 13.6064C15.0122 13.2923 15.1056 12.9357 15.1056 12.5575V11.6555C15.1056 10.4023 14.086 9.38281 12.8329 9.38281C11.5798 9.38281 10.5602 10.4023 10.5602 11.6555V12.5575C10.5602 12.9357 10.6536 13.2923 10.8178 13.6064C10.525 13.8027 10.2632 14.0396 10.0393 14.3109C9.81722 14.042 9.55697 13.8037 9.26513 13.6066C9.42933 13.2925 9.5228 12.9358 9.5228 12.5575V11.6555C9.5228 10.4023 8.50328 9.38281 7.25009 9.38281C5.99694 9.38281 4.97742 10.4023 4.97742 11.6555V12.5575C4.97742 12.9354 5.07066 13.2917 5.23453 13.6056C4.41802 14.1517 3.85946 14.9982 3.68354 15.9658C2.81088 16.2834 2.186 17.1212 2.186 18.1022V19.0043C2.186 19.3823 2.27928 19.7387 2.44324 20.0527C1.43994 20.7229 0.833008 21.8388 0.833008 23.0631V24.1979C0.833008 24.4568 1.04287 24.6666 1.30175 24.6666H6.88461H12.4675H18.7813H24.3641C24.623 24.6666 24.8329 24.4568 24.8329 24.1979V23.0631C24.8328 21.8388 24.2259 20.7228 23.2226 20.0527ZM22.5424 18.1022V19.0043C22.5424 19.7405 21.9434 20.3394 21.2072 20.3394C20.471 20.3394 19.8721 19.7405 19.8721 19.0043V18.1022C19.8721 17.366 20.471 16.7671 21.2072 16.7671C21.9434 16.7671 22.5424 17.366 22.5424 18.1022ZM20.9878 15.8404C19.8372 15.9511 18.9345 16.9231 18.9345 18.1022V19.0043C18.9345 19.3825 19.0279 19.7392 19.1921 20.0532C18.9015 20.2482 18.6413 20.4834 18.4183 20.7525C18.1969 20.4861 17.9354 20.2502 17.6397 20.0527C17.8037 19.7387 17.897 19.3823 17.897 19.0043V18.1022C17.897 16.9232 16.9943 15.9512 15.8438 15.8404C16.0338 15.2228 16.4472 14.681 17.001 14.3342C17.3895 14.6442 17.8811 14.8302 18.4157 14.8302C18.9502 14.8302 19.4418 14.6442 19.8304 14.3342C20.3846 14.6811 20.7978 15.2227 20.9878 15.8404ZM14.2891 19.0043V18.1022C14.2891 17.366 14.8881 16.7671 15.6243 16.7671C16.3605 16.7671 16.9595 17.366 16.9595 18.1022V19.0043C16.9595 19.7405 16.3605 20.3394 15.6243 20.3394C14.8881 20.3394 14.2891 19.7405 14.2891 19.0043ZM17.0805 11.6555C17.0805 10.9192 17.6795 10.3203 18.4157 10.3203C19.1519 10.3203 19.7509 10.9193 19.7509 11.6555V12.5575C19.7509 13.2937 19.1519 13.8927 18.4157 13.8927C17.6795 13.8927 17.0805 13.2937 17.0805 12.5575V11.6555ZM11.4977 11.6555C11.4977 10.9192 12.0966 10.3203 12.8329 10.3203C13.5691 10.3203 14.168 10.9193 14.168 11.6555V12.5575C14.168 13.2937 13.5691 13.8927 12.8329 13.8927C12.0966 13.8927 11.4976 13.2937 11.4976 12.5575L11.4977 11.6555ZM11.4182 14.3342C11.8068 14.6442 12.2984 14.8302 12.8329 14.8302C13.3674 14.8302 13.859 14.6442 14.2475 14.3343C14.5874 14.5458 14.8749 14.8287 15.0926 15.1663C14.9819 15.42 14.8997 15.6879 14.8492 15.9658C13.9765 16.2834 13.3516 17.1212 13.3516 18.1022V19.0043C13.3516 19.3823 13.4449 19.7387 13.6089 20.0526C13.3133 20.25 13.0519 20.4858 12.8306 20.7519C12.6077 20.483 12.3475 20.2482 12.0567 20.0531C12.2208 19.7391 12.3142 19.3824 12.3142 19.0042V18.1022C12.3142 17.1209 11.689 16.283 10.816 15.9656C10.7652 15.691 10.6822 15.4244 10.5704 15.1709C10.7884 14.8312 11.0769 14.5467 11.4182 14.3342ZM8.70625 19.0043V18.1022C8.70625 17.366 9.30521 16.7671 10.0415 16.7671C10.7777 16.7671 11.3767 17.366 11.3767 18.1022V19.0043C11.3767 19.7405 10.7777 20.3394 10.0415 20.3394C9.30521 20.3394 8.70625 19.7405 8.70625 19.0043ZM5.91482 11.6555C5.91482 10.9192 6.51378 10.3203 7.25 10.3203C7.98625 10.3203 8.58522 10.9193 8.58522 11.6555V12.5575C8.58522 13.2937 7.98625 13.8927 7.25004 13.8927C6.51378 13.8927 5.91482 13.2937 5.91482 12.5575V11.6555ZM5.83532 14.3342C6.22386 14.6442 6.71548 14.8302 7.25004 14.8302C7.78455 14.8302 8.27622 14.6442 8.66472 14.3342C9.21901 14.6811 9.63211 15.2226 9.82205 15.8404C8.67147 15.9511 7.76876 16.9231 7.76876 18.1022V19.0043C7.76876 19.3823 7.86204 19.7387 8.026 20.0527C7.73055 20.25 7.46923 20.4857 7.24793 20.7517C7.02509 20.4828 6.7647 20.2482 6.4738 20.0531C6.63791 19.7391 6.73128 19.3825 6.73128 19.0043V18.1022C6.73128 16.9232 5.82862 15.9512 4.67808 15.8404C4.86816 15.2228 5.28155 14.681 5.83532 14.3342ZM3.12344 18.1022C3.12344 17.366 3.7224 16.7671 4.45866 16.7671C5.19487 16.7671 5.79384 17.366 5.79384 18.1022V19.0043C5.79384 19.7405 5.19487 20.3394 4.45866 20.3394C3.7224 20.3394 3.12344 19.7405 3.12344 19.0043V18.1022ZM1.77045 23.0631C1.77045 22.1247 2.25251 21.2716 3.04371 20.7809C3.43225 21.0909 3.92401 21.277 4.45862 21.277C4.99313 21.277 5.48475 21.091 5.87329 20.781C6.2129 20.9924 6.50005 21.2747 6.71755 21.6119C6.52166 22.0605 6.41582 22.5523 6.41582 23.0631V23.7291H1.77045V23.0631ZM7.35331 23.0631C7.35331 22.1247 7.83532 21.2716 8.62651 20.7809C9.01506 21.0909 9.50682 21.277 10.0414 21.277C10.5759 21.277 11.0676 21.091 11.4561 20.7811C11.7955 20.9924 12.0827 21.2748 12.3003 21.6121C12.1045 22.0607 11.9986 22.5524 11.9986 23.0632V23.7292H7.35326L7.35331 23.0631ZM12.9362 23.0631C12.9362 22.1247 13.4182 21.2716 14.2094 20.7809C14.5979 21.0909 15.0897 21.277 15.6243 21.277C16.1589 21.277 16.6506 21.091 17.0392 20.7809C17.8303 21.2717 18.3125 22.125 18.3125 23.0631V23.7291H12.9362V23.0631ZM23.8953 23.7291H19.25V23.0631C19.25 22.5525 19.1441 22.0608 18.9482 21.6121C19.1659 21.2749 19.4535 20.9922 19.7925 20.781C20.181 21.091 20.6726 21.2769 21.2071 21.2769C21.7417 21.2769 22.2335 21.0909 22.622 20.7808C23.4133 21.2715 23.8953 22.1246 23.8953 23.063L23.8953 23.7291Z" fill="white"/>
<path d="M9.04772 4.45071C9.29118 4.36277 9.41732 4.09409 9.32939 3.85062C9.03464 3.03444 9.14109 2.3887 9.65488 1.87655C10.2887 1.24472 11.32 1.24472 11.9539 1.87655C12.4469 2.36798 13.2193 2.36803 13.7124 1.87655C14.3462 1.24472 15.3775 1.24472 16.0114 1.87655C16.4715 2.33521 16.6041 2.89879 16.4166 3.59942C15.947 5.35511 13.7684 7.14797 12.8335 7.50154C12.566 7.39954 12.1928 7.17661 11.8034 6.88383C11.5964 6.7282 11.3025 6.76988 11.147 6.97683C10.9915 7.18378 11.0331 7.47763 11.24 7.63316C11.7995 8.05377 12.3223 8.34275 12.7122 8.44686C12.7518 8.45745 12.7925 8.46275 12.8332 8.46275C12.8739 8.46275 12.9145 8.45745 12.9542 8.44686C13.5781 8.28022 14.5279 7.64165 15.374 6.81998C15.9551 6.25575 16.9808 5.11858 17.3224 3.84167C17.5962 2.81793 17.3718 1.9088 16.6732 1.21257C15.6745 0.216905 14.0493 0.216905 13.0506 1.21257C12.9078 1.35478 12.7238 1.32024 12.6158 1.21257C11.6169 0.216952 9.99182 0.217045 8.99306 1.21257C8.2171 1.98604 8.02847 3.00838 8.44763 4.16899C8.53556 4.41251 8.8042 4.53851 9.04772 4.45071Z" fill="white"/>
<path d="M9.98809 5.34131C9.7292 5.34131 9.51953 5.55117 9.51953 5.81005C9.51953 6.06894 9.72953 6.2788 9.98842 6.2788C10.2473 6.2788 10.4572 6.06894 10.4572 5.81005C10.4572 5.55117 10.2473 5.34131 9.98842 5.34131H9.98809Z" fill="white"/>
</svg>
