<svg width="24" height="25" viewBox="0 0 24 25" fill="none" xmlns="http://www.w3.org/2000/svg">
<path d="M22.1838 12.3016L12.5299 2.65477C12.4604 2.58512 12.3778 2.52986 12.2869 2.49216C12.196 2.45446 12.0986 2.43506 12.0002 2.43506C11.9018 2.43506 11.8044 2.45446 11.7135 2.49216C11.6226 2.52986 11.54 2.58512 11.4705 2.65477L1.8166 12.3016C1.53535 12.5829 1.37598 12.9649 1.37598 13.3634C1.37598 14.1907 2.04863 14.8634 2.87598 14.8634H3.89316V21.747C3.89316 22.1618 4.22832 22.497 4.64316 22.497H10.5002V17.247H13.1252V22.497H19.3572C19.7721 22.497 20.1072 22.1618 20.1072 21.747V14.8634H21.1244C21.5229 14.8634 21.9049 14.7063 22.1861 14.4227C22.7697 13.8368 22.7697 12.8876 22.1838 12.3016Z" fill="white"/>
</svg>
