<svg width="24" height="25" viewBox="0 0 24 25" fill="none" xmlns="http://www.w3.org/2000/svg">
<g clip-path="url(#clip0)">
<path d="M3.76975 20.2489C4.5746 19.4924 4.61385 18.2267 3.85735 17.4218C3.10085 16.617 1.83515 16.5777 1.03025 17.3342C0.2254 18.0907 0.18615 19.3564 0.94265 20.1612C0.97095 20.1913 1.00015 20.2205 1.03025 20.2488C0.39775 20.5907 0.00255009 21.2509 9.42575e-08 21.9699V24.3992C-0.000149906 24.62 0.17875 24.799 0.39955 24.7992H4.4C4.6208 24.7993 4.79985 24.6204 4.8 24.3996V21.9699C4.79745 21.2509 4.40225 20.5907 3.76975 20.2489ZM2.4 17.5992C3.06275 17.5992 3.6 18.1364 3.6 18.7992C3.6 19.4619 3.06275 19.9992 2.4 19.9992C1.73725 19.9992 1.2 19.4619 1.2 18.7992C1.2007 18.1367 1.73755 17.5999 2.4 17.5992Z" fill="white"/>
<path d="M10.1696 20.2488C10.9745 19.4923 11.0137 18.2266 10.2572 17.4218C9.5007 16.6169 8.235 16.5777 7.43015 17.3342C6.6253 18.0907 6.58605 19.3564 7.34255 20.1612C7.37085 20.1913 7.40005 20.2205 7.43015 20.2488C6.7976 20.5907 6.4024 21.2508 6.3999 21.9698V24.3991C6.39975 24.6199 6.57865 24.799 6.79945 24.7991H10.7999C11.0207 24.7993 11.1998 24.6204 11.1999 24.3996V21.9698C11.1973 21.2508 10.8021 20.5907 10.1696 20.2488ZM8.79985 17.5991C9.4626 17.5991 9.99985 18.1364 9.99985 18.7991C9.99985 19.4619 9.4626 19.9991 8.79985 19.9991C8.1371 19.9991 7.59985 19.4619 7.59985 18.7991C7.60055 18.1367 8.1374 17.5998 8.79985 17.5991Z" fill="white"/>
<path d="M16.57 20.2488C17.3748 19.4923 17.4141 18.2266 16.6576 17.4218C15.9011 16.6169 14.6354 16.5777 13.8305 17.3342C13.0257 18.0907 12.9864 19.3564 13.7429 20.1612C13.7712 20.1913 13.8004 20.2205 13.8305 20.2488C13.198 20.5907 12.8028 21.2508 12.8003 21.9698V24.3991C12.8001 24.6199 12.979 24.799 13.1998 24.7991H17.2003C17.4211 24.7993 17.6001 24.6204 17.6003 24.3996V21.9698C17.5977 21.2508 17.2025 20.5907 16.57 20.2488ZM15.2002 17.5991C15.863 17.5991 16.4002 18.1364 16.4002 18.7991C16.4002 19.4619 15.863 19.9991 15.2002 19.9991C14.5375 19.9991 14.0002 19.4619 14.0002 18.7991C14.0009 18.1367 14.5378 17.5998 15.2002 17.5991Z" fill="white"/>
<path d="M22.9699 20.2488C23.7747 19.4923 23.814 18.2266 23.0575 17.4218C22.301 16.6169 21.0353 16.5777 20.2304 17.3342C19.4256 18.0907 19.3863 19.3564 20.1428 20.1612C20.1711 20.1913 20.2003 20.2205 20.2304 20.2488C19.5979 20.5907 19.2027 21.2508 19.2002 21.9698V24.3991C19.2 24.6199 19.3789 24.799 19.5997 24.7991H23.6002C23.821 24.7993 24 24.6204 24.0002 24.3996V21.9698C23.9976 21.2508 23.6024 20.5907 22.9699 20.2488ZM21.6001 17.5991C22.2629 17.5991 22.8001 18.1364 22.8001 18.7991C22.8001 19.4619 22.2629 19.9991 21.6001 19.9991C20.9374 19.9991 20.4001 19.4619 20.4001 18.7991C20.4008 18.1367 20.9377 17.5998 21.6001 17.5991Z" fill="white"/>
<path d="M14.4004 2.79932C14.4002 2.79932 14.4001 2.79932 14.3999 2.79932H8.7999C8.5791 2.79917 8.40005 2.97807 8.3999 3.19887C8.3999 3.19902 8.3999 3.19917 8.3999 3.19932V10.3993C8.39975 10.6201 8.57865 10.7992 8.79945 10.7993C8.7996 10.7993 8.79975 10.7993 8.7999 10.7993H14.3999C14.6207 10.7995 14.7998 10.6206 14.7999 10.3998C14.7999 10.3996 14.7999 10.3995 14.7999 10.3993V3.19932C14.8001 2.97852 14.6212 2.79947 14.4004 2.79932ZM13.9999 9.99932H9.1999V3.59932H13.9999V9.99932Z" fill="white"/>
<path d="M21.1683 2.91245C21.1513 2.89465 21.1339 2.87725 21.1161 2.86025C20.4707 2.24775 19.4587 2.24775 18.8133 2.86025L18.8 2.87315L18.7867 2.86025C18.1413 2.24775 17.1294 2.24775 16.484 2.86025C15.8596 3.45576 15.8363 4.44466 16.4318 5.06901C16.4488 5.08681 16.4662 5.10421 16.484 5.12121L18.5223 7.08721C18.6773 7.23671 18.9228 7.23671 19.0777 7.08721L21.116 5.12121C21.7404 4.52571 21.7638 3.53681 21.1683 2.91245ZM20.5925 4.51346C20.5822 4.52441 20.5715 4.53506 20.5606 4.54541L18.8 6.24346L17.0395 4.54541C16.7331 4.25671 16.7188 3.77436 17.0075 3.46801C17.0179 3.45706 17.0285 3.44641 17.0395 3.43606C17.3736 3.1194 17.8971 3.1194 18.2313 3.43606L18.5223 3.71691C18.6774 3.86611 18.9227 3.86611 19.0777 3.71691L19.3687 3.43606C19.7028 3.11905 20.2265 3.11905 20.5605 3.43606C20.8669 3.72471 20.8812 4.20711 20.5925 4.51346Z" fill="white"/>
<path d="M13.1198 6.5593L11.9198 4.9593C11.7746 4.7826 11.5137 4.7571 11.337 4.9023C11.3162 4.9194 11.2971 4.9385 11.28 4.9593L10.08 6.5593C9.97334 6.7014 9.97334 6.89685 10.08 7.039L11.28 8.639C11.4122 8.8157 11.6626 8.8517 11.8393 8.7195C11.8699 8.69665 11.897 8.66955 11.9198 8.639L13.1198 7.039C13.2265 6.8969 13.2265 6.7014 13.1198 6.5593ZM11.5999 7.73235L10.8999 6.79915L11.5999 5.86595L12.2999 6.79915L11.5999 7.73235Z" fill="white"/>
<path d="M18.8001 7.99951C17.0328 7.99951 15.6001 9.43221 15.6001 11.1995C15.6001 12.9668 17.0328 14.3995 18.8001 14.3995C20.5674 14.3995 22.0001 12.9668 22.0001 11.1995C21.9981 9.43306 20.5665 8.00151 18.8001 7.99951ZM18.8001 13.5995C17.4746 13.5995 16.4001 12.525 16.4001 11.1995C16.4001 9.87401 17.4746 8.79951 18.8001 8.79951C20.1256 8.79951 21.2001 9.87401 21.2001 11.1995C21.1986 12.5244 20.125 13.5981 18.8001 13.5995Z" fill="white"/>
<path d="M19.2001 11.9995C19.1999 12.2204 19.0209 12.3994 18.8001 12.3995C18.5792 12.3994 18.4002 12.2204 18.4001 11.9995H17.6001C17.6001 12.6623 18.1373 13.1995 18.8001 13.1995C19.4628 13.1995 20.0001 12.6623 20.0001 11.9995H19.2001Z" fill="white"/>
<path d="M19.8002 9.99951C19.4688 9.99951 19.2002 10.2682 19.2002 10.5995C19.2002 10.9309 19.4688 11.1995 19.8002 11.1995C20.1315 11.1995 20.4002 10.9309 20.4002 10.5995C20.3998 10.2683 20.1314 9.99986 19.8002 9.99951ZM19.8002 10.7995C19.6897 10.7995 19.6002 10.71 19.6002 10.5995C19.6002 10.4891 19.6897 10.3995 19.8002 10.3995C19.9106 10.3995 20.0002 10.4891 20.0002 10.5995C20 10.7099 19.9105 10.7993 19.8002 10.7995Z" fill="white"/>
<path d="M17.8002 9.99951C17.4688 9.99951 17.2002 10.2682 17.2002 10.5995C17.2002 10.9309 17.4688 11.1995 17.8002 11.1995C18.1314 11.1992 18.3998 10.9307 18.4002 10.5995C18.4002 10.2682 18.1315 9.99951 17.8002 9.99951ZM17.8002 10.7995C17.6898 10.7993 17.6004 10.7099 17.6002 10.5995C17.6002 10.4891 17.6897 10.3995 17.8002 10.3995C17.9106 10.3995 18.0002 10.4891 18.0002 10.5995C18.0002 10.71 17.9106 10.7995 17.8002 10.7995Z" fill="white"/>
<path d="M7.20045 8.79932C7.2003 8.79932 7.20015 8.79932 7.2 8.79932H2.4C2.1792 8.79917 2.00015 8.97807 2 9.19887C2 9.19902 2 9.19917 2 9.19932V11.9993C1.99985 12.2201 2.17875 12.3992 2.39955 12.3993C2.3997 12.3993 2.39985 12.3993 2.4 12.3993H3.8551L6.14375 14.3067C6.3135 14.4482 6.5658 14.4252 6.70725 14.2555C6.78475 14.1625 6.81595 14.0394 6.7922 13.9208L6.4879 12.3993H7.2C7.4208 12.3995 7.59985 12.2206 7.6 11.9998C7.6 11.9996 7.6 11.9995 7.6 11.9993V9.19932C7.60015 8.97852 7.42125 8.79947 7.20045 8.79932ZM6.8 11.5993H6C5.7791 11.5993 5.6 11.7784 5.60005 11.9994C5.60005 12.0257 5.60265 12.052 5.60785 12.0779L5.7856 12.9665L4.2563 11.6919C4.18425 11.6321 4.0936 11.5993 4 11.5993H2.8V9.59932H6.8V11.5993Z" fill="white"/>
<path d="M19.3613 0.799316H4.63865C2.078 0.802166 0.00285 2.87732 0 5.43797V11.3606C0.00285 13.9213 2.078 15.9965 4.63865 15.9993H19.3613C21.922 15.9965 23.9971 13.9213 24 11.3607V5.43797C23.9972 2.87732 21.922 0.802166 19.3613 0.799316ZM23.2 11.3607C23.1977 13.4798 21.4804 15.1971 19.3613 15.1993H4.63865C2.5196 15.197 0.8023 13.4797 0.8 11.3607V5.43797C0.8023 3.31892 2.5196 1.60162 4.63865 1.59932H19.3613C21.4804 1.60162 23.1977 3.31892 23.1999 5.43797V11.3607H23.2Z" fill="white"/>
<path d="M5.23787 2.43356C5.09312 2.41076 4.94682 2.39931 4.80027 2.39941C3.61367 2.40156 2.55707 3.15076 2.16232 4.26976L2.16002 4.27401L2.15827 4.28076C2.10882 4.42231 2.07097 4.56766 2.04507 4.71531C2.04227 4.73081 2.04047 4.74626 2.03797 4.76176C1.79727 6.28831 2.83967 7.72096 4.36622 7.96166C5.89277 8.20236 7.32542 7.15996 7.56612 5.63341C7.80682 4.10686 6.76442 2.67426 5.23787 2.43356ZM4.36687 7.14911C3.31422 6.92961 2.63247 5.90601 2.83562 4.85006C3.74917 5.05341 4.39937 5.86346 4.40027 6.79941C4.39972 6.91676 4.38852 7.03381 4.36687 7.14911ZM5.16902 7.16211C5.18752 7.04201 5.19797 6.92086 5.20027 6.79941C5.19912 5.53611 4.35167 4.43031 3.13217 4.10061C3.42447 3.65641 3.88142 3.34666 4.40227 3.23961C4.42717 4.55651 5.36302 5.67961 6.65387 5.94161C6.39937 6.57501 5.83967 7.03501 5.16902 7.16211ZM5.20442 3.24061C6.11512 3.43096 6.77452 4.22386 6.79567 5.15406C5.88592 4.96211 5.22727 4.17011 5.20442 3.24061Z" fill="white"/>
</g>
<defs>
<clipPath id="clip0">
<rect width="24" height="24" fill="white" transform="translate(0 0.799316)"/>
</clipPath>
</defs>
</svg>
