<svg width="25" height="25" viewBox="0 0 25 25" fill="none" xmlns="http://www.w3.org/2000/svg">
<path d="M5.66629 13.6456V16.4556C5.66629 17.1856 6.06629 17.8656 6.70629 18.2156L11.7063 20.9456C12.3063 21.2756 13.0263 21.2756 13.6263 20.9456L18.6263 18.2156C19.2663 17.8656 19.6663 17.1856 19.6663 16.4556V13.6456L13.6263 16.9456C13.0263 17.2756 12.3063 17.2756 11.7063 16.9456L5.66629 13.6456ZM11.7063 3.98561L3.27629 8.58561C2.58629 8.96561 2.58629 9.96561 3.27629 10.3456L11.7063 14.9456C12.3063 15.2756 13.0263 15.2756 13.6263 14.9456L21.6663 10.5556V16.4656C21.6663 17.0156 22.1163 17.4656 22.6663 17.4656C23.2163 17.4656 23.6663 17.0156 23.6663 16.4656V10.0556C23.6663 9.68561 23.4663 9.35561 23.1463 9.17561L13.6263 3.98561C13.3308 3.82803 13.0011 3.74561 12.6663 3.74561C12.3314 3.74561 12.0017 3.82803 11.7063 3.98561Z" fill="white"/>
</svg>
