<svg width="14" height="16" viewBox="0 0 14 16" fill="none" xmlns="http://www.w3.org/2000/svg">
<path d="M7.38223 15.2291C8.76294 15.2291 9.88223 14.1098 9.88223 12.7291C9.88223 11.3484 8.76294 10.2291 7.38223 10.2291C6.00152 10.2291 4.88223 11.3484 4.88223 12.7291C4.88223 14.1098 6.00152 15.2291 7.38223 15.2291Z" fill="#FF5A79"/>
<path d="M13.7323 2.67905C12.6073 -0.945946 7.95727 0.0290534 7.38227 1.95405C6.80727 0.0290534 2.15727 -0.945946 1.03227 2.67905C0.532267 4.25405 1.30727 5.72905 2.63227 6.65405C4.40727 7.90405 6.50727 7.90405 7.38227 10.2291C8.25727 7.90405 10.3323 7.90405 12.1323 6.65405C13.4573 5.72905 14.2323 4.25405 13.7323 2.67905Z" fill="#FF5A79"/>
</svg>
