<svg width="348" height="402" viewBox="0 0 348 402" fill="none" xmlns="http://www.w3.org/2000/svg">
<g filter="url(#filter0_d)">
<g clip-path="url(#clip0)">
<path d="M7.27269 120.195V-15.5726H344.594V189.373C344.594 189.373 338.142 216.394 315.725 236.909C302.022 249.456 282.265 259.614 254.46 259.614C181.155 259.614 183.617 192.892 103.394 175.564C23.1044 158.236 14.1907 134.004 7.27269 120.195Z" fill="#16DBCE"/>
<path d="M18.9802 106.983C24.3017 119.73 31.6189 126.768 40.2 132.876C53.77 142.635 76.3202 150.934 107.252 157.639C151.288 167.133 174.171 190.436 192.53 209.158C210.89 227.813 224.127 241.29 254.46 241.29C278.407 241.29 297.698 232.195 311.734 214.336C320.647 202.983 333.419 176.029 338.674 150.004" stroke="white" stroke-width="3.7236" stroke-miterlimit="10" stroke-linecap="round" stroke-linejoin="round" stroke-dasharray="8.94 8.94"/>
<path opacity="0.4" d="M7.27269 49.8216V-15.5726H344.594V189.373C344.594 189.373 338.142 216.394 315.725 236.909C302.421 179.017 262.442 127.166 211.355 95.2987C151.288 57.7884 78.1827 45.5062 7.27269 49.8216Z" fill="black" fill-opacity="0.4"/>
<path d="M299.56 120.328C299.56 121.855 299.56 123.382 299.427 124.909C299.427 124.842 299.161 127.564 299.294 126.369C299.228 127.1 299.028 127.896 298.895 128.627C298.297 131.813 297.498 134.934 296.567 138.054C295.835 140.444 295.104 142.834 294.239 145.158C293.84 146.353 293.374 147.548 292.908 148.676C291.977 151 293.574 147.216 292.576 149.473C292.31 150.071 292.044 150.602 291.778 151.199C290.713 153.456 289.516 155.647 288.252 157.838C287.52 159.033 286.789 160.162 286.057 161.29C285.724 161.822 285.325 162.286 284.993 162.817C284.194 163.88 286.19 161.423 284.726 163.149C283.13 165.008 281.467 166.801 279.671 168.394C279.139 168.859 278.54 169.324 278.008 169.788C278.939 169.058 278.141 169.656 277.609 169.988C276.478 170.784 275.347 171.448 274.15 172.112C270.358 174.236 268.762 179.747 271.156 183.531C273.618 187.382 278.54 188.842 282.598 186.519C293.241 180.544 301.157 170.585 306.279 159.631C311.933 147.548 316.523 133.672 316.257 120.261C316.19 115.88 312.465 111.697 307.875 111.896C303.485 112.228 299.494 115.68 299.56 120.328Z" fill="#D8FFE8" fill-opacity="0.7"/>
<path d="M247.209 177.357C242.819 177.357 238.628 181.207 238.828 185.722C239.027 190.236 242.486 194.087 247.209 194.087C251.6 194.087 255.79 190.236 255.591 185.722C255.325 181.141 251.866 177.357 247.209 177.357Z" fill="#D8FFE8" fill-opacity="0.7"/>
<path d="M337.61 279.133C333.885 279.133 333.885 273.357 337.61 273.357C341.335 273.357 341.335 279.133 337.61 279.133Z" fill="#4CDAFF"/>
<path d="M43.0603 188.643C39.3352 188.643 39.3352 182.867 43.0603 182.867C46.7854 182.867 46.7854 188.643 43.0603 188.643Z" fill="#4CDAFF"/>
<path d="M204.105 322.22C197.719 322.22 197.719 312.328 204.105 312.328C210.424 312.394 210.424 322.22 204.105 322.22Z" fill="#EE2B7A"/>
<path d="M45.9872 303.764C43.3264 303.764 43.3264 299.647 45.9872 299.647C48.648 299.647 48.648 303.764 45.9872 303.764Z" fill="#EE2B7A"/>
<path d="M182.752 305.357C180.623 305.357 180.623 302.104 182.752 302.104C184.88 302.104 184.88 305.357 182.752 305.357Z" fill="#FA9D02"/>
<path d="M82.307 80.8921C79.114 80.8921 79.114 75.9792 82.307 75.9792C85.4999 75.9792 85.4999 80.8921 82.307 80.8921Z" fill="#FA9D02"/>
<path d="M333.02 357.739C329.827 357.739 329.827 352.826 333.02 352.826C336.213 352.826 336.213 357.739 333.02 357.739Z" fill="#D7E023"/>
<path d="M299.228 30.3029C296.035 30.3029 296.035 25.3901 299.228 25.3901C302.421 25.3237 302.421 30.3029 299.228 30.3029Z" fill="#FA9D02"/>
<path d="M172.973 221.506C168.849 221.506 168.849 215.066 172.973 215.066C177.164 215.133 177.164 221.506 172.973 221.506Z" fill="#FA9D02"/>
<path d="M187.741 200.66C185.612 200.66 185.612 197.407 187.741 197.407C189.869 197.407 189.869 200.66 187.741 200.66Z" fill="#D7E023"/>
<path d="M342.266 38.5353C337.477 38.5353 337.477 31.166 342.266 31.166C347.056 31.166 347.056 38.5353 342.266 38.5353Z" fill="#D7E023"/>
<path d="M165.124 23.332C161.931 23.332 161.931 18.4191 165.124 18.4191C168.25 18.3527 168.317 23.332 165.124 23.332Z" fill="#D7E023"/>
<path d="M78.3158 302.9C74.0585 302.9 74.0585 296.328 78.3158 296.328C82.5065 296.328 82.573 302.9 78.3158 302.9Z" fill="#B072CF"/>
<path d="M304.017 343.465C301.889 343.465 301.889 340.212 304.017 340.212C306.146 340.145 306.146 343.465 304.017 343.465Z" fill="#00DD90"/>
<path d="M231.644 207.299C229.515 207.299 229.515 203.979 231.644 203.979C233.706 203.979 233.772 207.299 231.644 207.299Z" fill="#00DD90"/>
<path d="M33.4815 72.4606C30.2885 72.4606 30.2885 67.5478 33.4815 67.5478C36.6079 67.4814 36.6079 72.4606 33.4815 72.4606Z" fill="#00DD90"/>
<path d="M307.277 167.465C311.467 167.465 315.459 168.793 318.851 171.249C319.383 171.647 319.849 172.046 320.381 172.444C324.505 176.162 326.833 181.407 326.833 186.917C326.833 197.672 318.053 206.436 307.277 206.436C306.412 206.436 305.547 206.369 304.682 206.236C302.82 205.971 301.024 205.506 299.361 204.709C292.31 201.589 287.786 194.552 287.786 186.851C287.786 176.228 296.501 167.465 307.277 167.465Z" fill="white"/>
<path d="M291.977 186.983C291.977 178.552 298.829 171.647 307.343 171.647C310.736 171.647 313.862 172.776 316.39 174.635C316.789 174.967 317.188 175.232 317.587 175.631C320.714 178.419 322.643 182.469 322.643 186.983C322.643 195.415 315.791 202.319 307.277 202.319C306.611 202.319 305.88 202.253 305.215 202.187C303.751 201.987 302.354 201.589 301.024 200.992C295.702 198.602 291.977 193.224 291.977 186.983Z" fill="#FFC301"/>
<path d="M294.305 186.983C294.305 186.386 294.372 185.788 294.438 185.191C294.571 184.394 294.704 183.598 294.971 182.867C296.7 177.689 301.556 174.037 307.277 174.037C312.997 174.037 317.853 177.755 319.583 182.867C319.849 183.598 320.048 184.394 320.115 185.191C320.182 185.788 320.248 186.386 320.248 186.983C320.248 188.444 319.982 189.838 319.583 191.166C317.853 196.278 312.997 199.996 307.277 199.996C301.556 199.996 296.7 196.344 294.971 191.166C294.571 189.838 294.305 188.444 294.305 186.983Z" fill="#EBA400"/>
<path d="M294.305 186.983C294.305 186.386 294.372 185.788 294.438 185.191C294.571 184.394 294.704 183.597 294.971 182.867C295.104 182.801 295.237 182.801 295.436 182.801H319.184C319.317 182.801 319.516 182.801 319.649 182.867C319.915 183.597 320.115 184.394 320.182 185.191C320.248 185.788 320.315 186.386 320.315 186.983C320.315 188.444 320.048 189.838 319.649 191.166H295.037C294.571 189.838 294.305 188.444 294.305 186.983Z" fill="#BADCFF"/>
<path d="M294.438 185.191C294.571 184.394 294.704 183.597 294.971 182.867C295.104 182.801 295.237 182.801 295.436 182.801H319.184C319.317 182.801 319.516 182.801 319.649 182.867C319.915 183.597 320.115 184.394 320.182 185.191H294.438Z" fill="#9DC3EB"/>
<path d="M306.212 188.245C306.212 187.647 306.678 187.182 307.277 187.182C307.875 187.182 308.341 187.647 308.341 188.245C308.341 188.842 307.875 189.307 307.277 189.307C306.678 189.307 306.212 188.842 306.212 188.245Z" fill="#7CA4CF"/>
<path opacity="0.3" d="M291.977 186.983C291.977 178.552 298.829 171.647 307.343 171.647C310.736 171.647 313.862 172.776 316.39 174.635C315.592 175.033 314.793 175.431 314.062 175.896C310.802 177.888 308.341 180.278 306.478 182.801C305.88 183.597 305.414 184.394 304.948 185.191C303.818 187.182 303.019 189.174 302.487 191.1C301.689 193.689 301.356 196.212 301.223 198.336C301.157 199.266 301.157 200.129 301.157 200.925C295.702 198.602 291.977 193.224 291.977 186.983Z" fill="black"/>
<path opacity="0.3" d="M305.281 202.187C305.88 201.921 307.21 201.191 308.873 199.863C311.068 198.137 313.663 195.348 315.525 191.166C316.257 189.44 316.922 187.448 317.321 185.257C317.454 184.46 317.587 183.664 317.654 182.867C317.787 181.738 317.787 180.61 317.787 179.348C317.787 178.153 317.72 176.958 317.587 175.631C320.714 178.419 322.643 182.469 322.643 186.983C322.643 195.415 315.791 202.319 307.277 202.319C306.611 202.319 305.946 202.253 305.281 202.187Z" fill="white"/>
<path d="M178.295 161.822C180.557 161.158 183.084 161.622 184.947 163.083C186.211 164.012 187.142 165.407 187.541 166.934L188.273 169.39C188.872 169.987 189.271 170.651 189.537 171.514L192.331 181.008C192.597 181.871 192.597 182.668 192.397 183.465L213.95 257.622C214.216 258.485 214.149 259.348 213.883 260.145C213.883 260.145 212.619 263.73 212.619 267.249L212.819 269.041C212.819 269.108 212.819 269.108 212.819 269.174C212.952 271.365 211.555 273.423 209.426 274.087C207.298 274.685 204.969 273.755 203.905 271.763C203.905 271.763 203.905 271.697 203.839 271.697L203.04 270.104C201.178 267.182 198.184 264.792 198.184 264.792C197.519 264.261 196.987 263.531 196.787 262.668L175.235 188.577C174.636 187.979 174.171 187.249 173.905 186.386L171.111 176.892C170.845 176.029 170.845 175.166 171.044 174.369L170.313 171.979C169.182 167.996 171.443 163.813 175.435 162.685L178.295 161.822Z" fill="white"/>
<path d="M183.417 168.328L184.614 172.444L175.435 175.1L174.304 170.983C173.772 169.257 174.836 167.398 176.565 166.867L179.359 166.071C180.424 165.739 181.488 166.004 182.286 166.602C182.818 167 183.217 167.597 183.417 168.328Z" fill="#EE5A82"/>
<path d="M184.594 172.451L175.46 175.099L200.654 261.677L209.789 259.029L184.594 172.451Z" fill="#00DD90"/>
<path d="M181.912 173.229L178.207 174.303L203.401 260.881L207.106 259.807L181.912 173.229Z" fill="#08C281"/>
<path d="M185.413 172.909L188.206 182.402C188.273 182.734 188.14 183.066 187.807 183.199L178.628 185.855C178.295 185.987 177.896 185.788 177.829 185.39L175.035 175.896C174.969 175.564 175.102 175.166 175.501 175.099L184.681 172.444C184.947 172.377 185.28 172.577 185.413 172.909Z" fill="#BADCFF"/>
<path d="M185.911 174.484L175.499 177.502L176.056 179.414L186.468 176.396L185.911 174.484Z" fill="#8DBAFD"/>
<path d="M187.187 178.861L176.775 181.88L177.332 183.793L187.744 180.774L187.187 178.861Z" fill="#8DBAFD"/>
<path d="M209.825 259.017C209.825 259.017 208.295 263.332 208.295 267.714L206.566 268.245C204.238 264.593 200.646 261.739 200.646 261.739C201.377 261.008 202.176 260.344 203.04 259.88C203.373 259.747 203.639 259.548 203.972 259.415C204.238 259.282 204.57 259.216 204.836 259.149C205.435 258.95 206.1 258.884 206.765 258.817C207.83 258.685 208.827 258.751 209.825 259.017Z" fill="#FFD699"/>
<path d="M208.362 267.714L208.561 269.705C208.561 269.971 208.428 270.17 208.162 270.236C207.896 270.303 207.63 270.17 207.564 269.971L206.632 268.178C206.898 267.979 207.164 267.846 207.497 267.78C207.697 267.714 208.029 267.714 208.362 267.714Z" fill="#8C7654"/>
<path opacity="0.3" d="M187.209 181.274L209.825 259.017C209.825 259.017 208.295 263.332 208.295 267.714L208.495 269.705C208.495 269.971 208.362 270.17 208.096 270.236C207.83 270.303 207.564 270.17 207.497 269.971L206.566 268.178C204.238 264.527 200.646 261.672 200.646 261.672L196.92 248.793C197.187 245.871 197.253 242.685 197.12 239.299C197.053 237.772 196.987 236.178 196.854 234.585C196.255 227.747 195.058 220.444 193.661 213.539C190.934 200.062 187.408 188.046 186.078 183.664C185.745 182.469 185.546 181.871 185.546 181.871L187.209 181.274Z" fill="black"/>
<path opacity="0.3" d="M185.413 172.909L188.206 182.402C188.273 182.734 188.14 183.066 187.807 183.199L178.628 185.855C178.295 185.988 177.896 185.788 177.829 185.39L177.696 184.992C177.896 184.925 178.095 184.792 178.295 184.726C179.293 184.261 180.091 183.664 180.756 183C180.823 182.934 180.956 182.801 181.022 182.734C181.222 182.535 181.355 182.336 181.554 182.137C182.02 181.539 182.419 180.875 182.685 180.212C183.018 179.481 183.217 178.817 183.35 178.087C183.417 177.822 183.417 177.556 183.483 177.29C183.55 176.56 183.617 175.83 183.617 175.166C183.617 174.236 183.483 173.44 183.35 172.776L184.681 172.378C184.947 172.378 185.28 172.577 185.413 172.909Z" fill="black"/>
<path opacity="0.3" d="M183.417 168.328L184.614 172.444L175.435 175.099L175.102 173.904C176.499 173.373 177.696 172.776 178.628 172.112C180.956 170.386 181.954 168.261 182.286 166.602C182.818 167 183.217 167.597 183.417 168.328Z" fill="black"/>
<path opacity="0.3" d="M177.031 166.734L206.566 268.245C204.238 264.593 200.646 261.739 200.646 261.739L178.561 185.921C178.228 186.054 177.829 185.855 177.763 185.456L174.969 175.963C174.902 175.631 175.035 175.232 175.435 175.166L174.304 170.983C173.772 169.257 174.836 167.398 176.565 166.867L177.031 166.734Z" fill="white"/>
<path d="M243.418 119.266C243.218 119.398 243.085 119.465 242.886 119.531L239.16 121.921C237.631 122.917 235.768 123.183 234.105 122.718C232.442 123.315 230.579 123.116 229.116 122.253C228.052 122.187 227.054 122.187 225.99 122.253C224.792 122.386 223.661 122.651 222.597 123.05C222.398 123.116 222.264 123.183 222.131 123.249L220.136 124.112C219.404 124.444 218.606 124.577 217.808 124.51C216.145 125.44 214.149 125.573 212.353 124.909H212.287C211.688 124.643 211.089 124.311 210.624 123.913L209.958 123.382L209.293 122.851C208.229 121.921 207.564 120.66 207.564 119.266C207.564 117.606 208.362 116.145 209.759 115.216L211.089 114.353C211.355 113.556 211.821 112.892 212.42 112.295L214.016 110.768C215.014 109.838 215.812 108.776 216.544 107.647C216.943 106.917 217.342 106.12 217.675 105.39C217.741 105.191 217.808 105.058 217.874 104.859C217.675 103.133 218.207 101.407 219.471 100.145C219.803 98.4854 220.735 96.8921 222.331 95.8962L226.056 93.5062C226.189 93.3734 226.389 93.2406 226.522 93.1078L233.373 88.7261C235.502 87.3319 237.697 86.0705 239.892 84.8755C244.149 82.5518 248.606 80.5601 253.13 78.9004L253.263 78.834C253.462 78.7676 253.595 78.7012 253.795 78.7012L266.367 74.0539C269.028 73.058 272.021 74.0539 273.551 76.4439L278.141 83.4813C279.671 85.8713 279.338 88.9916 277.343 90.9833L267.897 100.477C267.764 100.61 267.697 100.743 267.564 100.875C267.564 100.875 267.498 101.008 267.431 101.008C264.039 104.461 260.38 107.647 256.456 110.568C254.46 112.095 252.398 113.556 250.269 114.884L243.418 119.266Z" fill="white"/>
<path d="M215.28 116.411L217.342 119.597L215.879 120.527C215.28 120.925 214.615 120.925 213.95 120.726C213.75 120.66 213.55 120.527 213.351 120.394L212.686 119.863L212.02 119.332C211.887 119.199 211.821 119.066 211.821 118.934C211.821 118.734 211.887 118.602 212.087 118.469L215.28 116.411Z" fill="#D7E023"/>
<path d="M270.026 78.3693L274.615 85.4066C275.081 86.1369 275.015 87.0664 274.349 87.6639L273.551 88.4606L264.504 97.6224L264.438 97.6888C259.449 102.734 253.928 107.183 248.008 111.033L236.965 118.137C235.968 118.801 234.571 118.535 233.905 117.473L223.994 102.137C223.329 101.075 223.595 99.7469 224.659 99.083L235.701 91.9792C241.622 88.1286 248.008 84.9419 254.66 82.4854H254.726L260.181 80.4937L266.833 78.0373L267.897 77.639C268.629 77.3734 269.56 77.639 270.026 78.3693Z" fill="#D7E023"/>
<path d="M222.264 104.593L230.979 118.071C229.183 117.805 227.387 117.739 225.657 117.938C224.127 118.137 222.664 118.469 221.2 119C221.001 119.066 220.801 119.133 220.602 119.266L218.606 120.129C218.14 120.328 217.608 120.129 217.342 119.664L215.346 116.544C215.08 116.079 215.08 115.548 215.413 115.216L217.009 113.689C218.273 112.494 219.404 111.166 220.269 109.639C220.801 108.71 221.267 107.714 221.666 106.718C221.865 105.921 222.065 105.257 222.264 104.593Z" fill="#202130"/>
<path d="M223.794 101.938L234.038 117.739L232.908 118.469C232.242 118.867 231.378 118.668 230.979 118.071L222.264 104.593C221.865 103.929 222.065 103.066 222.664 102.668L223.794 101.938Z" fill="#323348"/>
<path d="M254.66 82.4855C254.46 84.6763 253.263 86.6681 251.467 87.8631L237.564 96.8257C235.701 98.0207 233.373 98.2863 231.311 97.556C231.112 97.4896 230.846 97.3568 230.646 97.2905C230.047 97.0249 229.449 96.6929 228.85 96.4274C228.85 96.4274 228.85 96.4274 228.783 96.4274L235.635 92.0456C237.697 90.7178 239.759 89.5228 241.888 88.3278C245.946 86.1369 250.203 84.2116 254.593 82.5519L254.66 82.4855Z" fill="#B0B818"/>
<path d="M264.438 97.7552C261.179 101.075 257.653 104.129 253.928 106.917C251.999 108.378 250.003 109.772 247.941 111.1L241.09 115.481C241.09 114.817 241.09 114.154 241.023 113.49C241.023 113.224 241.023 112.959 241.023 112.759C241.223 110.568 242.353 108.577 244.216 107.382L258.119 98.4191C259.981 97.2241 262.309 96.9585 264.371 97.6888L264.438 97.7552Z" fill="#B0B818"/>
<path d="M264.505 91.9792L237.897 109.108C235.901 110.369 233.24 109.838 231.91 107.846C230.646 105.855 231.178 103.199 233.174 101.871L259.782 84.7427C261.777 83.4813 264.438 84.0124 265.768 86.0041C267.099 87.9958 266.5 90.6514 264.505 91.9792Z" fill="#C1C91E"/>
<path opacity="0.3" d="M270.026 78.3693L274.615 85.4066C275.081 86.1369 275.015 87.0664 274.349 87.6639L273.551 88.4606L264.505 97.6224L264.438 97.6888C259.449 102.734 253.928 107.183 248.008 111.033L236.965 118.137C235.968 118.801 234.571 118.535 233.905 117.473L233.44 116.676C237.497 112.958 241.156 108.909 244.416 104.859C249.604 98.4191 253.728 91.9792 256.855 86.6016C257.121 86.1369 257.387 85.6722 257.653 85.2074C258.584 83.4813 259.449 81.8879 260.181 80.4937L266.833 78.0373L267.897 77.639C268.629 77.3734 269.56 77.639 270.026 78.3693Z" fill="black"/>
<path opacity="0.3" d="M223.794 101.938L234.038 117.739L232.908 118.469C232.242 118.867 231.378 118.668 230.979 118.071C229.183 117.805 227.387 117.739 225.657 117.938C224.127 118.137 222.664 118.469 221.2 119C221.732 116.278 221.865 113.29 221.799 110.568C221.799 109.174 221.732 107.846 221.666 106.651C221.932 105.988 222.131 105.324 222.331 104.66C221.932 103.996 222.131 103.133 222.73 102.734L223.794 101.938Z" fill="black"/>
<path opacity="0.3" d="M215.28 116.411L217.342 119.597L215.879 120.527C215.28 120.925 214.615 120.925 213.95 120.726C214.216 120.129 214.349 119.398 214.415 118.734C214.415 118.535 214.482 118.336 214.482 118.137C214.548 117.672 214.548 117.274 214.548 116.875L215.28 116.411Z" fill="black"/>
<path opacity="0.3" d="M270.026 78.3693L271.556 80.7593C267.032 81.4896 262.243 83.1494 257.586 85.2739C241.289 92.6431 226.256 105.722 226.256 105.722C225.657 106.253 224.992 106.917 224.327 107.647C223.528 108.51 222.664 109.506 221.865 110.502C218.938 113.954 216.145 117.672 216.145 117.672L212.752 119.863L212.087 119.332C211.954 119.199 211.887 119.066 211.887 118.934C211.887 118.734 211.954 118.602 212.153 118.469L215.346 116.411C215.08 115.946 215.08 115.415 215.413 115.083L217.009 113.556C218.273 112.361 219.404 111.033 220.269 109.506C220.801 108.577 221.267 107.581 221.666 106.585C221.932 105.921 222.131 105.257 222.331 104.593C221.932 103.929 222.131 103.066 222.73 102.668L223.861 101.938L223.994 102.203C223.329 101.141 223.595 99.8133 224.659 99.1494L228.916 96.4274C228.916 96.4274 228.916 96.4274 228.85 96.4274L235.701 92.0456C237.764 90.7178 239.826 89.5228 241.954 88.3278C246.012 86.1369 250.269 84.2116 254.66 82.5519L254.793 82.4855C254.793 82.4855 254.793 82.4855 254.793 82.5519L260.247 80.5602L266.899 78.1037L267.964 77.7054C268.629 77.3734 269.56 77.639 270.026 78.3693Z" fill="white"/>
<path d="M224.327 321.954C221.666 320.295 220.801 316.842 222.464 314.187L281.467 217.523C283.13 214.867 286.589 214.004 289.25 215.664L301.09 222.834C303.219 224.162 304.749 226.22 305.348 228.676C305.88 230.867 305.614 233.191 304.616 235.183C304.549 235.846 304.35 236.51 303.951 237.108C303.618 237.705 303.152 238.17 302.62 238.502L302.155 239.232C302.088 239.896 301.889 240.494 301.489 241.091C301.157 241.689 300.691 242.154 300.159 242.485L299.76 243.149C299.693 243.813 299.494 244.411 299.095 245.008C298.762 245.606 298.297 246.071 297.764 246.403L297.299 247.133C297.232 247.797 297.033 248.394 296.634 248.992C296.301 249.589 295.835 250.054 295.303 250.386L294.904 251.05C294.837 251.714 294.638 252.311 294.239 252.909C293.906 253.506 293.441 253.971 292.908 254.303L292.443 255.033C292.376 255.697 292.177 256.295 291.778 256.892C291.445 257.49 290.979 257.954 290.447 258.286L290.048 258.95C289.982 259.614 289.782 260.212 289.383 260.809C289.05 261.407 288.585 261.871 288.052 262.203L287.587 262.934C287.52 263.598 287.321 264.195 286.922 264.793C286.589 265.39 286.123 265.855 285.591 266.187L285.192 266.851C285.126 267.515 284.926 268.112 284.527 268.71C284.194 269.307 283.729 269.772 283.197 270.104L282.731 270.834C282.664 271.498 282.465 272.095 282.066 272.693C281.733 273.29 281.267 273.755 280.735 274.087L280.336 274.751C280.27 275.415 280.07 276.012 279.671 276.61C279.338 277.207 278.873 277.672 278.341 278.004L277.875 278.734C277.808 279.398 277.609 279.996 277.21 280.593C276.877 281.191 276.412 281.656 275.879 281.988L275.48 282.651C275.414 283.315 275.214 283.913 274.815 284.51C274.482 285.108 274.017 285.573 273.485 285.905L273.019 286.635C272.953 287.299 272.753 287.896 272.354 288.494C272.021 289.091 271.556 289.556 271.023 289.888L270.624 290.552C270.558 291.216 270.358 291.813 269.959 292.411C269.627 293.008 269.161 293.473 268.629 293.805L268.163 294.535C268.097 295.199 267.897 295.797 267.498 296.394C267.165 296.992 266.7 297.456 266.168 297.788L265.768 298.452C265.702 299.116 265.502 299.714 265.103 300.311C264.771 300.909 264.305 301.373 263.773 301.705L263.307 302.436C263.241 303.1 263.041 303.697 262.642 304.295C262.309 304.892 261.844 305.357 261.312 305.689L260.912 306.353C260.846 307.017 260.646 307.614 260.247 308.212C259.915 308.809 259.449 309.274 258.917 309.606L258.451 310.336C258.385 311 258.185 311.598 257.786 312.195C257.453 312.793 256.988 313.257 256.456 313.589L256.057 314.253C255.99 314.917 255.79 315.515 255.391 316.112C255.059 316.71 254.593 317.174 254.061 317.506L253.595 318.237C253.529 318.9 253.329 319.498 252.93 320.095C252.597 320.693 252.132 321.158 251.6 321.49L251.201 322.154C251.134 322.817 250.934 323.415 250.535 324.012C250.136 324.61 249.671 325.141 249.138 325.473C246.278 329.39 240.823 330.585 236.566 327.996L224.327 321.954Z" fill="white"/>
<path d="M300.625 233.589L245.546 323.813C244.016 326.27 240.823 327.066 238.362 325.539L226.522 318.369C225.857 317.971 225.59 317.042 226.056 316.378L285.059 219.714C285.458 219.05 286.39 218.784 287.055 219.249L298.895 226.419C300.159 227.149 300.957 228.344 301.223 229.672C301.556 230.934 301.356 232.328 300.625 233.589Z" fill="#FAF032"/>
<path d="M300.625 233.589L245.546 323.813C244.016 326.27 240.823 327.066 238.362 325.539L298.895 226.419C300.159 227.149 300.957 228.344 301.223 229.672C301.556 230.934 301.356 232.328 300.625 233.589Z" fill="#FADA28"/>
<path d="M299.76 234.983L294.372 231.664C294.172 231.531 294.106 231.266 294.239 231.066C294.372 230.867 294.638 230.801 294.838 230.934L300.226 234.253C300.425 234.386 300.492 234.652 300.359 234.851C300.226 235.05 299.96 235.116 299.76 234.983Z" fill="#CFA021"/>
<path d="M297.299 239.033L292.842 236.311C292.642 236.179 292.576 235.913 292.709 235.714C292.842 235.515 293.108 235.448 293.308 235.581L297.764 238.303C297.964 238.436 298.03 238.701 297.897 238.901C297.764 239.1 297.498 239.166 297.299 239.033Z" fill="#CFA021"/>
<path d="M294.904 243.017L289.516 239.697C289.316 239.564 289.25 239.299 289.383 239.1C289.516 238.901 289.782 238.834 289.982 238.967L295.37 242.286C295.569 242.419 295.636 242.685 295.503 242.884C295.37 243.083 295.104 243.149 294.904 243.017Z" fill="#CFA021"/>
<path d="M292.376 247.067L287.919 244.345C287.72 244.212 287.653 243.946 287.786 243.747C287.919 243.548 288.185 243.481 288.385 243.614L292.842 246.336C293.041 246.469 293.108 246.735 292.975 246.934C292.842 247.133 292.576 247.199 292.376 247.067Z" fill="#CFA021"/>
<path d="M289.982 251.05L284.593 247.73C284.394 247.598 284.327 247.332 284.46 247.133C284.593 246.934 284.86 246.867 285.059 247L290.447 250.32C290.647 250.452 290.713 250.718 290.58 250.917C290.447 251.116 290.181 251.116 289.982 251.05Z" fill="#CFA021"/>
<path d="M287.52 255.1L283.064 252.378C282.864 252.245 282.797 251.979 282.93 251.78C283.064 251.581 283.33 251.515 283.529 251.647L287.986 254.369C288.186 254.502 288.252 254.768 288.119 254.967C287.986 255.166 287.72 255.166 287.52 255.1Z" fill="#CFA021"/>
<path d="M285.126 259.017L279.738 255.697C279.538 255.564 279.471 255.299 279.604 255.1C279.738 254.901 280.004 254.834 280.203 254.967L285.591 258.286C285.791 258.419 285.857 258.685 285.724 258.884C285.591 259.083 285.325 259.15 285.126 259.017Z" fill="#CFA021"/>
<path d="M282.598 263.067L278.141 260.345C277.941 260.212 277.875 259.946 278.008 259.747C278.141 259.548 278.407 259.481 278.607 259.614L283.064 262.336C283.263 262.469 283.33 262.735 283.197 262.934C283.064 263.133 282.797 263.199 282.598 263.067Z" fill="#CFA021"/>
<path d="M280.203 267.05L274.815 263.73C274.616 263.598 274.549 263.332 274.682 263.133C274.815 262.934 275.081 262.867 275.281 263L280.669 266.32C280.868 266.452 280.935 266.718 280.802 266.917C280.669 267.116 280.403 267.183 280.203 267.05Z" fill="#CFA021"/>
<path d="M277.742 271.1L273.285 268.378C273.086 268.245 273.019 267.979 273.152 267.78C273.285 267.581 273.551 267.515 273.751 267.647L278.208 270.369C278.407 270.502 278.474 270.768 278.341 270.967C278.208 271.166 277.941 271.232 277.742 271.1Z" fill="#CFA021"/>
<path d="M275.281 275.083L269.893 271.764C269.693 271.631 269.627 271.365 269.76 271.166C269.893 270.967 270.159 270.901 270.358 271.033L275.746 274.353C275.946 274.486 276.012 274.751 275.879 274.95C275.746 275.083 275.48 275.149 275.281 275.083Z" fill="#CFA021"/>
<path d="M272.819 279.133L268.363 276.411C268.163 276.278 268.097 276.013 268.23 275.813C268.363 275.614 268.629 275.548 268.828 275.681L273.285 278.403C273.485 278.535 273.551 278.801 273.418 279C273.285 279.199 273.019 279.199 272.819 279.133Z" fill="#CFA021"/>
<path d="M270.425 283.05L265.037 279.73C264.837 279.598 264.771 279.332 264.904 279.133C265.037 278.934 265.303 278.867 265.502 279L270.89 282.32C271.09 282.452 271.156 282.718 271.023 282.917C270.89 283.116 270.624 283.183 270.425 283.05Z" fill="#CFA021"/>
<path d="M267.964 287.1L263.507 284.378C263.307 284.245 263.241 283.979 263.374 283.78C263.507 283.581 263.773 283.515 263.972 283.647L268.429 286.369C268.629 286.502 268.695 286.768 268.562 286.967C268.429 287.166 268.163 287.232 267.964 287.1Z" fill="#CFA021"/>
<path d="M265.502 291.083L260.114 287.764C259.915 287.631 259.848 287.365 259.981 287.166C260.114 286.967 260.38 286.901 260.58 287.033L265.968 290.353C266.167 290.486 266.234 290.751 266.101 290.95C265.968 291.15 265.702 291.216 265.502 291.083Z" fill="#CFA021"/>
<path d="M263.041 295.133L258.584 292.411C258.385 292.278 258.318 292.013 258.451 291.813C258.584 291.614 258.85 291.548 259.05 291.681L263.507 294.403C263.706 294.535 263.773 294.801 263.64 295C263.507 295.199 263.241 295.266 263.041 295.133Z" fill="#CFA021"/>
<path d="M260.646 299.05L255.258 295.73C255.059 295.598 254.992 295.332 255.125 295.133C255.258 294.934 255.524 294.867 255.724 295L261.112 298.32C261.312 298.452 261.378 298.718 261.245 298.917C261.112 299.116 260.846 299.183 260.646 299.05Z" fill="#CFA021"/>
<path d="M258.185 303.1L253.728 300.378C253.529 300.245 253.462 299.979 253.595 299.78C253.728 299.581 253.994 299.515 254.194 299.647L258.651 302.369C258.85 302.502 258.917 302.768 258.784 302.967C258.651 303.166 258.385 303.232 258.185 303.1Z" fill="#CFA021"/>
<path d="M255.724 307.083L250.336 303.764C250.136 303.631 250.07 303.365 250.203 303.166C250.336 302.967 250.602 302.901 250.801 303.033L256.19 306.353C256.389 306.486 256.456 306.751 256.323 306.95C256.19 307.15 255.923 307.216 255.724 307.083Z" fill="#CFA021"/>
<path d="M253.263 311.133L248.806 308.411C248.606 308.278 248.54 308.013 248.673 307.813C248.806 307.614 249.072 307.548 249.271 307.681L253.728 310.403C253.928 310.535 253.994 310.801 253.861 311C253.728 311.199 253.462 311.266 253.263 311.133Z" fill="#CFA021"/>
<path d="M250.868 315.116L245.48 311.797C245.28 311.664 245.214 311.398 245.347 311.199C245.48 311 245.746 310.934 245.946 311.067L251.334 314.386C251.533 314.519 251.6 314.784 251.467 314.984C251.334 315.183 251.068 315.183 250.868 315.116Z" fill="#CFA021"/>
<path d="M248.407 319.166L243.95 316.444C243.75 316.311 243.684 316.046 243.817 315.847C243.95 315.647 244.216 315.581 244.416 315.714L248.872 318.436C249.072 318.569 249.138 318.834 249.005 319.033C248.872 319.233 248.606 319.233 248.407 319.166Z" fill="#CFA021"/>
<path d="M245.946 323.083L240.557 319.764C240.358 319.631 240.291 319.365 240.424 319.166C240.557 318.967 240.823 318.901 241.023 319.033L246.411 322.353C246.611 322.486 246.677 322.751 246.544 322.95C246.411 323.149 246.145 323.216 245.946 323.083Z" fill="#CFA021"/>
<path opacity="0.3" d="M299.76 234.983L245.546 323.813C244.016 326.27 240.823 327.066 238.362 325.539L226.522 318.369C225.857 317.971 225.59 317.041 226.056 316.378L233.107 304.892C236.034 303.299 239.294 300.975 242.753 298.12C248.274 293.606 254.26 287.83 260.38 281.39C262.243 279.398 264.172 277.34 266.101 275.282C269.36 271.697 272.62 268.046 275.813 264.394C275.946 264.261 276.012 264.129 276.145 263.996C277.143 262.801 278.208 261.606 279.205 260.411C280.27 259.149 281.267 257.954 282.332 256.759C283.33 255.564 284.327 254.369 285.325 253.174C286.256 252.046 287.188 250.917 288.119 249.788L288.385 249.456C288.452 249.324 288.585 249.257 288.651 249.124C289.449 248.129 290.248 247.133 291.046 246.137C291.112 246.004 291.245 245.938 291.312 245.805C291.378 245.672 291.511 245.606 291.578 245.473C292.443 244.411 293.241 243.415 294.039 242.419C294.106 242.286 294.239 242.22 294.305 242.087C294.372 241.954 294.505 241.888 294.571 241.755C295.37 240.759 296.168 239.697 296.966 238.768L297.498 238.104C298.163 237.041 298.962 235.979 299.76 234.983Z" fill="black"/>
<path d="M295.223 224.206L234.678 323.357L236.098 324.221L296.643 225.07L295.223 224.206Z" fill="#FADA28"/>
<path opacity="0.6" d="M289.782 220.909L229.249 320.029L226.522 318.369C225.857 317.971 225.59 317.041 226.056 316.378L285.059 219.714C285.458 219.05 286.39 218.784 287.055 219.249L289.782 220.909Z" fill="white"/>
<path d="M314.261 53.7386C317.255 50.751 322.111 50.751 325.104 53.7386L337.011 65.6224C339.539 68.1452 340.004 72.0622 338.075 75.1162C337.809 75.5809 337.41 76.0456 337.011 76.444L321.845 91.5809C320.913 92.5104 319.782 93.0415 318.585 93.1743C317.388 94.2365 315.924 94.9668 314.328 95.2324L310.669 95.8963C307.875 96.4274 305.015 95.4979 302.953 93.5062L297.166 87.7303C295.968 86.5353 295.104 84.9419 294.771 83.2822C294.571 82.2199 294.571 81.0913 294.771 80.029L295.436 76.444C295.702 74.8506 296.434 73.39 297.498 72.195C297.631 71 298.163 69.805 299.095 68.9419L314.261 53.7386Z" fill="white"/>
<path d="M306.013 90.4523L300.226 84.6764C299.56 84.0125 299.161 83.2158 298.962 82.3527C298.829 81.8216 298.829 81.2241 298.962 80.693L299.627 77.0415C299.76 76.1121 300.226 75.3154 300.891 74.6515L316.989 58.5851L332.089 73.6556L315.991 89.7884C315.326 90.4523 314.527 90.8506 313.596 91.0498L309.937 91.7137C308.541 91.9793 307.011 91.5145 306.013 90.4523Z" fill="#E6D7C1"/>
<path d="M317.055 88.5934L302.155 73.722L302.088 73.6557C301.689 73.1245 301.689 72.3942 302.155 71.8631L317.321 56.7262C318.652 55.3984 320.847 55.3984 322.244 56.7262L334.151 68.61C335.348 69.805 335.481 71.5312 334.616 72.9254C334.483 73.1245 334.35 73.3237 334.151 73.5229L318.984 88.6598C318.519 89.1245 317.72 89.1909 317.188 88.7262C317.122 88.5934 317.055 88.5934 317.055 88.5934Z" fill="#4CDAFF"/>
<path d="M314.696 59.2897L305.806 68.1622L322.598 84.9214L331.488 76.0489L314.696 59.2897Z" fill="#40BDDE"/>
<path opacity="0.3" d="M299.03 82.3527C298.897 81.8216 298.897 81.2241 299.03 80.693L299.695 77.0415C299.828 76.1121 300.294 75.3154 300.959 74.6515L302.09 73.5228C301.691 72.9917 301.691 72.2614 302.156 71.7303L317.323 56.5934C318.653 55.2656 320.848 55.2656 322.245 56.5934L334.152 68.4772C335.35 69.6722 335.483 71.3984 334.618 72.7926C333.62 72.7926 332.556 72.7262 331.292 72.7926C330.427 72.7926 329.496 72.8589 328.498 72.9253C324.174 73.1909 318.853 73.8548 313.332 75.5145C311.07 76.1784 308.808 77.0415 306.613 78.0374C303.952 79.2324 301.425 80.6266 299.03 82.3527Z" fill="black"/>
<path opacity="0.3" d="M306.013 90.4523L302.554 87C309.339 90.0539 314.86 86.4025 314.86 86.4025L333.419 67.8796L334.084 68.5435C335.282 69.7386 335.415 71.4647 334.55 72.8589C334.417 73.0581 334.284 73.2572 334.084 73.4564L318.918 88.5933C318.452 89.0581 317.654 89.1245 317.122 88.6597L315.991 89.7884C315.326 90.4523 314.527 90.8506 313.596 91.0498L309.937 91.7137C308.541 91.9792 307.011 91.5145 306.013 90.4523Z" fill="white"/>
</g>
</g>
<defs>
<filter id="filter0_d" x="0" y="0" width="348" height="416" filterUnits="userSpaceOnUse" color-interpolation-filters="sRGB">
<feFlood flood-opacity="0" result="BackgroundImageFix"/>
<feColorMatrix in="SourceAlpha" type="matrix" values="0 0 0 0 0 0 0 0 0 0 0 0 0 0 0 0 0 0 127 0"/>
<feOffset dy="4"/>
<feGaussianBlur stdDeviation="5"/>
<feColorMatrix type="matrix" values="0 0 0 0 0 0 0 0 0 0 0 0 0 0 0 0 0 0 0.25 0"/>
<feBlend mode="normal" in2="BackgroundImageFix" result="effect1_dropShadow"/>
<feBlend mode="normal" in="SourceGraphic" in2="effect1_dropShadow" result="shape"/>
</filter>
<clipPath id="clip0">
<rect x="10" y="6" width="328" height="396" rx="20" fill="white"/>
</clipPath>
</defs>
</svg>
