<svg width="112" height="108" viewBox="0 0 112 108" fill="none" xmlns="http://www.w3.org/2000/svg">
<path d="M35.323 6.82696C35.5519 6.48407 35.9385 6.42977 36.286 6.30704C44.5182 3.39952 52.9547 1.8394 61.7193 2.56795C71.5554 3.38539 80.2648 7.03188 87.9404 13.1623C98.3779 21.4988 105.033 32.1538 107.404 45.3332C111.801 69.7745 97.8697 94.1013 74.5262 102.858C44.4716 114.131 11.5913 95.9273 5.16846 64.4389C4.59206 61.6124 4.22295 58.7491 4.24122 55.8517C4.5324 55.2741 5.0883 55.289 5.60393 55.2867C10.1637 55.2648 14.7235 55.2667 19.2829 55.2838C19.6568 55.2853 20.0326 55.3124 20.3536 55.5456C20.4987 56.3117 19.8455 56.1369 19.5133 56.1656C18.4108 56.2611 17.3009 56.2139 16.1954 56.1972C14.357 56.1194 12.5144 56.2098 10.6752 56.147C9.73643 56.115 9.39118 56.4783 9.44636 57.3958C9.64247 60.6644 10.1943 63.8736 11.088 67.018C13.2858 74.7494 17.214 81.5273 22.8893 87.1958C30.5484 94.8455 39.8085 99.4968 50.6151 100.688C64.3589 102.203 76.5577 98.4447 87.0642 89.4057C93.2365 84.0953 97.6203 77.5461 100.352 69.9214C101.861 65.7096 102.651 61.3402 102.926 56.8461C103.361 49.7469 102.11 42.9672 99.4639 36.4262C97.4503 31.4486 94.5518 27.0026 90.9305 23.0206C83.023 14.326 73.1914 9.31237 61.5549 7.8839C53.8088 6.93295 46.2724 7.97948 39.0036 10.8424C38.6841 10.9446 38.4067 11.189 38.0394 11.1395C37.9306 11.1049 37.8295 11.0544 37.7352 10.9908C35.7077 10.476 35.1693 8.99105 35.2078 7.13006C35.1977 7.01068 35.2361 6.90989 35.323 6.82696Z" fill="#C17813"/>
<path d="M35.3229 6.8269C35.3188 6.89719 35.3196 6.96711 35.3252 7.0374C35.38 7.41228 35.2707 7.77079 35.2219 8.136C35.0206 9.64183 35.6343 10.4329 37.1655 10.6586C37.4578 10.7018 37.7568 10.7207 38.0193 10.8791C38.0137 10.9435 38.01 11.0082 38.0085 11.0729C37.9831 11.1224 37.9578 11.1722 37.9332 11.2224C37.7016 11.482 37.3855 11.6114 37.085 11.7617C30.5823 15.0206 24.1751 18.4648 17.658 21.6963C16.0831 22.4773 14.5183 23.2936 13.0094 24.204C12.2664 24.0906 12.0307 23.2873 11.398 23.0221C12.1542 22.2281 13.1127 21.6985 14.0064 21.0946C20.9061 16.429 27.8218 11.787 34.7346 7.14079C34.918 7.01732 35.1261 6.93066 35.3229 6.8269Z" fill="#8E501D"/>
<path d="M4.22482 50.23C4.3184 44.0241 5.7624 38.1299 8.36181 32.5076C9.0497 31.02 9.78679 29.5554 10.6756 28.1731C11.1775 28.2174 11.6752 28.2702 11.9295 28.8035C11.5887 29.8232 10.8915 30.7202 10.7677 31.9772C11.7938 31.1795 11.522 29.7499 12.5745 29.1553C13.0129 29.1307 13.3593 29.2709 13.5495 29.6927C13.4126 30.9307 12.6121 31.9307 12.3139 33.1111C12.2732 33.2123 12.2162 33.3038 12.1435 33.3852C11.972 33.4812 11.7908 33.4641 11.607 33.4269C10.2491 33.1521 10.3103 33.1837 9.71297 34.3458C9.35803 35.0368 9.53811 35.4013 10.0642 35.8405C10.3897 36.112 10.9005 36.2005 11.0198 36.7014C10.4471 37.922 11.5622 37.9451 12.1793 38.3218C12.271 38.3869 12.3448 38.4672 12.4034 38.5628C12.4582 38.7354 12.4395 38.8956 12.3288 39.0418C12.2326 39.1043 12.1267 39.1381 12.0123 39.1459C10.3278 38.7792 10.3132 38.7766 9.97582 40.519C9.84868 41.1746 9.75659 41.8385 9.61641 42.4919C9.52506 42.9177 9.48032 43.3934 8.97737 43.5905C8.86626 43.5931 8.76932 43.5577 8.68879 43.4804C8.21753 42.7407 8.69326 42.0341 8.78386 41.32C8.90019 40.4033 9.27377 39.5104 8.97662 38.5632C8.91958 38.3813 8.88528 38.1812 8.65971 38.1637C8.43787 38.1466 8.31707 38.3285 8.26525 38.5033C7.74775 40.2426 7.45321 42.0173 7.2914 43.8036C7.94125 43.9635 8.15526 43.0534 8.72384 43.5116C9.17012 44.4473 8.58104 45.3086 8.53369 46.2086C8.34056 46.3693 8.12916 46.3897 7.90323 46.2893C7.52852 46.058 7.61204 45.5701 7.26978 45.1762C7.21572 45.7319 7.58333 45.9383 7.80927 46.2161C7.83723 46.5047 7.62472 46.5638 7.41705 46.6292C7.09305 46.685 6.79329 46.6095 6.50844 46.4623C6.24373 46.3031 6.01518 46.3109 5.85002 46.6099C5.49918 47.3742 6.11436 48.2347 5.53311 49.0328C5.32469 49.3188 6.24485 49.4824 6.26908 49.9994C6.0465 50.3341 5.68149 50.452 5.34109 50.6093C5.12783 50.6799 4.91084 50.6997 4.689 50.6576C4.44741 50.61 4.31468 50.443 4.22482 50.23Z" fill="#858688"/>
<path d="M11.398 23.022C12.2843 22.8357 12.4632 23.7279 13.0035 24.0693C14.0802 24.0142 14.1235 24.7536 14.1302 25.5223C14.0724 26.073 14.5646 26.6119 14.1734 27.1731C13.7201 27.6424 13.0986 27.6696 12.5166 27.8027C11.9215 27.8064 11.3205 28.1839 10.7307 27.7796C9.58195 27.9184 8.43213 28.0474 7.28528 28.1988C6.15558 28.3479 5.02887 28.519 3.81155 28.4695C6.34051 26.6536 8.86909 24.838 11.398 23.022Z" fill="#060608"/>
<path d="M20.3894 55.6309C15.4796 55.6328 10.5693 55.6331 5.65945 55.6387C5.17812 55.6391 4.67889 55.5513 4.24081 55.8519C4.22962 55.3285 4.21844 54.8052 4.20688 54.2815C5.39361 53.6696 6.66909 54.1081 7.89609 53.9698C8.10227 53.9672 8.30844 53.9683 8.51462 53.9701C9.19728 53.9947 9.88032 53.9415 10.5637 53.9634C11.746 53.9672 12.9282 53.9765 14.1105 53.9672C15.3036 53.9735 16.4967 53.9705 17.6897 53.9675C18.664 54.0654 19.6695 53.7306 20.6195 54.1766C21.0162 54.6043 21.0013 55.0734 20.7585 55.5651C20.6549 55.6923 20.5315 55.7142 20.3894 55.6309Z" fill="#AD7412"/>
<path d="M10.7311 27.7802C11.3373 27.7073 11.9432 27.6344 12.5494 27.5612C12.8029 28.5233 13.7466 28.6843 14.4192 29.1596C15.3524 29.613 16.2107 30.2021 17.1487 30.6457C17.7453 30.9585 18.347 31.2609 18.9551 31.5513C19.4163 31.7875 19.876 32.027 20.3473 32.2438C21.1474 32.6455 21.9431 33.0564 22.757 33.4317C23.3584 33.8795 24.2625 33.8973 24.6007 34.72C24.5969 34.8386 24.5533 34.9401 24.4705 35.0257C23.9542 35.3165 23.4739 35.0822 22.9881 34.9275C22.546 34.7304 22.1161 34.5084 21.7104 34.2421C21.2932 33.942 20.8212 33.7437 20.3604 33.5239C19.775 33.2063 19.1736 32.9203 18.5711 32.6358C17.7389 32.2342 16.9604 31.7354 16.1436 31.307C15.8367 31.1367 15.5213 30.9827 15.2051 30.8302C14.8125 30.6179 14.4128 30.4185 14.0102 30.2247C13.7757 30.1195 13.5818 29.9644 13.433 29.7547C13.197 29.4854 12.8958 29.3474 12.5431 29.3113C12.2873 29.1853 11.901 29.2474 11.8462 28.8308C11.4995 28.5348 10.9529 28.5925 10.6759 28.1729C10.6941 28.0424 10.7124 27.9111 10.7311 27.7802Z" fill="#A33A55"/>
<path d="M8.03169 54.2032C6.75698 54.2297 5.48189 54.2561 4.20718 54.2821C4.21315 52.9313 4.21911 51.581 4.22471 50.2302C4.36452 50.308 4.50433 50.3857 4.64414 50.4638C4.86188 51.2905 4.60388 52.1596 4.88014 52.9853C4.99759 53.336 5.01138 53.738 5.51955 53.748C5.73355 53.7614 5.94756 53.7648 6.16119 53.77C6.32375 53.7674 6.48593 53.7707 6.64811 53.7752C6.91878 53.7804 7.18946 53.7849 7.45976 53.8027C7.62493 53.8146 7.78301 53.8529 7.9299 53.9303C8.02833 53.9972 8.06188 54.0887 8.03169 54.2032Z" fill="#A9A7A6"/>
<path d="M38.7029 10.6569C43.0628 8.86618 47.5965 7.88696 52.2965 7.46448C59.764 6.7932 66.9318 7.95688 73.852 10.697C79.0546 12.7574 83.6807 15.756 87.8583 19.497C92.1586 23.3476 95.541 27.8766 98.1967 32.9457C100.484 37.3114 101.946 41.9769 102.734 46.8473C103.164 49.5057 103.447 52.1912 103.366 54.8696C103.04 65.6499 99.7216 75.3725 92.87 83.8254C87.0772 90.9723 79.7887 95.9602 71.1094 98.9347C65.2641 100.938 59.2044 101.691 53.0619 101.252C43.0736 100.539 34.1375 97.0469 26.3426 90.7023C21.5431 86.7954 17.7021 82.1259 14.7481 76.7084C11.796 71.2939 9.95197 65.5443 9.32859 59.3986C9.23799 58.5042 9.20257 57.6138 9.13471 56.7217C9.08028 56.0095 9.3916 55.8217 10.0552 55.8336C12.0082 55.8685 13.9622 55.8551 15.9155 55.8607C16.6802 57.0355 16.4255 58.4075 16.6093 59.6835C17.8755 68.4708 21.5886 76.0159 27.8645 82.3259C34.7064 89.2046 43.0002 93.0854 52.6111 93.9534C59.5567 94.5808 66.3367 93.5674 72.6996 90.5238C85.2996 84.4967 93.087 74.6313 95.5026 60.9253C97.608 48.9787 94.5448 38.1601 86.7715 28.8105C80.2693 20.9898 71.8618 16.3957 61.7863 14.8806C60.5671 14.6972 59.336 14.5072 58.0892 14.5615C56.778 14.5626 55.4682 14.5585 54.1588 14.5685C50.3849 14.6894 46.7487 15.5277 43.1721 16.6742C42.8522 16.7769 42.5464 16.9264 42.2057 16.9595C42.0163 16.9747 41.8317 16.9513 41.6516 16.8922C40.6521 16.3581 39.7722 15.6716 38.9885 14.8508C37.6563 13.4562 37.5627 12.2111 38.7029 10.6569Z" fill="#E8B735"/>
<path d="M58.296 14.2707C63.371 14.4801 68.2052 15.6895 72.8183 17.7859C77.8333 20.0649 82.2294 23.2272 85.91 27.3073C91.0894 33.0491 94.4457 39.7068 95.7734 47.3635C96.2935 50.3629 96.5638 53.3742 96.3777 56.3974C95.9676 63.0696 94.0881 69.3135 90.5921 75.0471C86.6154 81.5691 81.2067 86.5857 74.42 90.0637C70.1976 92.2274 65.7024 93.6083 60.9469 94.117C53.9957 94.8605 47.2631 94.0735 40.7978 91.381C34.7776 88.874 29.6634 85.1282 25.4355 80.1492C20.9749 74.8961 18.1126 68.8973 16.7171 62.1782C16.2842 60.0937 16.1262 57.9739 15.9148 55.8611C17.3979 55.6238 18.9161 56.0601 20.3888 55.6309C20.4596 55.6249 20.5312 55.6201 20.6024 55.6156C21.2456 56.5803 20.9861 57.7106 21.1345 58.756C22.2108 66.3316 25.2517 72.9399 30.5683 78.5024C34.2042 82.3066 38.4068 85.2416 43.3338 87.1182C48.5356 89.0994 53.891 89.8714 59.4641 89.3519C66.6453 88.6825 73.0345 86.1163 78.5462 81.5308C85.5745 75.6834 89.9646 68.2446 91.1215 59.1327C92.4503 48.6693 89.7972 39.255 82.8356 31.2439C76.8565 24.3637 69.2193 20.4353 60.1527 19.2969C56.4296 18.8294 52.74 19.0905 49.0698 19.7964C47.143 20.1668 45.3717 21.0467 43.4661 21.4882C42.9561 21.6064 42.4602 21.8266 41.9338 21.5741C41.838 21.5079 41.7861 21.4149 41.7779 21.3022C42.0676 20.9504 41.6914 20.8027 41.5475 20.5848C40.7802 19.4222 41.0058 17.7085 42.0576 16.7275C45.5372 15.4652 49.1261 14.6764 52.8038 14.2844C53.2102 14.2413 53.6251 14.274 54.036 14.2714C55.4565 14.4265 56.8763 14.4272 58.296 14.2707Z" fill="#F3E584"/>
<path d="M38.7031 10.6573C37.4984 13.6842 38.6192 14.1034 40.405 15.7673C40.7797 16.1161 41.3334 16.2489 41.6268 16.7123C41.7174 16.819 41.7111 16.9202 41.6082 17.0161C41.4952 17.063 41.3781 17.0797 41.2566 17.0693C39.7544 16.8454 38.3366 16.4415 37.4138 15.1049C36.412 13.6534 36.6361 12.2167 38.0103 11.0943L38.0085 11.0739C38.24 10.9348 38.4715 10.7961 38.7031 10.6573Z" fill="#C6A14A"/>
<path d="M38.0195 10.8799C37.7593 10.8781 37.4991 10.8781 37.2392 10.8747C35.2873 10.8487 34.4243 9.62887 35.0402 7.76044C35.1211 7.51498 35.2295 7.27883 35.325 7.03821C35.7675 7.49751 35.4886 8.09738 35.6236 8.62585C35.8733 9.60283 36.2894 10.315 37.3749 10.4876C37.6053 10.5237 37.8055 10.7442 38.0195 10.8799Z" fill="#C59E48"/>
<path d="M38.0105 11.0942C35.9942 13.6618 37.4938 15.9513 40.5689 16.7006C40.8482 16.7687 41.1815 16.6471 41.3944 16.9416C41.1394 17.3875 40.6644 17.4281 40.2412 17.553C32.481 19.8384 24.7998 22.3718 17.1257 24.9256C16.4144 25.1621 15.7362 25.4887 15.0155 25.6943C14.6374 25.8022 14.2422 26.051 13.8575 25.6939C13.973 24.9435 13.7844 24.3518 13.0037 24.0699C13.045 23.6392 13.4347 23.5923 13.7176 23.4469C19.5413 20.4576 25.3744 17.4868 31.1906 14.4837C33.447 13.3182 35.6512 12.0523 38.0105 11.0942Z" fill="#BB8044"/>
<path d="M12.2818 38.9924C12.3004 38.8485 12.3191 38.7045 12.3373 38.5606C12.9607 38.5264 13.2989 38.1511 13.4905 37.5992C14.3797 37.5237 14.4994 38.0857 14.3585 38.7399C14.2574 39.2096 14.1888 39.7076 14.0039 40.1419C12.8272 42.9063 12.8287 45.8704 12.504 48.7753C12.3642 50.0245 12.4462 51.2875 12.5853 52.5456C12.6438 53.0738 12.7467 53.6733 12.2848 54.1318C11.8907 54.159 11.4567 54.3204 11.2173 53.8205C10.9974 52.829 11.249 51.7539 10.4601 50.8531C9.97131 50.2953 10.975 50.1666 11.0283 49.759C11.0842 49.3313 10.05 49.2052 10.5615 48.5979C10.9023 48.1929 11.0175 47.8738 10.7207 47.4156C10.5224 47.1092 10.6827 46.8526 10.9321 46.635C11.2606 46.3483 11.0458 46.1076 10.849 45.8707C10.7192 45.6956 10.6174 45.5118 10.6674 45.282C11.8605 45.0202 11.9995 44.0596 12.1233 43.09C12.1968 42.8434 12.2478 42.5917 12.2788 42.3358C12.3183 42.0267 12.4358 41.734 12.4678 41.4239C12.5077 41.0702 12.6222 40.7321 12.6777 40.3826C12.6885 40.2368 12.6956 40.0902 12.6852 39.9433C12.7035 39.5614 12.2005 39.3989 12.2818 38.9924Z" fill="#B0B0B0"/>
<path d="M8.68455 43.4667C8.3311 43.466 8.12269 43.6493 8.05073 43.984C7.96424 44.3872 7.69132 44.4218 7.36733 44.331C7.03663 44.2384 6.84276 44.0127 6.91695 43.6635C7.30395 41.8408 7.43631 39.9669 8.03582 38.1874C8.15625 37.83 8.33744 37.5577 8.76471 37.7143C9.07453 37.8277 9.25014 37.9769 9.33141 38.4083C9.66696 40.1844 8.72668 41.7664 8.67896 43.4716L8.68455 43.4667Z" fill="#D0D0D0"/>
<path d="M8.9408 43.4961C9.63689 42.2755 9.56269 40.8686 9.8673 39.5551C10.1048 38.5301 10.437 38.0976 11.4489 38.7421C11.6323 38.8589 11.8545 38.9154 12.0589 38.9998C12.2427 39.4004 12.1379 39.8058 12.082 40.2111C11.73 41.5265 11.538 42.8769 11.2088 44.1983C11.1003 44.5627 10.9862 44.9242 10.6562 45.1626C9.0821 45.3181 8.669 44.9164 8.9408 43.4961Z" fill="#646464"/>
<path d="M6.68412 54.0468C6.53349 54.0453 6.38287 54.0442 6.23224 54.0427C5.74233 52.6986 5.6137 51.3531 6.21732 50.0049C5.39149 49.6029 4.77966 49.1444 5.6301 48.1878C5.86462 47.9242 5.55442 47.7289 5.44667 47.508C5.21812 47.0405 5.27479 46.6452 5.80124 46.4109C5.97722 46.1933 6.23 46.1915 6.47608 46.1714C6.73669 46.3863 7.05174 46.438 7.3735 46.4711C7.36865 46.7129 7.1882 46.8304 7.02751 46.9617C6.63267 47.6125 6.9466 48.3403 6.81088 49.0242C6.75384 49.3113 7.05584 49.4516 7.32317 49.52C7.73441 49.6252 8.10426 49.7818 8.25042 50.234C8.44467 51.2966 8.23513 52.3814 8.45883 53.445C8.51364 53.7065 8.46778 54.0654 8.02783 54.0668C7.88205 54.0646 7.73627 54.0624 7.59049 54.0598C7.16396 53.6339 7.30191 53.0847 7.265 52.574C7.22623 52.0389 7.35821 51.478 7.03422 50.8369C6.64162 51.4338 6.8079 51.9418 6.86718 52.4353C6.9343 52.988 7.09312 53.5488 6.68412 54.0468Z" fill="#B1B1B1"/>
<path d="M10.9626 36.7369C10.5592 36.4836 10.1625 36.227 9.7766 35.9417C9.00855 35.3738 8.81169 34.8948 9.5488 34.1777C9.95259 33.7849 9.25165 32.7186 10.2863 32.7465C10.8914 32.7629 11.4868 33.1274 12.0867 33.3353C12.4379 33.2843 12.5625 33.5662 12.7396 33.7738C13.0285 34.277 13.1929 34.8103 13.127 35.3991C12.8015 36.2727 12.3626 37.0103 11.2531 36.9299C11.1356 36.8968 11.039 36.8321 10.9626 36.7369Z" fill="#E1E1E1"/>
<path d="M12.5336 33.8175C12.3844 33.6568 12.2357 33.4958 12.0865 33.3351C12.0936 33.2555 12.1007 33.176 12.1081 33.0964C12.2465 32.9945 12.4019 32.9766 12.5664 32.9993C13.4358 33.4099 13.8411 32.9848 14.1684 32.2098C14.41 31.6382 14.3884 30.8442 15.2172 30.65C15.5722 30.7162 15.9077 30.8207 16.1396 31.1249C16.3276 32.2975 15.6624 33.2091 15.1445 34.1396C14.9111 34.5591 14.4045 34.2612 14.0178 34.2195C13.8605 34.1983 13.702 34.2095 13.5439 34.2128C13.1532 34.2195 12.8479 34.0079 12.5336 33.8175Z" fill="#838383"/>
<path d="M11.1754 36.7794C12.1004 36.7355 12.5537 36.0958 12.9493 35.3829C13.044 35.3226 13.1424 35.313 13.2457 35.3602C13.3106 35.3963 13.3688 35.4424 13.4284 35.4863C14.6931 36.4179 14.6908 36.4149 13.4299 37.46C13.2975 37.5697 13.371 37.7307 13.4347 37.8661C13.3725 38.8907 13.3725 38.8907 12.3371 38.5601C12.2473 38.5504 12.1574 38.5407 12.0676 38.5307C12.0985 38.0059 11.8975 37.611 11.1754 36.7794Z" fill="#848484"/>
<path d="M11.8464 28.8307C12.1048 28.9534 12.3826 29.0479 12.5432 29.3116C12.1503 30.1833 11.7651 31.0587 11.3587 31.9241C11.2458 32.1644 11.1977 32.5244 10.7436 32.3451C10.3182 32.1774 10.2962 31.9368 10.4688 31.5701C10.9043 30.6448 11.0653 29.5834 11.8464 28.8307Z" fill="#E1E0E0"/>
<path d="M6.21805 50.0051C6.2229 51.3509 6.22775 52.697 6.23259 54.0424C5.99211 54.0421 5.75126 54.0417 5.5104 54.0413C4.78187 52.9053 4.78411 51.7272 5.30795 50.5194C5.50444 50.1598 5.85603 50.0735 6.21805 50.0051Z" fill="#A8A7A7"/>
<path d="M12.534 33.1431C12.3919 33.1278 12.2499 33.113 12.1082 33.0974C12.3215 31.8932 12.9437 30.8504 13.4333 29.7551C13.66 29.8425 13.8866 29.9299 14.1133 30.0173C14.3244 30.8675 13.6924 32.7388 13.041 33.158C12.8833 33.2595 12.6988 33.284 12.534 33.1431Z" fill="#545454"/>
<path d="M5.30764 50.5194C5.3233 51.6964 5.31547 52.875 5.51009 54.042C5.19541 54.0502 4.72041 54.258 4.67418 53.7783C4.56792 52.679 4.13356 51.5704 4.64398 50.4636C4.86508 50.4822 5.08654 50.5008 5.30764 50.5194Z" fill="#F8F7F6"/>
<path d="M6.91802 46.636C7.06977 46.5809 7.22152 46.5259 7.37364 46.4709C7.51756 46.3745 7.66185 46.2782 7.80577 46.1815L7.79122 46.196C8.01941 46.1841 8.24759 46.1726 8.47577 46.1607C8.57084 46.0923 8.67673 46.0569 8.79418 46.0529C9.22034 46.1138 9.54658 46.334 9.7975 46.6765C10.1935 47.4211 10.4649 48.1879 10.2151 49.0466C10.1416 49.214 10.0231 49.3404 9.86387 49.4293C9.69646 49.4899 9.53204 49.4854 9.3732 49.401C9.24271 49.253 9.23302 49.076 9.236 48.8874C9.26359 47.2597 8.9627 47.0198 7.37326 47.3939C7.05187 47.2426 6.78193 47.0603 6.91802 46.636Z" fill="#DEDEDE"/>
<path d="M11.1754 36.7798C11.971 37.1112 12.8837 37.3835 12.0676 38.5317C11.6899 38.3799 11.2678 38.2914 10.945 38.0634C10.3663 37.6543 10.1605 37.1678 10.9625 36.7371C11.0356 36.7408 11.1068 36.7549 11.1754 36.7798Z" fill="#5D5D5D"/>
<path d="M8.70242 46.185C8.62674 46.1772 8.55105 46.169 8.47536 46.1608C8.06412 45.2255 8.82211 44.3809 8.68453 43.4668L8.67893 43.4716C8.76581 43.4794 8.85305 43.4876 8.94067 43.4958C8.65172 45.0236 9.82021 44.8897 10.7266 45.0552C10.7971 45.108 10.8228 45.1634 10.8034 45.2214C10.7836 45.2806 10.7628 45.3099 10.7408 45.3099C10.8202 45.4505 10.8992 45.5911 10.9786 45.7317C10.9022 45.8083 10.8116 45.8581 10.705 45.8778C10.4417 45.8957 10.1763 45.8451 9.96077 45.7198C9.33141 45.3538 8.9608 45.5982 8.70242 46.185Z" fill="#848484"/>
<path d="M9.05837 35.9898C9.36745 36.1791 9.86481 36.2007 9.70412 36.7344C9.61837 37.0185 9.61501 37.4741 9.10535 37.3551C8.7724 37.2773 8.40143 37.1308 8.5487 36.6935C8.63446 36.4376 8.55765 35.9753 9.05837 35.9898Z" fill="#EDEDEC"/>
<path d="M7.80569 46.182C7.37245 46.1344 6.85197 46.1697 6.88701 45.5225C6.9023 45.2384 6.7129 44.7582 7.19349 44.7244C7.57043 44.6976 7.88249 44.9468 7.82731 45.4299C7.79823 45.6836 7.80196 45.941 7.79115 46.1965L7.80569 46.182Z" fill="#DDDDDD"/>
<path d="M11.849 40.1067C11.8237 39.7195 11.8923 39.3505 12.0597 39.0001C12.1339 38.9949 12.2081 38.9923 12.2823 38.9923C12.5212 39.2757 13.0175 39.3557 12.9731 39.863C12.6506 40.1837 12.2867 40.3135 11.849 40.1067Z" fill="#858585"/>
<path d="M6.47626 46.1719C6.31893 46.4418 6.04079 46.373 5.80106 46.4113C5.85885 45.8614 6.09411 45.8105 6.47626 46.1719Z" fill="#E1E1E1"/>
<path d="M13.8571 25.6941C17.7707 24.4002 21.6762 23.0811 25.6003 21.8185C30.8453 20.1304 36.0688 18.3714 41.3944 16.9421C41.4533 16.9775 41.517 16.9972 41.5856 17.002C41.4585 17.645 40.856 18.0292 40.7587 18.738C40.6062 19.85 41.3086 20.493 41.8474 21.2514C41.8518 21.3183 41.853 21.3856 41.8503 21.4529C41.6438 22.1673 40.9749 22.0528 40.4805 22.1484C35.1259 23.1815 29.7731 24.2254 24.4217 25.2727C24.069 25.3434 23.7048 25.3516 23.3607 25.4709C22.9013 25.5647 22.4375 25.639 21.9812 25.751C20.9395 25.9466 19.8981 26.1445 18.8635 26.3765C18.3367 26.4743 17.8095 26.5692 17.2909 26.7083C16.2175 26.8191 15.203 27.4647 14.0733 27.0631C14.4044 26.5424 13.8425 26.1634 13.8571 25.6941Z" fill="#F3E1B3"/>
<path d="M14.0738 27.0621C15.1367 26.8527 16.1997 26.6437 17.2626 26.4343C17.2633 27.6297 16.5121 28.4918 15.8663 29.365C15.4398 29.9419 14.8541 29.2122 14.3303 29.326C13.8132 29.0649 13.3106 28.7677 12.7752 28.5524C12.1723 28.3099 12.4982 27.9183 12.5493 27.5612C13.0574 27.395 13.5656 27.2284 14.0738 27.0621Z" fill="#C76578"/>
<path d="M8.02807 27.081C8.86957 26.766 9.71927 26.4703 10.5496 26.1281C11.0197 25.9344 11.4056 25.9418 11.878 26.5064C10.5294 26.7987 9.2782 27.0699 8.02732 27.3414C7.97252 27.2834 7.95425 27.2253 7.97289 27.1677C7.99153 27.11 8.0098 27.081 8.02807 27.081Z" fill="#525253"/>
<path d="M8.02797 27.0804C8.0276 27.1671 8.0276 27.2538 8.02722 27.3404C7.85087 27.5554 7.60032 27.526 7.36357 27.5406C7.1298 27.6283 7.0899 27.5242 7.14769 27.3233C7.44112 27.2422 7.73454 27.1615 8.02797 27.0804Z" fill="#424242"/>
<path d="M7.14712 27.323C7.21907 27.3952 7.29102 27.4677 7.36298 27.5402C7.1721 27.7477 6.93947 27.7868 6.67477 27.7117C6.67701 27.3911 6.95773 27.4119 7.14712 27.323Z" fill="#2E2E2F"/>
<path d="M24.2089 25.0498C27.2102 24.447 30.2201 23.8836 33.2099 23.2294C36.083 22.6009 39.0216 22.2915 41.8503 21.4517C43.2704 21.4484 44.5515 20.8753 45.8531 20.4297C50.0653 18.9875 54.3708 18.5903 58.8053 18.9139C63.3602 19.2463 67.6523 20.4011 71.7456 22.3837C78.5051 25.6575 83.6741 30.616 87.3476 37.1206C90.9578 43.5124 92.2877 50.4442 91.6266 57.6884C90.9041 65.6073 87.7544 72.5346 82.3133 78.3921C76.9605 84.1539 70.4269 87.8115 62.6806 89.2158C53.8011 90.8254 45.4131 89.3806 37.7178 84.656C28.3284 78.8908 22.8093 70.4502 20.9414 59.6338C20.7136 58.314 20.7106 56.9554 20.6033 55.6151C20.6014 55.1826 20.5992 54.7497 20.5973 54.3168C20.16 53.4306 20.0019 52.47 19.9806 51.5056C19.9709 51.0645 19.7823 50.8161 19.5235 50.5491C19.3662 50.0898 20.031 49.8324 19.8158 49.3579C19.7953 49.2095 19.8017 49.063 19.8397 48.9187C20.0992 48.5077 19.9724 48.089 19.8617 47.6699C19.8684 47.5642 19.8956 47.4649 19.9407 47.3697C20.7692 45.9 20.837 44.2439 21.107 42.6384C21.1152 42.3785 21.1916 42.1382 21.3191 41.914C21.5089 41.6261 21.4895 41.3059 21.4582 40.9835C21.4861 40.7336 21.6882 40.5915 21.8142 40.4026C21.9708 40.1493 21.8996 39.8708 21.903 39.6C21.9891 39.1377 22.6736 38.8901 22.369 38.2894C22.3981 38.0046 22.6214 37.8532 22.7933 37.6658C23.2824 37.1682 23.3999 36.4783 23.7127 35.8896C23.9069 35.5244 24.0945 35.1655 24.4569 34.9357C24.4833 34.865 24.4986 34.7925 24.5035 34.7174C24.367 33.8836 24.8152 33.2216 25.1444 32.5217C25.6484 31.4495 26.267 30.416 26.2245 29.1623C26.2055 28.5959 26.1339 28.0522 25.8598 27.5494C25.5743 26.9945 25.2111 26.4984 24.7779 26.0458C24.5113 25.7661 24.1392 25.5285 24.2089 25.0498Z" fill="#FDFDFD"/>
<path d="M10.7174 45.7416C10.8043 45.7383 10.8911 45.7353 10.9784 45.7319C11.6342 46.1061 12.2356 46.4716 11.0108 46.9097C10.6809 47.0276 10.8091 47.2564 10.9967 47.4092C11.9362 48.1742 11.1999 48.4762 10.6018 48.8172C10.657 49.2196 11.0861 49.0973 11.2759 49.3115C11.4538 49.5123 11.6379 49.6975 11.5835 49.988C11.5197 50.3275 11.2983 50.3413 10.997 50.2959C10.6082 50.2375 10.3308 50.5031 10.6648 50.7779C11.6346 51.5756 11.3322 52.6214 11.3669 53.611C11.1182 53.8416 10.8412 53.8531 10.5448 53.7185C10.4475 53.6516 10.3748 53.5627 10.3263 53.4552C10.0813 52.7731 10.3472 52.0349 10.0944 51.3558C9.87329 50.9564 9.52431 50.9367 9.13619 51.0375C8.45389 51.6686 8.90018 52.4838 8.78013 53.206C8.75328 53.559 8.78274 53.9286 8.47776 54.1953C8.32899 54.1983 8.18023 54.2016 8.03147 54.2042C8.02737 54.1585 8.02588 54.1127 8.02811 54.0674C8.43786 53.2016 7.86779 52.341 8.01544 51.4667C8.09522 50.9947 8.02886 50.4979 8.02811 50.0121C8.32303 49.6971 8.70444 49.6704 9.09965 49.6893C9.79984 50.0661 10.1048 49.8626 10.009 49.0709C10.1917 48.2092 9.8841 47.4405 9.55414 46.6755C9.91356 46.3285 10.311 46.0295 10.7174 45.7416Z" fill="#848484"/>
<path d="M19.5212 50.463C20.1894 50.6236 20.5208 50.7278 20.261 51.6936C20.0648 52.4229 20.623 53.4065 20.598 54.3173C19.6428 54.2853 18.6871 54.2537 17.7319 54.2217C17.7244 54.1131 17.7647 54.0246 17.8456 53.9536C18.2994 53.7959 18.4079 53.4686 18.3643 53.0168C18.3266 52.6229 18.2632 52.2287 18.2755 51.8293C18.3024 51.6062 18.3587 51.3905 18.4235 51.1755C18.6383 50.7069 18.7293 50.045 19.5212 50.463Z" fill="#AEADAC"/>
<path d="M8.47751 54.1946C8.48236 53.8513 8.4872 53.508 8.49242 53.1648C8.74893 53.0826 8.84848 53.3664 9.05727 53.4578C9.21758 52.508 8.9305 51.5954 9.15234 50.701C9.5714 50.756 10.1321 50.4488 10.2995 51.1476C10.5639 51.9543 10.1993 52.8122 10.5016 53.6155L10.4986 53.6144C10.6735 53.8074 10.6929 54.0012 10.5027 54.1968C9.82754 54.2935 9.15234 54.3087 8.47751 54.1946Z" fill="#5C5C5C"/>
<path d="M10.5032 54.197C10.5018 54.0028 10.5006 53.8086 10.4991 53.6144C10.7885 53.6133 11.0782 53.6122 11.3671 53.6111C11.4734 54.1918 11.9144 54.0631 12.3011 54.0493C12.8092 53.6766 13.3554 53.7164 13.9154 53.9013C14.031 53.9649 14.1056 54.0605 14.1403 54.1877C12.9278 54.3094 11.7157 54.3164 10.5032 54.197Z" fill="#858483"/>
<path d="M14.1399 54.1875C14.1432 54.141 14.1306 54.099 14.1015 54.0626C14.1473 54.0183 14.1932 53.9741 14.2387 53.9295C14.8449 53.6528 15.4888 53.78 16.1189 53.7528C16.6256 53.761 17.1424 53.6922 17.6178 53.9432C17.6603 53.9908 17.7028 54.0388 17.7449 54.0867C17.7334 54.131 17.7289 54.176 17.7315 54.2217C16.5343 54.2102 15.3371 54.199 14.1399 54.1875Z" fill="#D0CFCC"/>
<path d="M24.2091 25.05C24.8675 25.7567 25.6214 26.3855 26.0412 27.2867C25.9752 28.0595 25.574 28.6947 25.1867 29.3329C24.5249 30.4229 24.0339 31.6014 23.4142 32.7127C23.2159 33.0686 23.0425 33.455 22.6365 33.6421C21.8256 33.2449 21.0143 32.8477 20.2034 32.4505C19.8679 31.9027 20.2187 31.4397 20.4316 30.9945C21.1362 29.5214 21.9676 28.1141 22.7551 26.6842C23.0049 26.2305 23.3165 25.8035 23.3344 25.2572C23.5734 24.9667 23.9082 25.0798 24.2091 25.05Z" fill="#DB93AD"/>
<path d="M18.8047 26.1342C19.8479 25.8155 20.9109 25.5965 21.9993 25.5057C22.1905 26.1257 21.7789 26.5805 21.5205 27.0473C20.7637 28.4144 19.9635 29.7577 19.3692 31.2081C19.2689 31.4532 19.1414 31.6793 18.8636 31.7674C18.2641 31.4703 17.6646 31.1731 17.065 30.8756C16.9375 30.0262 17.4532 29.3954 17.7936 28.6996C18.1981 27.8725 18.8849 27.1521 18.8047 26.1342Z" fill="#D4788C"/>
<path d="M22.6364 33.6417C23.7199 31.4958 24.7791 29.3369 26.0412 27.2863C26.9652 28.8263 26.5192 30.3039 25.8414 31.7744C25.3902 32.7528 24.9495 33.7361 24.504 34.7172C23.8817 34.3587 23.259 34.0002 22.6364 33.6417Z" fill="#EFCAD1"/>
<path d="M13.9267 33.8289C14.6273 34.225 15.0941 34.2008 15.3185 33.2666C15.4956 32.5295 15.8591 31.8373 16.1399 31.1251C17.0608 31.4007 17.8344 31.9668 18.6733 32.4045C18.5763 33.004 18.2736 33.5254 18.0081 34.0547C17.6521 34.7643 17.5976 35.3203 18.5126 35.6208C18.8269 35.7242 19.1214 35.9157 19.2299 36.2768C19.2601 36.4442 19.2359 36.6019 19.1445 36.7473C19.0166 36.8637 18.8645 36.8968 18.6975 36.8771C18.0894 36.5677 17.5041 36.1801 16.7655 36.2969C16.6279 36.1299 16.6134 35.9295 16.6052 35.7279C16.6044 35.2686 16.2114 35.1399 15.9087 34.9982C15.5206 34.8163 15.896 35.2693 15.7092 35.2983C15.3483 35.7818 15.1548 36.5963 14.2656 36.0236C14.0233 35.5576 14.7373 34.903 13.9704 34.5393C13.8126 34.3113 13.6482 34.0829 13.9267 33.8289Z" fill="#B6B6B6"/>
<path d="M18.8639 31.7673C19.6185 29.5352 21.0013 27.6162 21.9993 25.5056C22.4109 25.2431 22.8751 25.2617 23.3348 25.2568C24.0599 25.4841 23.4947 25.8615 23.3788 26.0825C22.5668 27.6292 21.7104 29.1525 20.8708 30.6851C20.5658 31.2418 20.3291 31.8257 20.2035 32.4505C19.7568 32.2225 19.3106 31.9949 18.8639 31.7673Z" fill="#E187A5"/>
<path d="M18.8047 26.1343C19.4542 26.2414 19.1865 26.6136 19.0277 26.9353C18.3778 28.251 17.7198 29.5627 17.0651 30.8758C16.1539 30.3589 15.2423 29.8423 14.3307 29.3258C16.1755 29.5076 16.4238 27.9606 17.052 26.8252C17.1236 26.6955 17.193 26.5645 17.263 26.434C17.7768 26.334 18.2906 26.2339 18.8047 26.1343Z" fill="#C55C73"/>
<path d="M19.0719 36.2626C18.8866 36.141 18.7117 35.9978 18.5141 35.9015C17.1585 35.2411 17.1339 35.2329 17.8471 33.8156C18.0898 33.3333 18.082 32.688 18.6729 32.405C19.2605 32.7234 19.8481 33.0417 20.4353 33.36C20.2008 34.3865 19.8321 35.3645 19.3601 36.305C19.2505 36.3831 19.1543 36.3686 19.0719 36.2626Z" fill="#D8D8D8"/>
<path d="M19.3112 36.2489C19.4839 35.2075 19.7545 34.2044 20.4357 33.3601C20.8853 33.5862 21.3346 33.8124 21.7842 34.0381C22.1563 35.1543 21.3428 35.9599 21.033 36.8979C20.9647 36.9932 20.8734 37.0568 20.7615 37.0914C20.4696 37.1442 20.2139 37.0333 19.9603 36.9132C19.6844 36.7503 19.3664 36.6264 19.3112 36.2489Z" fill="#F7F6F6"/>
<path d="M24.4578 34.9363C23.8501 35.8705 23.7819 37.0833 22.9251 37.8888C22.2682 38.096 21.8506 37.833 21.609 37.2228C21.8159 36.2644 21.8879 35.2342 22.924 34.7058C23.4527 34.6652 23.912 35.0877 24.4578 34.9363Z" fill="#ADACAC"/>
<path d="M12.5342 33.1428C13.7075 32.4259 13.7951 31.1633 14.1135 30.0172C14.4964 30.2032 14.9188 30.3203 15.2179 30.6509C14.6963 31.2176 14.5326 31.9647 14.2671 32.6471C13.8794 33.6423 13.3455 33.7884 12.5342 33.1428Z" fill="#5D5C5C"/>
<path d="M22.9236 34.7054C22.3446 35.4445 22.1216 36.3497 21.757 37.1892C21.6328 37.323 21.477 37.3844 21.2962 37.387C21.068 37.3398 20.8216 37.3104 20.8775 36.9753C20.9196 35.9164 21.7439 35.0978 21.7846 34.0386C22.2029 34.1944 22.619 34.3555 22.9236 34.7054Z" fill="#D1D0D1"/>
<path d="M6.68411 54.0469C6.61029 53.1249 6.51111 52.2037 6.4742 51.2802C6.45854 50.8938 6.45518 50.3482 7.00887 50.3534C7.5249 50.3583 7.57338 50.8261 7.5689 51.2706C7.55921 52.2 7.58158 53.1297 7.5909 54.0591C7.28851 54.0554 6.9865 54.0509 6.68411 54.0469Z" fill="#E1E0DF"/>
<path d="M41.8474 21.2503C39.9835 20.2042 39.8712 18.377 41.5857 17.001C41.5992 16.9051 41.6129 16.8087 41.6264 16.712C41.7703 16.7169 41.9142 16.7217 42.0581 16.7269C41.3811 18.1974 40.773 19.662 42.2937 21.0153C42.4506 21.1551 42.2728 21.1938 42.1822 21.2172C42.0752 21.2448 41.9597 21.2407 41.8474 21.2503Z" fill="#C7A54F"/>
<path d="M58.2968 14.27C56.8769 14.6067 55.457 14.6063 54.0371 14.2704C55.457 14.2704 56.8769 14.27 58.2968 14.27Z" fill="#F9E689"/>
<path d="M14.334 35.8431C14.7206 36.2604 15.0028 36.0377 15.1885 35.6605C15.3071 35.4195 15.3675 35.173 15.693 35.1611C16.1713 35.0648 16.5725 35.1507 16.8066 35.63C16.8163 35.8524 16.826 36.0748 16.8357 36.2972C17.1377 36.6952 17.6619 36.893 17.8394 37.404C17.8379 37.5093 17.8058 37.6049 17.7488 37.6926C17.4878 37.9239 17.0844 37.7477 16.8249 37.979C16.8074 38.4803 17.2514 38.445 17.4994 38.6213C17.8241 38.8299 18.1164 39.0672 18.2379 39.454C18.2238 39.6388 18.1164 39.7418 17.943 39.7861C17.3935 39.8448 16.9617 39.2866 16.2798 39.4406C16.6228 40.1453 17.329 40.0814 17.7898 40.396C17.9285 40.499 18.0213 40.6243 17.9874 40.8095C17.8539 40.9996 17.6638 41.1007 17.4457 41.1595C17.373 41.1736 17.2973 41.1885 17.2249 41.1759C15.5028 40.8698 15.5028 40.8694 15.0666 42.6367C14.9689 43.0331 14.8835 43.4322 14.8071 43.8339C14.4578 45.6751 14.5879 45.8782 16.3734 46.2393C16.5315 46.3178 16.6411 46.4305 16.6426 46.6194C16.5296 46.8266 16.3409 46.9352 16.1295 47.0136C15.64 47.1564 15.1963 46.9322 14.6211 46.8035C14.8157 47.724 15.8704 47.3781 16.1832 47.9731C16.1993 48.415 15.8667 48.4957 15.5461 48.5894C15.2388 48.6656 14.8996 48.4071 14.5968 48.679C14.5942 49.1707 15.2094 49.1636 15.313 49.5615C15.3265 49.6686 15.3007 49.7661 15.2374 49.8535C15.0491 50.0978 14.5174 49.8386 14.5185 50.2023C14.5196 50.6311 14.9786 50.5969 15.3041 50.6345C15.489 50.6557 15.6762 50.6586 15.8578 50.7111C16.0181 50.7676 16.1437 50.8628 16.2131 51.0231C16.2369 51.3043 16.2593 51.5854 15.9349 51.7297C14.3399 51.7829 14.4421 51.597 14.4063 53.2244C14.4 53.5208 14.3694 53.8109 14.193 54.0645L14.1021 54.0634C13.5018 54.059 12.9015 54.0549 12.3013 54.05C12.2532 51.916 12.066 49.7724 12.2215 47.6537C12.2882 46.7403 12.5548 45.7376 12.6499 44.8239C12.7643 43.7197 12.9258 42.6412 13.2046 41.5794C13.4511 40.6414 13.7766 39.7228 14.0995 38.8068C14.3336 38.1419 14.1681 37.8808 13.4354 37.8674C12.8665 37.3345 12.8598 37.2478 13.2997 37.2136C13.8131 37.1738 14.0584 36.8477 14.1546 36.4921C14.2862 36.0068 13.7221 36.1366 13.4899 35.9607C13.296 35.8138 13.2248 35.62 13.2106 35.392C13.2457 35.3574 13.2807 35.3225 13.3154 35.2875C13.5059 35.1927 13.6979 35.2035 13.891 35.2801C14.1341 35.3917 14.2314 35.6196 14.334 35.8431Z" fill="#858688"/>
<path d="M11.8489 40.1064C12.1927 39.8825 12.5871 39.8925 12.973 39.8632C12.9726 40.0313 12.9723 40.1997 12.9719 40.3682C12.6788 40.5992 12.6535 40.9387 12.6054 41.2694C12.526 41.5647 12.482 41.8681 12.3862 42.1601C12.2833 42.4242 12.328 42.715 12.2322 42.9802C12.1785 43.3115 12.1431 43.6496 12.0398 43.965C11.8131 44.6582 11.4585 44.8063 10.9783 44.1513C11.1938 42.7871 11.416 41.4241 11.8489 40.1064Z" fill="#AFAFAF"/>
<path d="M10.9786 44.1512C11.4364 44.4293 11.8122 44.5342 11.8864 43.796C11.9196 43.4684 12.0218 43.1478 12.093 42.8239C12.2947 42.7685 12.4024 42.8075 12.3159 43.0433C12.3092 43.2657 12.3122 43.4885 12.2939 43.7097C12.2156 44.6651 11.9931 45.4866 10.7404 45.3092C10.7359 45.2244 10.731 45.1396 10.7266 45.0548C10.7102 44.7257 10.8045 44.4275 10.9786 44.1512Z" fill="#858688"/>
<path d="M12.3013 42.1355C12.3393 41.8254 12.2264 41.4765 12.5306 41.2336C12.622 41.2876 12.6913 41.3616 12.7357 41.4583C12.6663 41.758 12.597 42.0578 12.5273 42.3576C12.3248 42.4122 12.2171 42.3713 12.3013 42.1355Z" fill="#858585"/>
<path d="M12.7358 41.4585C12.6676 41.3837 12.5993 41.3086 12.5307 41.2338C12.5848 40.898 12.3671 40.4238 12.9722 40.3677C12.8935 40.7314 12.8145 41.0951 12.7358 41.4585Z" fill="#858585"/>
<path d="M12.3013 42.1355C12.3766 42.2095 12.4523 42.2839 12.5276 42.3579C12.5325 42.6097 12.566 42.8704 12.3159 43.0437C12.2417 42.9704 12.1671 42.8972 12.0929 42.8243C12.0858 42.5717 12.0504 42.3107 12.3013 42.1355Z" fill="#979797"/>
<path d="M9.61775 43.2418C9.86457 42.0816 10.0838 41.0217 10.3187 39.9659C10.3776 39.7007 10.5219 39.4397 10.8391 39.4813C11.2325 39.533 11.1255 39.8264 11.064 40.0879C10.8168 41.1411 10.5841 42.1976 10.3299 43.2489C10.2739 43.4798 10.3347 43.8811 9.97903 43.8484C9.61253 43.8149 9.60918 43.4441 9.61775 43.2418Z" fill="#C5C5C7"/>
<path d="M9.15928 49.79C8.8077 49.9934 8.42516 50.0395 8.02809 50.0117C7.85397 49.9443 7.67501 49.809 7.50612 49.8205C6.35031 49.899 6.2366 49.2742 6.58185 48.4225C6.8186 47.8386 5.95436 47.065 6.91777 46.6362C7.0684 46.8471 7.21866 47.058 7.36891 47.2688C7.49269 47.4091 7.60343 47.569 7.60678 47.7542C7.62244 48.5973 8.04151 49.0347 8.88599 49.0856C9.07204 49.0968 9.22677 49.2132 9.3595 49.3459C9.51684 49.3467 9.67418 49.3471 9.83151 49.3478C9.82145 49.8179 9.54219 49.8819 9.15928 49.79Z" fill="#878889"/>
<path d="M12.3376 35.0539C12.386 35.6795 12.1284 36.1012 11.3339 36.0997C10.5312 36.0982 10.0428 35.7903 10.0421 34.9353C10.0417 34.2168 10.3344 33.6169 11.108 33.6541C11.8246 33.6879 12.3517 34.1305 12.3376 35.0539Z" fill="#A3A3A3"/>
<path d="M13.2102 35.3915C13.1233 35.3889 13.0369 35.3863 12.95 35.3837C12.8113 34.862 12.6726 34.3403 12.5339 33.8186C12.9067 33.8974 13.2796 33.9763 13.6524 34.0551C14.0528 34.6809 13.7072 35.0613 13.2102 35.3915Z" fill="#767472"/>
<path d="M13.2101 35.3918C13.4044 34.9615 13.7224 34.5718 13.6527 34.0548C13.7437 33.9801 13.835 33.905 13.9267 33.8298C13.8533 34.0887 14.0054 34.2798 14.1224 34.4818C14.3719 34.8715 14.323 35.1832 13.8827 35.3922C13.6583 35.3918 13.4342 35.3918 13.2101 35.3918Z" fill="#848484"/>
<path d="M9.35964 49.3455C7.5267 49.3199 7.31604 49.1001 7.36899 47.269C7.86488 46.9076 8.38352 46.6376 8.9674 47.0652C9.82385 47.6926 9.61691 48.5185 9.35964 49.3455Z" fill="#999A9A"/>
<path d="M10.7175 45.7417C10.5747 46.3561 10.2801 46.7823 9.55495 46.6749C9.27085 46.5116 8.98676 46.3483 8.70303 46.185C8.60386 45.3066 8.92337 44.9901 9.78313 45.3732C10.0885 45.5093 10.4058 45.6197 10.7175 45.7417Z" fill="#5F5F5F"/>
<path d="M9.15939 49.7902C9.39055 49.6534 9.69292 49.6243 9.83161 49.3477C9.89089 49.2555 9.95017 49.1633 10.0094 49.071C10.3834 49.3979 10.4434 49.8501 10.0907 50.1208C9.79843 50.3446 9.28466 50.4186 9.15939 49.7902Z" fill="#686665"/>
<path d="M61.6418 45.0421C61.6302 42.241 62.3655 39.9917 63.6876 37.9295C64.3163 36.9492 65.1224 36.6885 65.848 37.1437C66.6246 37.6309 66.6794 38.4647 66.0019 39.4878C63.8856 42.6843 63.8666 46.8335 65.955 49.7448C68.2614 52.9602 72.1622 53.0301 74.5765 49.8991C77.0176 46.7335 76.7446 41.6924 73.9419 38.7232C73.2842 38.0262 73.0101 37.304 73.7156 36.5613C74.4288 35.8101 75.2405 36.015 75.8919 36.6915C80.8032 41.7913 79.915 51.0843 73.6772 54.2168C69.5463 56.2913 64.6183 54.1603 62.6041 49.5127C61.9401 47.9794 61.5955 46.3835 61.6418 45.0421Z" fill="#A8CE46"/>
<path d="M28.5552 50.5688C28.1294 51.2032 27.7107 51.8425 27.2771 52.4714C26.4486 53.673 25.4103 54.2167 24.4871 53.9448C23.3425 53.6079 22.5651 52.5279 22.466 51.1367C22.1904 47.2656 25.8745 44.2864 29.62 45.3786C30.454 45.6218 31.287 45.8528 30.8668 47.1593C30.6431 47.8554 30.9533 48.7108 30.9611 49.4951C30.9902 52.336 31.2034 55.1795 30.8235 58.0163C30.7068 58.8888 30.4279 59.6846 29.9839 60.4333C29.2766 61.6263 28.2819 62.3481 26.8397 62.1533C25.4863 61.9707 24.3372 61.4857 23.8466 60.01C23.64 59.3886 23.143 58.8695 22.8496 58.2692C22.6211 57.801 22.4011 57.1275 22.9723 56.8765C23.4212 56.679 23.9704 57.1323 24.2064 57.5998C24.7049 58.5876 25.5698 59.1562 26.4113 59.7891C26.9713 60.2101 27.3535 60.0424 27.786 59.6597C28.4564 59.0658 28.6473 58.2454 28.7319 57.4354C28.9694 55.1736 28.7293 52.9091 28.5552 50.5688Z" fill="#A8CE46"/>
<path d="M48.8297 47.7647C48.9643 47.3378 49.0698 46.8989 49.2398 46.4865C49.5243 45.7966 50.0842 45.5322 50.7896 45.7122C51.4932 45.8918 51.5014 46.4947 51.4674 47.0715C51.4302 47.7056 51.3373 48.3374 51.3284 48.9711C51.3224 49.3929 51.0901 50.0444 51.5991 50.166C52.0957 50.2847 52.272 49.6313 52.3768 49.2266C52.5386 48.6 52.9532 48.3627 53.4848 48.0912C54.1854 47.7335 54.7032 47.8963 55.2039 48.3698C55.8295 48.9611 56.4294 49.5792 57.0509 50.1746C57.2593 50.3743 57.454 50.7332 57.7727 50.6119C58.077 50.4963 58.0591 50.1054 58.0479 49.815C57.9845 48.1723 57.9047 46.5304 57.8234 44.8888C57.7951 44.3168 58.0632 43.9594 58.5989 43.8103C59.1369 43.6608 59.5646 43.8843 59.8643 44.3124C60.0067 44.5158 60.1409 44.7988 60.1197 45.0309C59.9087 47.3352 60.5477 49.5636 60.6827 51.8336C60.7218 52.4952 60.8478 53.2877 60.0869 53.7463C59.257 54.2461 58.4453 54.1409 57.6408 53.6741C56.6181 53.081 55.8724 52.1765 55.0451 51.3665C54.4874 50.8202 54.1559 50.8399 53.8778 51.6224C53.5777 52.4659 53.2369 53.3052 52.681 54.0245C51.6225 55.3953 50.6797 55.3079 49.9217 53.7749C49.2998 52.5168 49.1276 51.1348 48.8368 49.786C48.66 49.1136 48.6746 48.4393 48.8297 47.7647Z" fill="#A8CE46"/>
<path d="M86.1233 46.4543C85.0253 47.9196 84.4359 49.3227 83.8155 50.707C83.4329 51.5601 83.0609 52.4189 82.7149 53.2872C82.4953 53.8384 82.1888 54.1426 81.5379 54.0325C80.8064 53.9091 80.5816 53.301 80.636 52.8027C80.8597 50.7553 80.9954 48.7065 81.0871 46.6499C81.1177 45.9645 82.1799 45.4382 82.8648 45.8298C83.6604 46.2847 83.8893 45.8135 84.2282 45.3248C84.5902 44.803 84.9202 44.2455 85.3567 43.7922C86.3175 42.7947 87.4878 43.0822 87.9531 44.3824C88.8054 46.7652 88.8408 49.3071 89.3993 51.7472C89.5078 52.221 89.588 52.7015 89.7106 53.1712C89.8422 53.674 90.1472 54.281 89.4176 54.4863C88.7372 54.6778 88.0116 54.7128 87.6496 53.7979C87.0087 52.1779 86.8119 50.4664 86.5054 48.7761C86.3857 48.1174 86.2869 47.4547 86.1233 46.4543Z" fill="#A8CE46"/>
<path d="M57.1167 21.2563C65.2004 21.7015 72.1593 24.3572 78.1074 29.5757C80.9872 32.1021 83.3204 35.0393 85.1607 38.3779C85.3773 38.771 85.9432 39.2366 85.1282 39.6665C84.3143 40.0957 84.2409 39.3333 84.0347 38.9644C80.7184 33.0244 75.9827 28.5917 69.8537 25.6447C65.8864 23.7373 61.6798 22.7603 57.2837 22.5721C56.8319 22.5528 56.2618 22.7424 56.2491 21.9332C56.2361 21.048 56.858 21.2764 57.1167 21.2563Z" fill="#BDBEC0"/>
<path d="M56.1384 87.367C47.9064 87.1698 40.5969 84.5746 34.3402 79.1267C32.517 77.5394 30.9347 75.7661 29.503 73.8391C29.2528 73.5026 28.792 73.2441 29.4482 72.7862C30.0168 72.3898 30.2356 72.6892 30.5193 73.0774C33.6758 77.3984 37.7103 80.6553 42.5271 82.9794C47.7931 85.52 53.3637 86.3505 59.1476 85.9377C59.7307 85.896 59.9958 85.9682 60.0763 86.529C60.1725 87.1977 59.6733 87.0683 59.2829 87.1561C58.2438 87.3889 57.1943 87.3372 56.1384 87.367Z" fill="#BDBEC0"/>
<path d="M41.2414 49.7579C41.2928 49.2655 41.339 48.8576 41.3778 48.4492C41.5762 46.3454 43.2964 44.8418 45.4185 44.9191C47.1112 44.9808 48.3139 46.4309 48.3243 48.6489C48.3329 50.4988 47.8512 52.2225 46.1448 53.2862C44.2393 54.4744 42.4307 53.8362 41.6216 51.7551C41.3603 51.0834 41.2977 50.3801 41.2414 49.7579Z" fill="#A8CE46"/>
<path d="M35.6358 47.8515C36.5034 46.9407 37.2118 46.1791 37.9403 45.4371C38.6644 44.6996 39.4723 44.1511 40.5804 44.1336C41.3157 44.1221 41.6326 44.4661 41.8742 45.1043C42.1437 45.8157 41.5308 45.8362 41.2176 46.0452C38.5857 47.8013 37.2077 50.3385 36.7196 53.3733C36.6007 54.1126 36.3091 54.4856 35.6612 54.5485C34.9628 54.6162 34.3808 54.0974 34.2488 53.5607C33.7597 51.571 33.392 49.5493 33.0498 47.5276C32.9197 46.7589 32.8503 45.8607 34.0113 45.754C35.0997 45.6539 35.4214 46.3866 35.5489 47.2829C35.5646 47.393 35.5825 47.5031 35.6358 47.8515Z" fill="#A8CE46"/>
<path d="M68.6534 38.8617C68.6534 37.704 68.6359 36.5459 68.6583 35.3888C68.6788 34.3375 69.198 33.777 70.1027 33.7647C71.0112 33.7525 71.5938 34.3125 71.6058 35.3398C71.6337 37.7296 71.6304 40.1199 71.6069 42.5098C71.5976 43.4518 70.9012 44.1908 70.0972 44.1056C69.1425 44.0049 68.6389 43.4403 68.6504 42.4469C68.6642 41.252 68.6538 40.057 68.6534 38.8617Z" fill="#A8CE46"/>
<path d="M72.6452 62.5699C71.5808 63.3174 70.6879 63.2988 70.1086 62.5167C69.4837 61.6736 69.7123 60.06 70.5585 59.3396C71.3892 58.6323 72.7835 58.6044 73.4627 59.2448C73.767 59.5319 73.6823 59.8569 73.6596 60.1767C73.5847 61.2188 73.4989 62.2604 73.3979 63.3002C73.232 65.0028 72.2306 65.7201 70.5216 65.3713C70.21 65.3077 69.7469 65.3438 69.8342 64.851C69.9087 64.4304 70.3144 64.6193 70.5861 64.6253C72.297 64.6632 72.6071 64.3575 72.6452 62.5699Z" fill="#737478"/>
<path d="M85.6388 60.7015C85.0983 61.3954 85.0177 62.0823 84.7393 62.6821C84.6121 62.9562 84.5234 63.2808 84.1685 63.2991C83.7715 63.3195 83.7073 62.9443 83.6335 62.6799C83.3409 61.6349 83.1466 60.5684 83.0769 59.484C83.0587 59.2003 82.9845 58.8213 83.4184 58.7883C83.8404 58.7559 83.8255 59.1497 83.8963 59.423C84.0921 60.1779 83.9176 60.999 84.3571 61.8517C84.6446 60.9499 84.8973 60.1489 85.156 59.3501C85.2492 59.0623 85.3492 58.747 85.7402 58.7953C86.0653 58.8351 86.1194 59.1449 86.1682 59.3888C86.3285 60.1898 86.4575 60.9972 86.6331 62.0005C87.1766 61.1258 87.1912 60.2783 87.4268 59.506C87.5185 59.2047 87.5159 58.7195 87.9707 58.7983C88.5329 58.8961 88.3126 59.3851 88.2257 59.7124C87.9677 60.6867 87.684 61.655 87.3705 62.6126C87.2586 62.9543 87.1069 63.3991 86.648 63.3578C86.2088 63.318 86.1201 62.8774 86.0318 62.517C85.9002 61.9819 85.7965 61.4401 85.6388 60.7015Z" fill="#747579"/>
<path d="M35.6693 61.8326C36.5347 62.7015 37.3799 62.6055 38.2579 62.0974C38.4872 61.9646 38.7284 61.7374 38.9201 62.0621C39.0688 62.3139 38.8903 62.5501 38.6792 62.7417C37.9649 63.3904 36.434 63.4503 35.6153 62.8514C34.7891 62.247 34.6012 61.0224 35.1615 59.8901C35.6622 58.8784 36.6014 58.4755 37.711 58.7965C38.1345 58.9189 38.4757 59.1596 38.5722 59.5978C38.6863 60.1156 38.372 60.4585 37.9529 60.6824C37.2323 61.0674 36.4944 61.4197 35.6693 61.8326Z" fill="#757679"/>
<path d="M58.9604 61.1589C59.0309 59.3578 60.2876 58.3536 61.8019 58.8029C62.2194 58.9267 62.5553 59.1447 62.6288 59.617C62.7011 60.0815 62.508 60.4218 62.1005 60.6334C61.5361 60.9261 60.9623 61.2013 60.3946 61.4873C60.2015 61.5843 59.9114 61.6405 59.9129 61.8856C59.9148 62.185 60.2067 62.3036 60.4579 62.3739C61.1376 62.5643 61.7907 62.526 62.3753 62.0749C62.5549 61.9362 62.7645 61.7751 62.9606 61.9983C63.1794 62.2471 63.053 62.5111 62.8286 62.674C61.9838 63.2866 61.0623 63.4684 60.0717 63.0604C59.1774 62.6926 58.8866 61.9789 58.9604 61.1589Z" fill="#747579"/>
<path d="M50.8989 60.8323C50.8706 60.376 51.1677 59.6853 50.6256 59.5388C49.994 59.3681 49.7062 60.0424 49.4363 60.5314C49.0787 61.1796 49.0407 61.8862 49.0877 62.6069C49.1048 62.8706 49.1034 63.1841 48.7641 63.2287C48.4144 63.2749 48.3622 62.9773 48.32 62.7077C48.1221 61.4347 48.4472 60.1722 48.4024 58.8992C48.3886 58.5035 48.8554 58.3979 49.0072 58.708C49.2898 59.2852 49.4833 59.1156 49.9016 58.8624C50.8434 58.2919 51.611 58.6745 51.7363 59.7765C51.8455 60.74 51.7531 61.7218 51.9581 62.6836C52.0159 62.9535 51.9399 63.2458 51.6159 63.2946C51.214 63.3548 51.1226 63.0599 51.092 62.7304C51.0324 62.0967 50.9638 61.4645 50.8989 60.8323Z" fill="#757679"/>
<path d="M56.1296 63.3175C55.9182 63.2736 55.5803 63.236 55.266 63.1289C54.9129 63.0084 54.4722 62.8285 54.6691 62.3588C54.8667 61.8884 55.2269 62.2342 55.5266 62.3313C55.7026 62.3882 55.8973 62.4309 56.0789 62.4172C56.4935 62.386 57.0938 62.6083 57.1807 61.9717C57.262 61.3764 56.6982 61.3321 56.2675 61.1971C55.6847 61.0145 54.9278 61.0045 54.9237 60.1113C54.9192 59.2117 55.5736 58.9276 56.2839 58.7038C56.6412 58.5915 56.992 58.4565 57.3537 58.3624C57.6043 58.2973 57.9328 58.2289 58.0338 58.5465C58.1419 58.8871 58.3437 59.2638 58.127 59.6238C57.9454 59.9253 57.6431 59.8975 57.5014 59.6167C57.3049 59.2266 57.0718 59.3174 56.7717 59.4222C56.4189 59.5453 55.9197 59.6026 55.8991 60.0075C55.8757 60.4686 56.4118 60.2994 56.6975 60.4039C57.5386 60.7107 58.2314 61.1596 58.0659 62.177C57.9029 63.1776 57.0748 63.2706 56.1296 63.3175Z" fill="#747579"/>
<path d="M43.0189 60.3877C42.9466 61.1859 43.0044 61.9219 43.3272 62.6196C43.4241 62.8294 43.4976 63.0648 43.2806 63.2259C43.1188 63.346 42.9082 63.2876 42.7717 63.1422C42.504 62.8566 42.2453 63.0161 41.9593 63.1028C40.3361 63.5937 39.3101 62.7833 39.4074 61.0925C39.4551 60.2605 39.8175 59.5821 40.5042 59.1094C41.207 58.6255 41.9668 58.6002 42.7378 58.9524C43.5319 59.315 42.8817 59.9451 43.0189 60.3877Z" fill="#747579"/>
<path d="M82.2312 60.9151C82.2319 62.308 81.4781 63.2796 80.3831 63.2975C79.2922 63.3153 78.5679 62.4798 78.5556 61.1899C78.5418 59.7531 79.4119 58.7313 80.6251 58.7585C81.6388 58.7815 82.2308 59.5765 82.2312 60.9151Z" fill="#737478"/>
<path d="M21.3386 42.5847C21.0645 44.291 21.2509 46.1222 19.9821 47.5586C19.6872 47.5831 19.3919 47.6028 19.0966 47.6433C19.0432 47.64 18.9914 47.6348 18.9377 47.6296C18.8315 47.5857 18.7584 47.5113 18.7147 47.4057C18.6681 47.2354 18.6719 47.0647 18.6957 46.8917C18.8072 45.5179 19.0022 44.1526 19.5335 42.8773C19.9739 41.8219 20.5324 41.7639 21.3386 42.5847Z" fill="#ADADAD"/>
<path d="M67.0741 59.0062C67.0603 59.4625 66.7479 59.5001 66.4422 59.4729C65.7935 59.4145 65.7078 59.7745 65.7298 60.3004C65.763 61.084 65.7596 61.8694 65.7518 62.6537C65.7488 62.9601 65.6884 63.2963 65.2716 63.2577C64.9387 63.2268 64.9089 62.9293 64.904 62.6608C64.8929 62.0631 64.8985 61.4651 64.8798 60.8679C64.8589 60.1974 65.0972 59.3498 63.9143 59.4391C63.7219 59.4536 63.5806 59.2617 63.5922 59.0534C63.6067 58.792 63.8076 58.5986 64.0332 58.651C64.8168 58.8336 64.9044 58.4316 64.8407 57.8143C64.8131 57.5465 64.8876 57.265 65.244 57.2698C65.5236 57.2736 65.6355 57.5305 65.6422 57.7362C65.6627 58.371 65.795 58.8117 66.5928 58.6536C66.8009 58.612 67.0178 58.7715 67.0741 59.0062Z" fill="#76777B"/>
<path d="M44.164 61.0258C44.1629 60.5788 44.1361 60.1296 44.17 59.6852C44.2095 59.1673 44.0753 58.4046 45.0356 59.1055C45.4215 59.387 45.7716 58.7523 46.223 58.7337C46.591 58.7188 46.9645 58.5463 47.2553 58.9077C47.5394 59.2606 47.4961 59.6774 47.4481 60.085C47.4249 60.2821 47.2904 60.4472 47.098 60.4632C46.9817 60.4728 46.8355 60.3646 46.7349 60.2739C46.5008 60.0627 46.8672 59.2736 46.0851 59.5897C45.4614 59.8418 44.9917 60.2334 44.9939 60.9834C44.9954 61.5423 45.0002 62.1012 44.992 62.6597C44.9876 62.9583 44.9961 63.3063 44.5555 63.2799C44.2144 63.2595 44.1748 62.9646 44.1689 62.7013C44.1566 62.1436 44.1651 61.5847 44.164 61.0258Z" fill="#797A7E"/>
<path d="M74.5994 61.0639C74.5994 60.6544 74.5378 60.2327 74.6158 59.8382C74.7023 59.4008 74.3014 58.2053 75.5436 59.1361C75.7125 59.2629 76.2473 58.862 76.6273 58.7601C77.5283 58.518 77.925 58.8252 77.9187 59.7128C77.9165 60.0196 77.9198 60.3796 77.5741 60.457C77.1669 60.5481 77.1043 60.1855 77.0759 59.8824C77.0297 59.3938 76.7574 59.4815 76.4535 59.6188C75.8304 59.9003 75.4093 60.3164 75.4306 61.0601C75.4463 61.6183 75.4373 62.1772 75.4313 62.7358C75.4284 63.0076 75.3881 63.2817 75.0312 63.2839C74.6758 63.2861 74.6195 63.002 74.6117 62.7388C74.5945 62.181 74.6064 61.622 74.6064 61.0635C74.6035 61.0638 74.6016 61.0639 74.5994 61.0639Z" fill="#797A7E"/>
<path d="M33.025 59.8296C33.025 58.8931 33.019 57.9567 33.0284 57.0202C33.0314 56.7287 33.0004 56.3556 33.4375 56.3657C33.7888 56.3739 33.8019 56.6996 33.7993 56.957C33.7788 58.8299 33.7497 60.7028 33.7165 62.5753C33.7109 62.8851 33.6505 63.2306 33.2533 63.2061C32.8598 63.1819 32.8445 62.8275 32.8561 62.5214C32.8907 61.6236 32.9362 60.7262 32.9773 59.8284C32.9929 59.8292 33.009 59.8296 33.025 59.8296Z" fill="#747579"/>
<path d="M21.3389 42.5844C20.1853 42.0426 19.8177 42.2683 19.5302 43.6781C19.2961 44.8265 19.0511 45.9727 18.8106 47.1199C18.4672 47.3368 18.207 47.2382 18.0064 46.9098C17.9039 46.6726 17.8849 46.423 17.9024 46.169C18.1977 44.9559 18.5235 43.748 18.6287 42.4966C18.7021 42.2192 18.7931 41.9481 18.9639 41.712C19.3386 41.368 19.8121 41.6781 20.217 41.5227C20.327 41.5085 20.4366 41.5085 20.5466 41.5163C20.9191 41.6019 21.3325 41.5907 21.5887 41.9522C21.456 42.1434 21.302 42.3263 21.3389 42.5844Z" fill="#CBCBCB"/>
<path d="M22.0278 40.5742C21.8723 40.72 21.7168 40.8658 21.5613 41.0116C20.5028 41.4731 20.4588 40.5284 20.1259 39.9832C20.3306 39.1318 20.7254 38.2991 20.3977 37.3905C20.8634 37.1528 21.2258 37.4909 21.6284 37.6081C21.9487 37.8029 22.3063 37.951 22.5132 38.292C23.2958 39.0891 22.162 39.1969 22.0184 39.6607C21.0692 39.975 21.7284 40.2725 22.0278 40.5742Z" fill="#BBBBBB"/>
<path d="M19.521 50.4626C18.779 50.3514 18.851 51.0304 18.6053 51.4008C18.0576 51.7128 17.5225 51.8006 17.0196 51.3149C18.0307 50.2729 18.0307 50.2729 18.1306 48.8627C18.3178 48.6887 18.546 48.6534 18.7891 48.6671C19.2682 48.7433 19.7141 48.8813 19.9848 49.3317C20.6492 50.0427 19.8125 50.1416 19.521 50.4626Z" fill="#AFAFAF"/>
<path d="M20.1865 39.8804C20.7826 40.0909 20.5959 41.2475 21.5611 41.0121C21.8773 41.3167 21.8922 41.6299 21.5887 41.9527C21.1849 41.9356 20.7838 41.9055 20.4243 41.6912C20.1015 41.2877 20.0373 40.6711 19.4333 40.4974C19.2133 40.2943 19.1008 40.0593 19.3729 39.8384C19.6354 39.6245 19.9262 39.6513 20.1865 39.8804Z" fill="#A8A8A8"/>
<path d="M19.9815 47.7586C20.3155 48.1369 20.7081 48.5151 19.974 48.8862C19.5796 49.151 19.253 48.7765 18.8869 48.7721C18.7072 48.7557 18.5745 48.6802 18.5339 48.4902C18.5372 48.0718 18.6905 47.7374 19.0759 47.5348L19.07 47.5381C19.4111 47.4581 19.7142 47.5348 19.9815 47.7586Z" fill="#B1B1B1"/>
<path d="M22.0275 40.5743C21.9552 40.5702 21.8825 40.5691 21.8105 40.5616C21.3326 40.5137 20.8684 40.2909 21 39.7888C21.1588 39.1841 21.6707 39.7207 22.0179 39.6609C22.3251 39.9621 22.3631 40.2663 22.0275 40.5743Z" fill="#B0B0B0"/>
<path d="M53.3045 60.8795C53.6543 60.9219 53.8359 61.0931 53.8355 61.3866C53.8351 61.6731 53.6763 61.8885 53.3675 61.89C53.0633 61.8918 52.8988 61.6935 52.8861 61.3981C52.8724 61.0856 53.0912 60.961 53.3045 60.8795Z" fill="#7B7C80"/>
<path d="M68.4573 61.0643C68.7589 61.0937 68.9263 61.2714 68.9334 61.5637C68.9405 61.8626 68.763 62.0582 68.4666 62.063C68.1683 62.0679 67.9871 61.8742 67.9868 61.576C67.9864 61.2841 68.1519 61.1034 68.4573 61.0643Z" fill="#7B7C7F"/>
<path d="M22.5126 38.2925C22.1751 38.1426 21.8373 37.9927 21.4999 37.8428C21.4664 37.6196 21.1491 37.4708 21.3281 37.1914C21.4712 37.1907 21.614 37.1896 21.7568 37.1888C22.0062 37.6542 22.4618 37.7773 22.9245 37.8882C22.7873 38.0232 22.6501 38.1578 22.5126 38.2925Z" fill="#CCCCCC"/>
<path d="M48.8296 47.7648C48.8322 48.4387 48.8344 49.1129 48.837 49.7868C48.4748 49.114 48.4856 48.4401 48.8296 47.7648Z" fill="#F8FBEB"/>
<path d="M18.8296 48.6632C19.211 48.7376 19.5928 48.812 19.9741 48.8864C19.9775 49.0347 19.9808 49.1835 19.9842 49.3319C19.5969 49.1828 19.2091 49.0333 18.8214 48.8841C18.7606 48.8328 18.7416 48.783 18.764 48.7346C18.7867 48.687 18.8084 48.6632 18.8296 48.6632Z" fill="#CDCDCD"/>
<path d="M19.9815 47.7588C19.6497 47.8004 19.354 47.6933 19.0699 47.5383C19.3812 47.208 19.6851 47.2218 19.9822 47.5583C19.9856 47.6253 19.9852 47.6922 19.9815 47.7588Z" fill="#C9C9C9"/>
<path d="M9.15262 50.7005C9.65932 51.6645 9.15672 52.7445 9.50123 53.7304C9.55902 53.8955 9.41548 53.9985 9.25926 54.0268C9.07246 54.0603 8.88306 54.0439 8.77903 53.8568C8.65711 53.6381 8.74324 53.3321 8.49269 53.1643C8.4856 52.5399 8.48933 51.9151 8.46696 51.2911C8.44869 50.7912 8.70111 50.6399 9.15262 50.7005Z" fill="#535353"/>
<path d="M10.5018 53.6153C10.0536 52.8235 10.3821 51.9685 10.2997 51.147C10.74 51.9399 10.3974 52.7956 10.5018 53.6153Z" fill="#858483"/>
<path d="M18.381 51.8445C18.8213 52.4005 18.6132 53.0679 18.649 53.6771C18.6893 54.3654 18.0447 53.9284 17.7449 54.0865C17.7449 54.0869 17.6968 54.0363 17.6968 54.0363C17.248 53.3138 17.3065 52.5767 17.6312 51.8311C17.8847 51.6199 18.1353 51.6054 18.381 51.8445Z" fill="#D0CFCC"/>
<path d="M18.3811 51.8445C18.1574 51.8404 17.9336 51.8363 17.7096 51.8326C17.2446 52.0989 16.8118 51.8278 16.3662 51.7549C16.2693 51.708 16.2003 51.634 16.1544 51.5377C16.0504 51.3651 15.9412 51.1914 16.2301 51.0839C16.5198 50.9006 16.789 50.8831 17.0187 51.1814C17.5127 51.5053 18.0854 51.2602 18.6048 51.4008C18.6189 51.5935 18.56 51.7493 18.3811 51.8445Z" fill="#7F7F7F"/>
<path d="M14.1927 54.0632C14.1654 53.8832 14.12 53.704 14.1133 53.5233C14.0335 51.352 14.035 51.352 16.1548 51.5376L16.1358 51.6168C16.6451 52.417 16.4613 53.2254 16.1634 54.0349C15.5065 54.0446 14.8496 54.0539 14.1927 54.0632Z" fill="#D9D9DA"/>
<path d="M16.1636 54.0353C15.9448 53.2317 16.2348 52.4221 16.136 51.617C16.6811 51.5408 17.2037 51.6244 17.7096 51.8323C17.7051 52.5671 17.701 53.302 17.6966 54.0364C17.1855 54.0357 16.6744 54.0353 16.1636 54.0353Z" fill="#F8F7F5"/>
<path d="M18.1679 39.4463C17.9412 39.2239 17.7142 39.0015 17.4875 38.7791C17.131 38.3083 17.313 37.9312 17.6951 37.5887C17.7007 37.5295 17.7138 37.4723 17.7339 37.4165C17.9054 37.0141 18.0844 36.6213 18.6399 36.7069C18.7883 36.7139 18.9371 36.721 19.0854 36.7285C19.4374 36.4588 19.6794 36.7697 19.9571 36.8925C20.0328 36.9765 20.0612 37.0751 20.0492 37.1866C19.9829 37.341 19.8714 37.4473 19.7133 37.5046C18.3517 37.5548 18.3181 37.5995 18.4908 39.135C18.4449 39.3035 18.3349 39.4047 18.1679 39.4463Z" fill="#ECECEC"/>
<path d="M18.6398 36.7076C18.3378 36.9441 18.0358 37.1806 17.7338 37.417C17.4773 37.0095 16.6291 37.0742 16.8353 36.2975C17.6641 35.4409 18.088 36.3537 18.6398 36.7076Z" fill="#D4D4D4"/>
<path d="M13.8823 35.3914C14.0459 35.1098 14.1425 34.8108 14.122 34.481C15.2964 34.764 14.4628 35.3579 14.3338 35.8425C14.1835 35.6922 14.0329 35.542 13.8823 35.3914Z" fill="#979797"/>
<path d="M16.8068 35.6301C16.4355 35.4739 16.0642 35.3173 15.6932 35.1611C15.6101 35.0465 15.4434 34.8427 15.4565 34.8305C15.7271 34.5768 16.0247 34.7349 16.2282 34.8989C16.4635 35.0886 17.2132 34.9309 16.8068 35.6301Z" fill="#CFCFD0"/>
<path d="M19.9743 36.9689C19.6779 36.889 19.3818 36.8091 19.0854 36.7291C19.0809 36.5737 19.0764 36.4183 19.0719 36.2629C19.1517 36.2581 19.2315 36.2536 19.3113 36.2488C19.5339 36.4083 19.7566 36.5681 19.9792 36.7276C20.0373 36.7823 20.056 36.8362 20.0355 36.8894C20.0146 36.9425 19.9941 36.9689 19.9743 36.9689Z" fill="#777777"/>
<path d="M21.3282 37.1914C21.4814 37.3833 21.6194 37.5793 21.5005 37.8426C21.1485 37.6928 20.7973 37.5432 20.4458 37.3937C20.3973 37.3443 20.3738 37.2904 20.3753 37.2316C20.3768 37.1702 20.3839 37.1397 20.3962 37.1394C20.4666 37.0746 20.5475 37.0278 20.6404 37.0018C20.7194 36.9928 20.7981 36.9839 20.8771 36.975C20.9714 37.1632 21.1489 37.1792 21.3282 37.1914Z" fill="#757575"/>
<path d="M20.6402 37.0019C20.5466 37.0778 20.4534 37.1533 20.3598 37.2292C20.2297 37.3047 20.1208 37.2943 20.0451 37.1511C20.0284 37.0878 20.0049 37.0272 19.9743 36.9692C19.9758 36.8888 19.9773 36.8085 19.9788 36.7281C20.1991 36.8197 20.4198 36.9108 20.6402 37.0019Z" fill="#656565"/>
<path d="M16.3775 46.395C14.5462 46.2972 14.1853 46.5095 14.523 43.9747C14.6356 43.129 14.796 42.2718 15.083 41.4729C15.3202 40.8135 15.6486 39.989 16.653 40.7537C16.8719 40.9203 17.2156 40.9244 17.502 41.0036C17.738 40.9515 17.798 41.1092 17.8435 41.2859C18.1455 42.7381 17.5896 44.0766 17.2697 45.4429C17.1631 45.9004 16.7865 46.1808 16.3775 46.395Z" fill="#CCCCCC"/>
<path d="M17.0193 51.1812C16.756 51.1489 16.4932 51.1165 16.2304 51.0838C16.1256 51.0291 16.0205 50.9744 15.9153 50.9198C15.5067 50.6182 14.8934 50.4389 15.1913 49.7148L15.2028 49.6088C15.0265 49.1592 14.9012 48.7211 15.4653 48.4362C15.6756 48.3042 15.8859 48.1726 16.0961 48.0405C15.9604 47.6608 16.0779 47.3347 16.3079 47.0312C16.7639 46.7434 17.2016 46.865 17.6341 47.0903C18.1829 47.4091 18.1277 47.9435 18.1243 48.4597C18.1553 48.5984 18.1799 48.739 18.1765 48.8825C18.7514 50.4352 18.4271 51.0793 17.0193 51.1812Z" fill="#F0F0F0"/>
<path d="M16.3774 46.3949C17.3435 44.879 17.7215 43.227 17.55 41.4414C17.5429 41.3689 17.6887 41.2819 17.7633 41.2016C18.1402 40.9855 18.4679 41.196 18.8068 41.3191C18.9492 41.4046 19.0447 41.524 19.0723 41.691C19.0753 41.9391 19.123 42.2016 18.8519 42.3593C18.346 43.5825 17.8788 44.8124 18.1719 46.1769C18.1715 46.4138 18.1711 46.6504 18.1711 46.8873C17.569 47.2901 17.1194 46.9248 16.6638 46.589C16.5683 46.5247 16.4729 46.4596 16.3774 46.3949Z" fill="#F1F1F1"/>
<path d="M20.0454 37.1505C20.1502 37.1765 20.2553 37.2026 20.3601 37.2286C20.3731 37.2918 20.4015 37.3469 20.4455 37.3937C21.187 38.3082 20.863 39.1127 20.1863 39.8803C19.9276 39.9308 19.5887 39.7538 19.4232 40.0402C19.3039 40.2466 19.5596 40.3016 19.7091 40.3704C20.0227 40.6958 20.0104 41.0157 19.6927 41.3303C19.5879 41.3932 19.4735 41.4289 19.3516 41.4378C18.8363 41.3314 18.3047 41.2567 17.9639 40.7806C17.8841 40.7051 17.8047 40.63 17.7249 40.5545C17.4468 40.1718 17.6705 39.9137 17.9468 39.669C18.0202 39.5946 18.094 39.5206 18.1675 39.4463C18.2491 39.3674 18.3304 39.2882 18.4121 39.2094C18.4452 39.193 18.4777 39.1644 18.5116 39.1621C20.2825 39.0498 20.2825 39.0502 19.7527 37.3956C19.8508 37.3141 19.9481 37.2323 20.0454 37.1505Z" fill="#F5F5F5"/>
<path d="M16.3635 47.0737C16.3896 47.4278 16.2856 47.7458 16.0962 48.0403C15.7043 47.9384 15.3173 47.8101 14.9199 47.7405C14.3841 47.6472 14.2555 47.3114 14.3528 46.8543C14.4773 46.2678 14.8874 46.6698 15.1536 46.6795C15.4795 46.691 15.8013 46.8119 16.1245 46.8852C16.233 46.9123 16.3113 46.9767 16.3635 47.0737Z" fill="#D6D7D9"/>
<path d="M17.9474 39.6691C17.8736 39.9644 17.7994 40.2594 17.7256 40.5547C17.3035 40.4264 16.8799 40.3025 16.4593 40.169C15.9825 40.0176 15.7878 39.6855 15.997 39.2306C16.1991 38.7914 16.5537 39.0056 16.8508 39.1384C17.2215 39.3043 17.5824 39.4913 17.9474 39.6691Z" fill="#D6D7D9"/>
<path d="M15.1914 49.715C15.2119 50.2486 15.7186 50.4919 15.9154 50.9199C15.5478 50.9147 15.1802 50.9136 14.813 50.9036C14.3283 50.8905 14.0826 50.6763 14.0886 50.1538C14.0964 49.4572 14.5774 49.8347 14.8667 49.7756C14.9744 49.7536 15.0829 49.735 15.1914 49.715Z" fill="#D7D8DA"/>
<path d="M17.6951 37.5893C17.5444 37.9719 17.4576 38.3654 17.4874 38.7796C17.2391 38.7171 16.9852 38.6714 16.7443 38.5881C16.3331 38.4457 16.3052 38.1337 16.4364 37.7797C16.5766 37.4027 16.832 37.4261 17.1533 37.5547C17.3133 37.6183 17.5135 37.5808 17.6951 37.5893Z" fill="#D4D5D5"/>
<path d="M15.4655 48.4362C15.2287 48.7936 15.2369 49.2057 15.2034 49.6084C15.1463 49.5612 15.096 49.501 15.0315 49.4679C14.6053 49.2496 13.8413 49.2101 14.2038 48.4719C14.4957 47.8769 15.0333 48.2845 15.4655 48.4362Z" fill="#D4D4D4"/>
<path d="M16.3634 47.0735C16.284 47.0107 16.2042 46.9482 16.1248 46.8853C16.2377 46.666 16.4577 46.6403 16.6635 46.5894C17.1661 46.6886 17.6687 46.7879 18.171 46.8872C18.3298 47.1137 18.5919 47.0579 18.8108 47.12C18.8238 47.2598 18.8369 47.3992 18.8499 47.539C18.4003 47.8834 18.0818 47.4662 17.7127 47.3442C17.2784 47.178 16.8432 47.0151 16.3634 47.0735Z" fill="#707070"/>
<path d="M17.9645 40.7806C18.4052 40.9476 18.8456 41.1147 19.2863 41.2813C19.2702 41.7016 19.0148 41.5543 18.7934 41.4885C18.45 41.3929 18.107 41.2973 17.7636 41.2017C17.6767 41.1355 17.5895 41.0697 17.5022 41.0038C17.5999 40.8134 17.7852 40.8033 17.9645 40.7806Z" fill="#707070"/>
<path d="M11.7848 34.9617C11.7512 35.1968 11.6066 35.346 11.3538 35.375C11.1275 35.4014 10.9851 35.2813 10.9963 35.0625C11.0104 34.7861 11.1215 34.5283 11.4548 34.5529C11.6468 34.567 11.7684 34.7329 11.7848 34.9617Z" fill="#696969"/>
<path d="M8.28357 48.6297C8.01997 48.9856 7.87233 48.768 7.73438 48.5178C7.54385 48.1719 7.49762 47.8216 7.75824 47.4928C7.88985 47.327 8.05838 47.0871 8.28581 47.2068C8.57774 47.3604 8.24964 47.5806 8.26157 47.7762C8.48118 48.0548 8.50429 48.3393 8.28357 48.6297Z" fill="#BEBEBE"/>
<path d="M8.28384 48.6298C8.27638 48.3453 8.2693 48.0604 8.26184 47.7758C8.56605 47.7483 8.90121 47.7167 8.88741 48.1552C8.8766 48.5071 8.63502 48.6607 8.28384 48.6298Z" fill="#656565"/>
<path d="M24.9566 51.6035C24.4384 49.4275 25.7377 47.5814 28.0981 47.3292C26.9438 48.8031 26.5296 50.5142 24.9566 51.6035Z" fill="#FBFCF8"/>
<path d="M43.6715 49.4415C43.5835 48.5906 43.6868 47.8114 44.3922 47.2127C44.8661 46.8107 45.2266 46.8426 45.5816 47.3715C46.3164 48.466 45.8675 50.5679 44.7419 51.2797C44.2844 51.5691 44 51.5029 43.8053 50.9822C43.6159 50.4746 43.6756 49.9547 43.6715 49.4415Z" fill="#FCFDFA"/>
<path d="M70.5389 61.2667C70.5575 60.2979 71.2355 59.6338 72.1193 59.652C72.5812 59.6613 72.8928 59.7271 72.8324 60.3552C72.7247 61.4802 72.1208 62.4088 71.3973 62.3284C70.7435 62.2559 70.5724 61.7702 70.5389 61.2667Z" fill="#FAFAFA"/>
<path d="M37.8588 59.801C37.1314 60.3519 36.4337 60.645 35.6775 60.9351C36.0317 59.474 36.5515 59.1902 37.8588 59.801Z" fill="#F5F5F5"/>
<path d="M59.7012 60.9895C60.1826 59.4253 60.718 59.1583 61.8969 59.8132C61.2828 60.3602 60.5319 60.5997 59.7012 60.9895Z" fill="#F4F4F5"/>
<path d="M42.237 60.6797C42.2598 61.0794 42.2553 61.3416 42.2933 61.5974C42.3686 62.1039 42.0965 62.3508 41.6663 62.4988C41.2402 62.6453 40.8319 62.6014 40.5516 62.2418C40.1516 61.7283 40.168 61.1263 40.3838 60.5495C40.5874 60.0059 40.9613 59.5418 41.5675 59.4849C42.8365 59.3652 41.9026 60.4291 42.237 60.6797Z" fill="#FAFAFA"/>
<path d="M81.5066 61.0705C81.3821 61.8028 81.167 62.4555 80.2884 62.4179C79.5092 62.3845 79.299 61.7697 79.3553 61.1468C79.4235 60.3952 79.6199 59.5762 80.6324 59.645C81.516 59.7053 81.4052 60.4911 81.5066 61.0705Z" fill="#F9F9F9"/>
<path d="M17.7128 47.3446C18.0919 47.4097 18.4707 47.4744 18.8499 47.5395C18.9252 47.538 19.0005 47.5365 19.0759 47.5354C18.8589 47.8232 18.9264 48.2602 18.5792 48.4804C18.4014 48.6693 18.1643 48.6544 17.935 48.6671C17.5935 48.271 18.2142 47.7139 17.7128 47.3446Z" fill="#CACACA"/>
<path d="M18.1723 46.1772C18.1011 46.1612 17.9952 46.1697 17.9635 46.1255C17.4673 45.4323 18.0772 42.8665 18.8522 42.3596C18.9394 43.6877 18.5272 44.9276 18.1723 46.1772Z" fill="#AFAFAF"/>
<path d="M19.5014 41.2665C19.8145 41.0245 19.7564 40.6961 19.7098 40.3707C20.5135 40.5061 20.4486 41.1096 20.4244 41.6912C20.3498 41.6912 20.2756 41.6908 20.2015 41.6901C19.8551 41.734 19.5398 41.728 19.5014 41.2665Z" fill="#C6C6C6"/>
<path d="M19.5014 41.2664C19.7348 41.4078 19.9682 41.5487 20.2012 41.69C19.8258 42.2446 19.4489 41.635 19.0731 41.6912C18.9799 41.6235 18.8871 41.5562 18.7939 41.4885C18.9579 41.4197 19.1223 41.3505 19.2863 41.2817C19.3572 41.2687 19.4291 41.2635 19.5014 41.2664Z" fill="#787878"/>
<path d="M17.9355 48.6669C18.07 48.3291 18.3444 48.4712 18.5801 48.4798C18.6632 48.5411 18.7467 48.6021 18.8299 48.6631C18.8433 48.7375 18.8407 48.8112 18.822 48.8841C18.6069 48.8837 18.3922 48.883 18.1774 48.8826C18.0965 48.8108 18.016 48.739 17.9355 48.6669Z" fill="#767676"/>
<path d="M19.7533 37.3961C20.2868 37.8598 20.716 38.4039 20.1966 39.0829C19.7007 39.7307 19.0352 39.5284 18.4126 39.2097C18.1169 38.669 17.8507 38.0904 18.3007 37.5411C18.6948 37.0596 19.2425 37.1964 19.7533 37.3961Z" fill="#9F9F9F"/>
<path d="M16.8688 50.7095C16.1224 50.5965 15.6851 50.2067 15.6772 49.4458C15.6702 48.7689 16.1161 48.481 16.7044 48.5498C17.4214 48.6335 18.0298 48.9582 17.9512 49.8393C17.8941 50.4845 17.4557 50.7121 16.8688 50.7095Z" fill="#9F9F9F"/>
<path d="M19.4557 38.5035C19.2104 38.7129 18.9602 38.8617 18.7327 38.4901C18.6172 38.3015 18.6929 38.12 18.8539 38.0106C19.223 37.7599 19.3718 38.0497 19.5217 38.3127C19.597 38.4098 19.575 38.4734 19.4557 38.5035Z" fill="#6C6C6C"/>
<path d="M19.4559 38.5035C19.4809 38.441 19.5029 38.3774 19.5219 38.3127C19.6974 38.3351 19.9043 38.331 19.9155 38.5737C19.9226 38.7284 19.8066 38.879 19.6617 38.8384C19.5688 38.8124 19.5226 38.6209 19.4559 38.5035Z" fill="#D2D2D2"/>
<path d="M16.9976 49.518C17.017 49.8207 16.9216 49.981 16.7075 49.9881C16.4663 49.9959 16.2713 49.8758 16.2862 49.5987C16.2963 49.4105 16.388 49.2186 16.5908 49.1907C16.8791 49.1509 16.9257 49.4075 16.9976 49.518Z" fill="#6C6C6C"/>
</svg>
