<svg width="5" height="17" viewBox="0 0 5 17" fill="none" xmlns="http://www.w3.org/2000/svg">
<path fill-rule="evenodd" clip-rule="evenodd" d="M2.6317 4.6416C3.7317 4.6416 4.6317 3.7416 4.6317 2.6416C4.6317 1.5416 3.7317 0.641602 2.6317 0.641602C1.5317 0.641602 0.631699 1.5416 0.631699 2.6416C0.631699 3.7416 1.5317 4.6416 2.6317 4.6416ZM2.6317 6.6416C1.5317 6.6416 0.631699 7.5416 0.631699 8.6416C0.631699 9.7416 1.5317 10.6416 2.6317 10.6416C3.7317 10.6416 4.6317 9.7416 4.6317 8.6416C4.6317 7.5416 3.7317 6.6416 2.6317 6.6416ZM2.6317 12.6416C1.5317 12.6416 0.631699 13.5416 0.631699 14.6416C0.631699 15.7416 1.5317 16.6416 2.6317 16.6416C3.7317 16.6416 4.6317 15.7416 4.6317 14.6416C4.6317 13.5416 3.7317 12.6416 2.6317 12.6416Z" fill="#FF715A"/>
</svg>
