<svg width="36" height="37" viewBox="0 0 36 37" fill="none" xmlns="http://www.w3.org/2000/svg">
<path d="M32.9996 11.0943H2.9996C2.73439 11.0943 2.48003 11.1997 2.2925 11.3872C2.10496 11.5748 1.9996 11.8291 1.9996 12.0943C1.9996 12.3595 2.10496 12.6139 2.2925 12.8014C2.48003 12.989 2.73439 13.0943 2.9996 13.0943H32.9996C33.2648 13.0943 33.5192 12.989 33.7067 12.8014C33.8942 12.6139 33.9996 12.3595 33.9996 12.0943C33.9996 11.8291 33.8942 11.5748 33.7067 11.3872C33.5192 11.1997 33.2648 11.0943 32.9996 11.0943Z" fill="black"/>
<path d="M27.9996 17.0943H7.9996C7.73439 17.0943 7.48003 17.1997 7.2925 17.3872C7.10496 17.5748 6.9996 17.8291 6.9996 18.0943C6.9996 18.3595 7.10496 18.6139 7.2925 18.8014C7.48003 18.989 7.73439 19.0943 7.9996 19.0943H27.9996C28.2648 19.0943 28.5192 18.989 28.7067 18.8014C28.8942 18.6139 28.9996 18.3595 28.9996 18.0943C28.9996 17.8291 28.8942 17.5748 28.7067 17.3872C28.5192 17.1997 28.2648 17.0943 27.9996 17.0943Z" fill="black"/>
<path d="M22.9996 23.0943H12.9996C12.7344 23.0943 12.48 23.1997 12.2925 23.3872C12.105 23.5748 11.9996 23.8291 11.9996 24.0943C11.9996 24.3595 12.105 24.6139 12.2925 24.8014C12.48 24.989 12.7344 25.0943 12.9996 25.0943H22.9996C23.2648 25.0943 23.5192 24.989 23.7067 24.8014C23.8942 24.6139 23.9996 24.3595 23.9996 24.0943C23.9996 23.8291 23.8942 23.5748 23.7067 23.3872C23.5192 23.1997 23.2648 23.0943 22.9996 23.0943Z" fill="black"/>
</svg>
