<svg width="13" height="13" viewBox="0 0 13 13" fill="none" xmlns="http://www.w3.org/2000/svg">
<path d="M11.5514 0.260559H2.21802C1.48269 0.260559 0.884689 0.858559 0.884689 1.59389V10.9272C0.884689 11.6626 1.48269 12.2606 2.21802 12.2606H7.55136C7.63892 12.2607 7.72564 12.2435 7.80653 12.21C7.88742 12.1764 7.96089 12.1273 8.02269 12.0652L12.6894 7.39856C12.7442 7.34173 12.7884 7.27558 12.82 7.20323C12.8294 7.18323 12.8347 7.16256 12.842 7.14123C12.861 7.08544 12.8724 7.02737 12.876 6.96856C12.8774 6.95456 12.8847 6.94123 12.8847 6.92723V1.59389C12.8847 0.858559 12.2867 0.260559 11.5514 0.260559ZM2.21802 1.59389H11.5514V6.26056H7.55136C7.37455 6.26056 7.20498 6.3308 7.07995 6.45582C6.95493 6.58085 6.88469 6.75041 6.88469 6.92723V10.9272H2.21802V1.59389ZM8.21802 9.98456V7.59389H10.6087L8.21802 9.98456Z" fill="black"/>
</svg>
