<svg width="24" height="25" viewBox="0 0 24 25" fill="none" xmlns="http://www.w3.org/2000/svg">
<g clip-path="url(#clip0)">
<path d="M12 22.9161C12.4199 22.9064 12.8229 22.7485 13.1377 22.4703C13.4525 22.1922 13.6587 21.8116 13.72 21.3961H10.2133C10.2763 21.8229 10.4922 22.2124 10.8209 22.492C11.1495 22.7716 11.5685 22.9223 12 22.9161Z" fill="#261739"/>
<path d="M21.6733 18.6161C21.0305 18.043 20.4676 17.386 20 16.6627C19.4895 15.6644 19.1835 14.5742 19.1 13.4561V10.1627C19.0973 9.7627 19.0616 9.36357 18.9933 8.9694C18.4686 8.86451 17.9643 8.6754 17.5 8.4094C17.677 8.97929 17.7669 9.57265 17.7667 10.1694V13.4627C17.8484 14.8267 18.2236 16.157 18.8667 17.3627C19.3269 18.0921 19.8731 18.7635 20.4933 19.3627H3.41999C4.04026 18.7635 4.58639 18.0921 5.04666 17.3627C5.68973 16.157 6.06495 14.8267 6.14666 13.4627V10.1627C6.14315 9.39119 6.29186 8.62653 6.58429 7.91254C6.87671 7.19856 7.3071 6.54926 7.8508 6.00184C8.39451 5.45442 9.04086 5.01962 9.75284 4.72234C10.4648 4.42506 11.2284 4.27114 12 4.2694C13.1292 4.2703 14.233 4.60423 15.1733 5.2294C15.0697 4.84872 15.0115 4.4571 15 4.06273V3.64273C14.3039 3.3003 13.5561 3.07506 12.7867 2.97606V2.13606C12.7867 1.90002 12.6929 1.67365 12.526 1.50674C12.3591 1.33983 12.1327 1.24606 11.8967 1.24606C11.6606 1.24606 11.4342 1.33983 11.2673 1.50674C11.1004 1.67365 11.0067 1.90002 11.0067 2.13606V3.0094C9.2838 3.25243 7.70704 4.11056 6.56747 5.42535C5.4279 6.74014 4.80248 8.42282 4.80666 10.1627V13.4561C4.72316 14.5742 4.41718 15.6644 3.90666 16.6627C3.44725 17.3843 2.89346 18.0412 2.25999 18.6161C2.18888 18.6785 2.13189 18.7554 2.0928 18.8416C2.05372 18.9279 2.03345 19.0214 2.03333 19.1161V20.0227C2.03333 20.1995 2.10356 20.3691 2.22859 20.4941C2.35361 20.6192 2.52318 20.6894 2.69999 20.6894H21.2333C21.4101 20.6894 21.5797 20.6192 21.7047 20.4941C21.8298 20.3691 21.9 20.1995 21.9 20.0227V19.1161C21.8999 19.0214 21.8796 18.9279 21.8405 18.8416C21.8014 18.7554 21.7444 18.6785 21.6733 18.6161Z" fill="#261739"/>
<path d="M20 7.39604C21.841 7.39604 23.3334 5.90365 23.3334 4.0627C23.3334 2.22175 21.841 0.72937 20 0.72937C18.1591 0.72937 16.6667 2.22175 16.6667 4.0627C16.6667 5.90365 18.1591 7.39604 20 7.39604Z" fill="#FFC30A"/>
</g>
<defs>
<clipPath id="clip0">
<rect width="24" height="24" fill="white" transform="translate(0 0.0627136)"/>
</clipPath>
</defs>
</svg>
