<svg width="25" height="24" viewBox="0 0 25 24" fill="none" xmlns="http://www.w3.org/2000/svg">
<g clip-path="url(#clip0)">
<path d="M15.6182 12.2506H8.90186V11.4266L10.8838 9.55811L11.3818 10.0277L9.72876 11.5863H14.7913L13.1382 10.0277L13.6364 9.55811L15.6182 11.4266V12.2506Z" fill="#ADF3FF"/>
<path d="M22.3813 9.7709H15.665V8.94688L17.647 7.07837L18.1452 7.54796L16.4919 9.10657H21.5544L19.9014 7.54796L20.3996 7.07837L22.3813 8.94688V9.7709Z" fill="#ADF3FF"/>
<path d="M22.3813 9.7709H15.665V8.94688L17.647 7.07837L18.1452 7.54796L16.4919 9.10657H21.5544L19.9014 7.54796L20.3996 7.07837L22.3813 8.94688V9.7709Z" stroke="#495D85"/>
<path d="M8.85498 6.93679H2.13867V6.11277L4.12061 4.24426L4.61865 4.71385L2.96558 6.27246H8.02808L6.375 4.71385L6.87305 4.24426L8.85498 6.11277V6.93679Z" fill="#ADF3FF"/>
<path d="M12.26 6.27246C11.0299 6.27246 10.0291 7.21612 10.0291 8.37593C10.0291 9.53575 11.0299 10.4794 12.26 10.4794C13.4901 10.4794 14.491 9.53575 14.491 8.37593C14.491 7.21612 13.4901 6.27246 12.26 6.27246Z" fill="#2BBDC4"/>
<path d="M19.0232 3.7926C17.7931 3.7926 16.7922 4.73627 16.7922 5.89608C16.7922 7.05589 17.7931 7.99955 19.0232 7.99955C20.2533 7.99955 21.2541 7.05589 21.2541 5.89608C21.2541 4.73627 20.2533 3.7926 19.0232 3.7926Z" fill="#2BBDC4"/>
<path d="M5.49683 0.958496C4.26672 0.958496 3.26587 1.90216 3.26587 3.06197C3.26587 4.22178 4.26672 5.16544 5.49683 5.16544C6.72693 5.16544 7.72778 4.22178 7.72778 3.06197C7.72778 1.90216 6.72693 0.958496 5.49683 0.958496Z" fill="#2BBDC4"/>
<path d="M10.3813 20.4429H11.1328V21.1072H10.3813V20.4429Z" fill="#72E9CD"/>
<path d="M11.8843 20.4429H12.6357V21.1072H11.8843V20.4429Z" fill="#72E9CD"/>
<path d="M13.3872 20.4429H14.1387V21.1072H13.3872V20.4429Z" fill="#72E9CD"/>
<path d="M20.5027 19.3801V13.6677H21.6299V12.8437L19.0232 10.3861L16.4165 12.8437V13.6677H17.5437V18.6495H18.2483V13.0034H17.2434L19.0232 11.3253L20.803 13.0034H19.7981V19.3801H13.7395V16.1476H14.8667V15.3235L12.26 12.866L9.65332 15.3235V16.1476H10.7805V19.3801H4.72192V10.1693H3.71704L5.49683 8.49123L7.27661 10.1693H6.27173V18.6495H6.97632V10.8336H8.10352L8.10333 10.0096L5.49683 7.55188L2.89014 10.0096V10.8336H4.01733V19.3801H0.26001V22.17H24.26V19.3801H20.5027ZM10.4802 15.4832L12.26 13.8052L14.0398 15.4832H13.0349V19.3801H11.4851V15.4832H10.4802ZM23.5554 21.5057H0.9646V20.0444H23.5554V21.5057Z" fill="#495D85"/>
</g>
<defs>
<clipPath id="clip0">
<rect width="24" height="22.6286" fill="white" transform="translate(0.26001 0.958496)"/>
</clipPath>
</defs>
</svg>
