<svg width="25" height="25" viewBox="0 0 25 25" fill="none" xmlns="http://www.w3.org/2000/svg">
<g clip-path="url(#clip0)">
<path d="M6.19097 11.0137L9.00347 15.885C7.72667 16.6222 6.24297 17.4787 4.94402 18.2287C3.59874 19.0055 1.87883 18.5448 1.1021 17.1993C0.330125 15.8632 0.777818 14.1387 2.13152 13.3574L6.19097 11.0137Z" fill="#2BBDC4"/>
<path d="M19.4496 12.5852C19.8054 13.201 19.3718 13.9735 18.6606 13.9909L18.1333 14.0945L18.1216 14.035L12.0873 3.58319L12.048 3.55224L12.3854 3.12231C12.7562 2.51495 13.6417 2.52521 13.9975 3.14154C23.3628 19.3618 11.5477 -1.10193 19.4496 12.5852Z" fill="#2BBDC4"/>
<path d="M9.95782 21.2884C10.3464 21.9606 10.1158 22.8207 9.44311 23.2092C8.77148 23.5978 7.90979 23.3665 7.52215 22.6947L4.94403 18.2288L7.3797 16.8225C7.40203 16.8613 9.95397 21.2817 9.95782 21.2884Z" fill="#495D85"/>
<path d="M17.9647 6.26245L18.9022 7.88623L17.7471 9.63562L15.8721 6.38806L17.9647 6.26245Z" fill="#E9EEF0"/>
<path d="M18.1216 14.035L18.1333 14.0945L9.00348 15.8851L6.19098 11.0138L12.048 3.55225L12.0873 3.58319L18.1216 14.035Z" fill="#ADF3FF"/>
<path d="M6.67657 15.6048C6.90069 15.4755 6.97742 15.1885 6.84814 14.9644C6.71869 14.7405 6.43195 14.6636 6.20783 14.7929C5.98371 14.9223 5.9068 15.2092 6.03626 15.4332C6.16553 15.6573 6.45245 15.7342 6.67657 15.6048Z" fill="black"/>
<path d="M4.75561 18.84L7.1162 22.9289C7.6256 23.8122 8.77148 24.1392 9.67767 23.6154C10.5743 23.0972 10.8825 21.9515 10.3638 21.0541L8.95751 18.618L10.1753 17.9149C10.3995 17.7853 10.4764 17.4987 10.3469 17.2746L9.73736 16.2188C9.81005 16.2047 10.288 16.111 18.7158 14.4577C19.7576 14.4011 20.3818 13.2617 19.8556 12.3507L18.2977 9.65247L19.2933 8.14459C19.391 7.99628 19.3969 7.80566 19.3081 7.65186L18.3706 6.02808C18.2818 5.87427 18.1132 5.78418 17.9365 5.79462L16.133 5.90283L14.4036 2.90723C14.1531 2.47327 13.7043 2.21051 13.2034 2.20428C13.1973 2.2041 13.1915 2.2041 13.1854 2.2041C12.7013 2.2041 12.2618 2.44507 12.0015 2.85248L5.87804 10.6531L1.89715 12.9515C0.331413 13.8551 -0.210945 15.8638 0.696159 17.4337C1.52489 18.8693 3.27209 19.434 4.75561 18.84ZM9.55206 21.523C9.81097 21.9709 9.65771 22.544 9.20855 22.8035C8.75793 23.064 8.18407 22.904 7.92809 22.4603L5.58434 18.4003L7.20812 17.4628C9.92065 22.1617 9.50848 21.4478 9.55206 21.523ZM8.48876 17.806L8.02001 16.9941L8.8319 16.5253L9.30065 17.3372L8.48876 17.806ZM17.7035 6.74768L18.3514 7.86975L17.7737 8.74463L16.6571 6.81049L17.7035 6.74768ZM12.7855 3.36646C12.9113 3.16064 13.1109 3.1394 13.1918 3.1416C13.2718 3.14252 13.4712 3.16742 13.5915 3.37579L19.0437 12.8195C19.2213 13.1269 19.0054 13.5134 18.6493 13.5222C18.5854 13.5237 18.5559 13.5352 18.3922 13.5658L12.6249 3.57648C12.746 3.42084 12.7615 3.40582 12.7855 3.36646ZM12.0011 4.37115L17.4197 13.7566L9.24187 15.3606L6.7553 11.0538L12.0011 4.37115ZM1.50805 16.965C1.30224 16.6088 1.19347 16.2045 1.19347 15.7955C1.19347 14.9594 1.64281 14.1808 2.3659 13.7634L6.0194 11.654L8.36315 15.7134L4.70965 17.823C3.59032 18.469 2.15423 18.0841 1.50805 16.965Z" fill="black"/>
<path d="M5.22437 15.9019C5.09491 15.6778 4.80817 15.6009 4.58405 15.7303L3.77216 16.1991C3.5484 16.3284 3.26111 16.2513 3.13184 16.0275C3.00238 15.8034 2.71564 15.7265 2.49152 15.856C2.2674 15.9854 2.19049 16.2722 2.31995 16.4963C2.70575 17.1646 3.56635 17.4003 4.24091 17.011L5.0528 16.5422C5.27692 16.4128 5.35382 16.1262 5.22437 15.9019Z" fill="black"/>
<path d="M23.5596 3.20689L20.9476 4.66038C20.7215 4.78635 20.64 5.07182 20.766 5.29795C20.8916 5.5239 21.1769 5.60575 21.4036 5.47959L24.0154 4.0261C24.2417 3.90012 24.323 3.61466 24.197 3.38853C24.0712 3.16221 23.7858 3.08091 23.5596 3.20689Z" fill="black"/>
<path d="M23.2857 8.06175L21.4746 7.57652C21.2245 7.50951 20.9674 7.65782 20.9004 7.90795C20.8333 8.15807 20.9818 8.41497 21.232 8.48198L23.0433 8.96721C23.2948 9.03478 23.5506 8.88408 23.6173 8.63579C23.6843 8.38567 23.5358 8.12859 23.2857 8.06175Z" fill="black"/>
<path d="M18.7344 1.50377L18.2486 3.31505C18.1816 3.56517 18.3299 3.82207 18.5801 3.88927C18.83 3.9561 19.0871 3.80815 19.1543 3.55785L19.6399 1.74657C19.7069 1.49645 19.5586 1.23937 19.3084 1.17235C19.0585 1.10533 18.8014 1.25365 18.7344 1.50377Z" fill="black"/>
</g>
<defs>
<clipPath id="clip0">
<rect width="24" height="24" fill="white" transform="translate(0.256348 0.5)"/>
</clipPath>
</defs>
</svg>
