<svg width="19" height="25" viewBox="0 0 19 25" fill="none" xmlns="http://www.w3.org/2000/svg">
<path d="M13.9635 7.98066C11.671 7.98066 10.0057 6.55683 10.0057 4.26427C10.0057 3.3443 10.3055 2.49464 10.812 1.80652H3.55303L0.405518 4.95408V23.4036C0.405518 23.7956 0.723236 24.1133 1.11521 24.1133H14.4537C14.8457 24.1133 15.1634 23.7955 15.1634 23.4036V7.80384C14.7834 7.91836 14.3808 7.98066 13.9635 7.98066Z" fill="#DFEBFA"/>
<path d="M1.97925 3.38025L0.405518 4.95403V23.4036C0.405518 23.7955 0.723237 24.1133 1.11521 24.1133H1.9793V3.38025H1.97925Z" fill="#B1DBFC"/>
<path d="M0.405518 4.95408H2.84339C3.23536 4.95408 3.55308 4.63636 3.55308 4.24439V1.80652L0.405518 4.95408Z" fill="#DFEBFA"/>
<path d="M0.405518 4.95408H2.84339C3.23536 4.95408 3.55308 4.63636 3.55308 4.24439V1.80652L0.405518 4.95408Z" fill="#B1DBFC"/>
<path d="M0.405518 4.95408H1.97925L3.55303 3.3803V1.80652L0.405518 4.95408Z" fill="#8BCAFF"/>
<path d="M13.9635 8.41522C16.256 8.41522 18.1145 6.55677 18.1145 4.26425C18.1145 1.97173 16.256 0.113281 13.9635 0.113281C11.671 0.113281 9.81256 1.97173 9.81256 4.26425C9.81256 6.55677 11.671 8.41522 13.9635 8.41522Z" fill="#FF656F"/>
<path d="M11.7671 4.26425C11.7671 2.30848 13.1201 0.669641 14.9408 0.230094C14.6273 0.154391 14.3003 0.113281 13.9635 0.113281C11.671 0.113281 9.81256 1.97173 9.81256 4.26425C9.81256 6.55677 11.671 8.41522 13.9635 8.41522C14.3003 8.41522 14.6273 8.37411 14.9408 8.29841C13.1201 7.85886 11.7671 6.22002 11.7671 4.26425Z" fill="#FF4756"/>
<path d="M3.17248 10.5529L2.43354 9.814C2.16823 9.54869 2.16823 9.11852 2.43354 8.85316C2.69885 8.5878 3.12907 8.5878 3.39438 8.85316L3.65295 9.11168L4.28374 8.48088C4.54905 8.21552 4.97927 8.21552 5.24458 8.48088C5.50989 8.74619 5.50989 9.17636 5.24458 9.44172L4.13337 10.5529C3.86805 10.8183 3.43779 10.8183 3.17248 10.5529Z" fill="#43CB8E"/>
<path d="M3.17248 14.1434L2.43354 13.4045C2.16823 13.1391 2.16823 12.709 2.43354 12.4436C2.69885 12.1783 3.12907 12.1783 3.39438 12.4436L3.65295 12.7021L4.28374 12.0713C4.54905 11.806 4.97927 11.806 5.24458 12.0713C5.50989 12.3366 5.50989 12.7668 5.24458 13.0322L4.13332 14.1434C3.86805 14.4087 3.43779 14.4087 3.17248 14.1434Z" fill="#43CB8E"/>
<path d="M3.17248 17.734L2.43354 16.995C2.16823 16.7297 2.16823 16.2996 2.43354 16.0342C2.69885 15.7688 3.12907 15.7688 3.39438 16.0342L3.65295 16.2927L4.28374 15.6619C4.54905 15.3966 4.97927 15.3966 5.24458 15.6619C5.50989 15.9272 5.50989 16.3574 5.24458 16.6228L4.13337 17.734C3.86805 17.9993 3.43779 17.9993 3.17248 17.734Z" fill="#43CB8E"/>
<path d="M12.883 8.80212H7.41608C7.1668 8.80212 6.96472 9.0042 6.96472 9.25348V9.78017C6.96472 10.0295 7.1668 10.2315 7.41608 10.2315H12.883C13.1323 10.2315 13.3344 10.0295 13.3344 9.78017V9.25348C13.3344 9.0042 13.1323 8.80212 12.883 8.80212Z" fill="#8479C2"/>
<path d="M12.883 12.3927H7.41608C7.1668 12.3927 6.96472 12.5948 6.96472 12.8441V13.3707C6.96472 13.62 7.1668 13.8221 7.41608 13.8221H12.883C13.1323 13.8221 13.3344 13.62 13.3344 13.3707V12.8441C13.3344 12.5948 13.1323 12.3927 12.883 12.3927Z" fill="#8479C2"/>
<path d="M12.883 15.9833H7.41608C7.1668 15.9833 6.96472 16.1854 6.96472 16.4346V16.9613C6.96472 17.2106 7.1668 17.4127 7.41608 17.4127H12.883C13.1323 17.4127 13.3344 17.2106 13.3344 16.9613V16.4346C13.3344 16.1854 13.1323 15.9833 12.883 15.9833Z" fill="#8479C2"/>
<path d="M3.17248 21.3245L2.43354 20.5856C2.16823 20.3203 2.16823 19.8901 2.43354 19.6248C2.69885 19.3594 3.12907 19.3594 3.39438 19.6248L3.65295 19.8833L4.28374 19.2525C4.54905 18.9871 4.97927 18.9871 5.24458 19.2525C5.50989 19.5178 5.50989 19.948 5.24458 20.2133L4.13337 21.3245C3.86805 21.5899 3.43779 21.5899 3.17248 21.3245Z" fill="#43CB8E"/>
<path d="M12.883 19.5737H7.41608C7.1668 19.5737 6.96472 19.7758 6.96472 20.0251V20.5518C6.96472 20.8011 7.1668 21.0031 7.41608 21.0031H12.883C13.1323 21.0031 13.3344 20.8011 13.3344 20.5518V20.0251C13.3344 19.7758 13.1323 19.5737 12.883 19.5737Z" fill="#8479C2"/>
<path d="M9.46874 9.78017V9.25348C9.46874 9.0042 9.67082 8.80212 9.9201 8.80212H7.41608C7.1668 8.80212 6.96472 9.0042 6.96472 9.25348V9.78017C6.96472 10.0295 7.1668 10.2315 7.41608 10.2315H9.9201C9.67082 10.2315 9.46874 10.0295 9.46874 9.78017Z" fill="#6E60B8"/>
<path d="M9.46874 13.3707V12.8441C9.46874 12.5948 9.67082 12.3927 9.9201 12.3927H7.41608C7.1668 12.3927 6.96472 12.5948 6.96472 12.8441V13.3707C6.96472 13.62 7.1668 13.8221 7.41608 13.8221H9.9201C9.67082 13.8221 9.46874 13.62 9.46874 13.3707Z" fill="#6E60B8"/>
<path d="M9.46874 16.9613V16.4346C9.46874 16.1854 9.67082 15.9833 9.9201 15.9833H7.41608C7.1668 15.9833 6.96472 16.1854 6.96472 16.4346V16.9613C6.96472 17.2106 7.1668 17.4127 7.41608 17.4127H9.9201C9.67082 17.4126 9.46874 17.2106 9.46874 16.9613Z" fill="#6E60B8"/>
<path d="M9.46874 20.5518V20.0251C9.46874 19.7758 9.67082 19.5737 9.9201 19.5737H7.41608C7.1668 19.5737 6.96472 19.7758 6.96472 20.0251V20.5518C6.96472 20.8011 7.1668 21.0031 7.41608 21.0031H9.9201C9.67082 21.0031 9.46874 20.8011 9.46874 20.5518Z" fill="#6E60B8"/>
<path d="M13.9802 2.69673C13.9192 2.57758 13.7956 2.49962 13.6578 2.49939C13.5186 2.49939 13.3947 2.57964 13.3349 2.69673L11.5747 6.14716C11.4838 6.32533 11.5546 6.54348 11.7327 6.63437C11.911 6.72522 12.129 6.65453 12.2199 6.47631L12.7633 5.41108H14.5516L15.095 6.47631C15.186 6.65467 15.4043 6.72512 15.5823 6.63437C15.7604 6.54348 15.8312 6.32537 15.7403 6.14716L13.9802 2.69673ZM13.1329 4.68676L13.6575 3.65837L14.1822 4.68676H13.1329Z" fill="#DFEBFA"/>
<path d="M16.0297 1.96871H15.6983V1.6373C15.6983 1.43729 15.5361 1.27515 15.3361 1.27515C15.1361 1.27515 14.974 1.43729 14.974 1.6373V1.96871H14.6426C14.4425 1.96871 14.2804 2.13085 14.2804 2.33086C14.2804 2.53088 14.4425 2.69302 14.6426 2.69302H14.974V3.02443C14.974 3.22444 15.1361 3.38658 15.3361 3.38658C15.5361 3.38658 15.6983 3.22444 15.6983 3.02443V2.69302H16.0297C16.2297 2.69302 16.3918 2.53088 16.3918 2.33086C16.3918 2.13085 16.2297 1.96871 16.0297 1.96871Z" fill="#DFEBFA"/>
</svg>
