<svg width="9" height="10" viewBox="0 0 9 10" fill="none" xmlns="http://www.w3.org/2000/svg">
<path d="M2.625 4.2522C2.625 4.15949 2.65249 4.06886 2.704 3.99177C2.75551 3.91469 2.82872 3.85461 2.91437 3.81913C3.00002 3.78365 3.09427 3.77437 3.1852 3.79245C3.27613 3.81054 3.35965 3.85519 3.42521 3.92074C3.49076 3.9863 3.53541 4.06982 3.55349 4.16075C3.57158 4.25168 3.5623 4.34593 3.52682 4.43158C3.49134 4.51723 3.43126 4.59044 3.35418 4.64195C3.27709 4.69346 3.18646 4.72095 3.09375 4.72095C2.96943 4.72095 2.8502 4.67156 2.7623 4.58365C2.67439 4.49575 2.625 4.37652 2.625 4.2522ZM5.90625 4.72095C5.99896 4.72095 6.08959 4.69346 6.16668 4.64195C6.24376 4.59044 6.30384 4.51723 6.33932 4.43158C6.3748 4.34593 6.38408 4.25168 6.36599 4.16075C6.34791 4.06982 6.30326 3.9863 6.23771 3.92074C6.17215 3.85519 6.08863 3.81054 5.9977 3.79245C5.90677 3.77437 5.81252 3.78365 5.72687 3.81913C5.64122 3.85461 5.56801 3.91469 5.5165 3.99177C5.46499 4.06886 5.4375 4.15949 5.4375 4.2522C5.4375 4.37652 5.48689 4.49575 5.5748 4.58365C5.6627 4.67156 5.78193 4.72095 5.90625 4.72095ZM8.5625 5.03345C8.5625 5.83693 8.32424 6.62238 7.87785 7.29045C7.43145 7.95853 6.79698 8.47923 6.05465 8.78671C5.31233 9.09419 4.4955 9.17464 3.70745 9.01789C2.9194 8.86113 2.19553 8.47422 1.62738 7.90607C1.05923 7.33792 0.672314 6.61405 0.515562 5.826C0.358809 5.03795 0.43926 4.22112 0.746741 3.4788C1.05422 2.73647 1.57492 2.102 2.243 1.6556C2.91107 1.20921 3.69652 0.970947 4.5 0.970947C5.57707 0.972167 6.60967 1.40057 7.37128 2.16217C8.13288 2.92378 8.56128 3.95638 8.5625 5.03345ZM7.9375 5.03345C7.9375 4.35357 7.7359 3.68897 7.35818 3.12367C6.98046 2.55838 6.4436 2.11779 5.81548 1.85761C5.18736 1.59744 4.49619 1.52936 3.82938 1.662C3.16257 1.79463 2.55007 2.12202 2.06932 2.60277C1.58858 3.08351 1.26119 3.69601 1.12855 4.36282C0.995916 5.02963 1.06399 5.7208 1.32417 6.34892C1.58434 6.97704 2.02494 7.51391 2.59023 7.89162C3.15552 8.26934 3.82013 8.47095 4.5 8.47095C5.41137 8.46991 6.28511 8.10742 6.92954 7.46299C7.57397 6.81855 7.93647 5.94481 7.9375 5.03345ZM6.0468 6.29911C5.80946 6.06201 5.52078 5.88265 5.20308 5.77488C4.88538 5.66711 4.54715 5.63382 4.21454 5.67758C3.88192 5.72134 3.56382 5.84098 3.2848 6.02726C3.00579 6.21354 2.77333 6.46146 2.60539 6.75188C2.58484 6.78741 2.57149 6.82663 2.56609 6.86731C2.5607 6.90799 2.56337 6.94934 2.57395 6.98899C2.58454 7.02864 2.60283 7.06581 2.62778 7.0984C2.65273 7.13098 2.68386 7.15832 2.71938 7.17888C2.7549 7.19943 2.79412 7.21278 2.8348 7.21818C2.87548 7.22357 2.91683 7.2209 2.95648 7.21032C2.99613 7.19973 3.03331 7.18144 3.06589 7.15649C3.09847 7.13154 3.12582 7.10041 3.14637 7.06489C3.31691 6.77029 3.57856 6.53908 3.89192 6.4061C4.17832 6.28496 4.49438 6.25212 4.79957 6.3118C5.10476 6.37148 5.38517 6.52096 5.60485 6.74106C5.70153 6.83772 5.78518 6.94658 5.85367 7.06489C5.89518 7.13664 5.96348 7.18895 6.04355 7.21034C6.12363 7.23172 6.20892 7.22042 6.28067 7.17892C6.35241 7.13741 6.40473 7.06911 6.42611 6.98904C6.44749 6.90896 6.43619 6.82367 6.39469 6.75192C6.29892 6.58649 6.18197 6.43427 6.0468 6.29911Z" fill="#FF5A79"/>
</svg>
