<svg width="9" height="10" viewBox="0 0 9 10" fill="none" xmlns="http://www.w3.org/2000/svg">
<path fill-rule="evenodd" clip-rule="evenodd" d="M2.06924 1.396C2.54681 1.0712 3.08395 0.844174 3.64969 0.728014C4.21544 0.611853 4.79858 0.608858 5.36549 0.7192C5.93239 0.829542 6.47184 1.05104 6.95272 1.37091C7.43359 1.69078 7.84637 2.1027 8.16725 2.5829C8.48813 3.06311 8.71075 3.60209 8.82228 4.16877C8.93381 4.73544 8.93203 5.31859 8.81706 5.88457C8.70208 6.45056 8.47618 6.98818 8.15238 7.46642C7.82859 7.94466 7.41331 8.35406 6.93049 8.67099C5.96577 9.31572 4.78444 9.5508 3.64639 9.32453C2.50834 9.09825 1.50678 8.42916 0.862057 7.46443C0.217332 6.49971 -0.017751 5.31838 0.208523 4.18033C0.434798 3.04227 1.10389 2.04072 2.06862 1.396H2.06924ZM2.41674 8.15162C2.82616 8.42825 3.28621 8.62125 3.77045 8.71951C4.25469 8.81778 4.75358 8.81938 5.23844 8.72422C5.7233 8.62905 6.18458 8.43901 6.59576 8.165C7.00693 7.891 7.35991 7.53843 7.63439 7.12757C7.90887 6.71671 8.09945 6.25566 8.19518 5.77091C8.2909 5.28616 8.28988 4.78727 8.19218 4.30291C8.09448 3.81856 7.90202 3.35828 7.62586 2.94855C7.3497 2.53881 6.99529 2.18769 6.58299 1.91537C5.75596 1.36911 4.7463 1.17247 3.77471 1.36846C2.80313 1.56445 1.94865 2.13711 1.39805 2.96127C0.847459 3.78542 0.645537 4.79404 0.836425 5.76664C1.02731 6.73924 1.59549 7.59671 2.41674 8.15162ZM3.56237 4.40849C3.56237 4.57426 3.49652 4.73323 3.37931 4.85044C3.2621 4.96765 3.10313 5.03349 2.93737 5.03349C2.77161 5.03349 2.61264 4.96765 2.49543 4.85044C2.37822 4.73323 2.31237 4.57426 2.31237 4.40849C2.31237 4.24273 2.37822 4.08376 2.49543 3.96655C2.61264 3.84934 2.77161 3.78349 2.93737 3.78349C3.10313 3.78349 3.2621 3.84934 3.37931 3.96655C3.49652 4.08376 3.56237 4.24273 3.56237 4.40849ZM6.68737 4.40849C6.68737 4.57426 6.62152 4.73323 6.50431 4.85044C6.3871 4.96765 6.22813 5.03349 6.06237 5.03349C5.89661 5.03349 5.73764 4.96765 5.62043 4.85044C5.50322 4.73323 5.43737 4.57426 5.43737 4.40849C5.43737 4.24273 5.50322 4.08376 5.62043 3.96655C5.73764 3.84934 5.89661 3.78349 6.06237 3.78349C6.22813 3.78349 6.3871 3.84934 6.50431 3.96655C6.62152 4.08376 6.68737 4.24273 6.68737 4.40849ZM4.49987 6.90849C4.16025 6.90933 3.82678 6.8179 3.53507 6.64397C3.24336 6.47005 3.00437 6.22016 2.84362 5.92099L2.29987 6.22099C2.51871 6.62597 2.84512 6.96267 3.24311 7.19397C3.64111 7.42527 4.09524 7.54219 4.55545 7.53185C5.01566 7.52151 5.46408 7.3843 5.85128 7.13536C6.23849 6.88641 6.54944 6.5354 6.74987 6.12099L6.18737 5.85225C6.03363 6.16898 5.79382 6.43603 5.49538 6.62283C5.19695 6.80963 4.85195 6.90863 4.49987 6.90849Z" fill="#2CB9B0"/>
</svg>
