<svg width="29" height="22" viewBox="0 0 29 22" fill="none" xmlns="http://www.w3.org/2000/svg">
<path d="M19.5321 13.063H20.0321V13.563V16.1133L27.2104 11.0259L20.0321 5.93864V8.48899V8.98899H19.5321H17.2358V13.063H19.5321Z" fill="black" stroke="black"/>
<path d="M4.01476 14.4657C5.91096 14.4657 7.45444 12.9222 7.45444 11.0259C7.45444 9.12972 5.91096 7.5862 4.01476 7.5862C2.11855 7.5862 0.575073 9.12972 0.575073 11.0259C0.575073 12.9222 2.11855 14.4657 4.01476 14.4657Z" stroke="black"/>
<path d="M4.28473 18.0484V21.2904C9.87042 21.2036 14.3885 16.632 14.3885 11.026C14.3885 5.41992 9.87048 0.848331 4.28473 0.761503V4.00348C8.08384 4.08981 11.1471 7.20638 11.1471 11.026C11.1471 14.8455 8.08391 17.9621 4.28473 18.0484Z" stroke="black"/>
</svg>
