<svg width="31" height="31" viewBox="0 0 31 31" fill="none" xmlns="http://www.w3.org/2000/svg">
<rect x="0.630005" y="0.281494" width="30" height="30" rx="2" fill="#9188E5" fill-opacity="0.5"/>
<path d="M11.5828 18.3115L13.2828 13.7915H14.2628L12.1128 19.2815H11.0328L8.88278 13.7915H9.86278L11.5828 18.3115ZM14.9959 12.1815C14.9959 12.0148 15.0526 11.8815 15.1659 11.7815C15.2792 11.6748 15.4292 11.6215 15.6159 11.6215C15.8026 11.6215 15.9526 11.6748 16.0659 11.7815C16.1792 11.8815 16.2359 12.0148 16.2359 12.1815C16.2359 12.3482 16.1792 12.4848 16.0659 12.5915C15.9526 12.6915 15.8026 12.7415 15.6159 12.7415C15.4292 12.7415 15.2792 12.6915 15.1659 12.5915C15.0526 12.4848 14.9959 12.3482 14.9959 12.1815ZM16.0659 13.7915V19.2815H15.1559V13.7915H16.0659ZM19.779 13.7215C20.3123 13.7215 20.7623 13.8548 21.129 14.1215C21.5023 14.3882 21.7623 14.7448 21.909 15.1915V11.8815H22.819V19.2815H21.909V17.8815C21.7623 18.3282 21.5023 18.6848 21.129 18.9515C20.7623 19.2182 20.3123 19.3515 19.779 19.3515C19.2923 19.3515 18.859 19.2382 18.479 19.0115C18.099 18.7848 17.799 18.4615 17.579 18.0415C17.3656 17.6148 17.259 17.1148 17.259 16.5415C17.259 15.9682 17.3656 15.4682 17.579 15.0415C17.799 14.6148 18.099 14.2882 18.479 14.0615C18.859 13.8348 19.2923 13.7215 19.779 13.7215ZM20.039 14.5315C19.479 14.5315 19.029 14.7115 18.689 15.0715C18.3556 15.4248 18.189 15.9148 18.189 16.5415C18.189 17.1682 18.3556 17.6615 18.689 18.0215C19.029 18.3748 19.479 18.5515 20.039 18.5515C20.399 18.5515 20.719 18.4682 20.999 18.3015C21.2856 18.1348 21.509 17.9015 21.669 17.6015C21.829 17.2948 21.909 16.9415 21.909 16.5415C21.909 16.1415 21.829 15.7882 21.669 15.4815C21.509 15.1748 21.2856 14.9415 20.999 14.7815C20.719 14.6148 20.399 14.5315 20.039 14.5315Z" fill="black"/>
</svg>
