<svg width="16" height="12" viewBox="0 0 16 12" fill="none" xmlns="http://www.w3.org/2000/svg">
<path d="M7.52442 2.62842C6.93107 2.62842 6.35105 2.80437 5.8577 3.13401C5.36436 3.46365 4.97984 3.93219 4.75278 4.48037C4.52571 5.02855 4.4663 5.63175 4.58206 6.21369C4.69782 6.79563 4.98354 7.33018 5.40309 7.74974C5.82265 8.1693 6.3572 8.45502 6.93914 8.57077C7.52109 8.68653 8.12429 8.62712 8.67247 8.40006C9.22064 8.17299 9.68918 7.78848 10.0188 7.29513C10.3485 6.80178 10.5244 6.22176 10.5244 5.62842C10.5244 4.83277 10.2083 4.06971 9.64574 3.5071C9.08313 2.94449 8.32006 2.62842 7.52442 2.62842ZM7.52442 7.62842C7.12885 7.62842 6.74217 7.51112 6.41328 7.29136C6.08438 7.07159 5.82803 6.75924 5.67666 6.39378C5.52528 6.02833 5.48567 5.6262 5.56284 5.23824C5.64002 4.85028 5.8305 4.49391 6.1102 4.2142C6.38991 3.9345 6.74627 3.74402 7.13423 3.66685C7.5222 3.58968 7.92433 3.62928 8.28978 3.78066C8.65523 3.93203 8.96759 4.18838 9.18735 4.51728C9.40712 4.84618 9.52442 5.23286 9.52442 5.62842C9.52442 6.15885 9.3137 6.66756 8.93863 7.04263C8.56356 7.4177 8.05485 7.62842 7.52442 7.62842Z" fill="black"/>
<path d="M14.9944 5.45842C14.4063 3.93724 13.3854 2.62173 12.0578 1.67446C10.7302 0.727196 9.15413 0.189704 7.52438 0.128418C5.89464 0.189704 4.31858 0.727196 2.99099 1.67446C1.66339 2.62173 0.642465 3.93724 0.0543845 5.45842C0.0146681 5.56827 0.0146681 5.68856 0.0543845 5.79842C0.642465 7.31959 1.66339 8.63511 2.99099 9.58237C4.31858 10.5296 5.89464 11.0671 7.52438 11.1284C9.15413 11.0671 10.7302 10.5296 12.0578 9.58237C13.3854 8.63511 14.4063 7.31959 14.9944 5.79842C15.0341 5.68856 15.0341 5.56827 14.9944 5.45842ZM7.52438 10.1284C4.87438 10.1284 2.07438 8.16342 1.05938 5.62842C2.07438 3.09342 4.87438 1.12842 7.52438 1.12842C10.1744 1.12842 12.9744 3.09342 13.9894 5.62842C12.9744 8.16342 10.1744 10.1284 7.52438 10.1284Z" fill="black"/>
</svg>
