<svg width="293" height="312" viewBox="0 0 293 312" fill="none" xmlns="http://www.w3.org/2000/svg">
<path fill-rule="evenodd" clip-rule="evenodd" d="M255.546 36.4967C295.77 77.0442 304.56 149.167 276.525 208.757C248.491 268.346 185.594 311.255 126.305 311.232C118.317 311.232 110.407 310.595 102.71 309.189C45.5962 298.767 2.6447 246.386 0.118834 184.065C-2.40703 121.745 35.6592 53.8092 91.0558 21.807C146.452 -10.2009 215.316 -4.0508 255.546 36.4967ZM33.9892 232.367C33.4424 232.498 33.1036 233.203 33.1571 233.761C33.2106 234.324 33.5375 234.768 33.8465 235.195C36.9608 239.501 39.0884 244.571 41.8164 249.19C50.8263 264.432 65.922 274.07 81.1842 282.205C81.3327 282.285 81.4873 282.365 81.6596 282.37C82.2658 282.399 82.7175 281.494 82.5273 280.908C82.3371 280.316 81.7785 280.003 81.2555 279.73C66.2548 271.834 51.6464 262.082 43.005 247.006C41.6797 244.69 40.5029 242.266 39.2192 239.922C37.9711 237.647 36.622 235.439 35.2729 233.238C34.9817 232.765 34.5656 232.231 33.9892 232.367ZM166.225 265.479C162.172 265.263 157.739 268.443 156.181 272.681C155.29 275.111 155.308 277.779 156.229 279.93C157.84 283.679 162.309 285.471 166.35 283.997C170.392 282.524 173.565 277.933 173.536 273.609C173.506 269.285 170.279 265.695 166.225 265.479ZM124.445 22.6831C104.422 32.5199 85.2077 45.2525 68.6856 61.4043C52.1694 77.5562 38.399 97.2184 30.2033 118.775C25.4963 131.155 22.6674 143.984 20.296 156.774C18.4298 166.838 16.8252 177.028 17.3898 186.904C18.6438 186.045 18.9172 184.281 19.042 182.791C21.027 159.396 24.7653 135.513 34.524 113.256C51.3374 74.8993 84.8511 44.9168 120.968 26.7339C122.632 25.8976 124.665 24.4752 124.445 22.6831ZM80.6849 245.231C81.2079 247.341 83.6862 248.161 85.8971 247.643C88.102 247.125 90.093 245.606 91.9889 244.133C112.909 227.89 133.74 211.51 154.482 195C156.966 193.02 160.003 195.006 161.81 197.065C171.824 208.449 178.237 223.173 189.345 233.42C190.599 234.575 191.983 235.707 193.731 235.974C195.478 236.247 197.677 235.388 198.545 233.607C199.299 232.054 198.854 230.37 198.343 228.914C192.019 210.793 178.534 196.934 172.353 178.746C171.978 177.648 171.634 176.487 171.818 175.252C172.115 173.324 173.637 171.685 175.063 170.223C177.119 168.118 179.182 166.007 181.238 163.902C183.265 161.826 185.511 159.101 184.863 156.569C184.412 154.8 182.581 153.866 180.739 153.923C178.896 153.98 177.048 154.839 175.313 155.795C170.766 158.298 166.54 161.593 162.891 165.467C161.905 166.519 160.27 166.372 159.325 165.581C158.38 164.79 157.929 163.544 157.37 162.412C155.908 159.448 153.566 157.052 150.678 155.573C148.693 154.555 146.001 154.071 144.022 155.727C142.999 156.58 142.375 157.866 142.096 159.129C140.741 165.234 146.506 170.246 144.812 176.311C144.141 178.712 142.399 180.777 140.699 182.7C126.858 198.391 111.566 212.762 95.1863 225.472C89.2312 230.091 82.5867 235.28 80.8335 242.431C80.6017 243.376 80.471 244.354 80.6849 245.231ZM258.589 159.709C255.082 161.393 252.503 165.478 252.509 169.33C252.515 173.182 255.1 176.498 258.607 177.141C262.066 177.779 266.149 175.77 268.288 172.385C270.428 169 270.457 164.494 268.365 161.701C266.244 158.867 262.089 158.025 258.589 159.709ZM42.3631 175.417C38.3515 174.61 33.5078 177.505 31.707 181.778C29.9062 186.056 31.392 191.137 34.9757 192.958C38.5595 194.778 43.7598 193.088 46.4045 189.242C48.1637 186.694 48.7699 183.388 47.9795 180.686C47.189 177.983 45.0257 175.952 42.3631 175.417ZM156.978 57.3877C153.489 56.7221 149.365 58.6507 147.106 62.0017C145.187 64.8464 144.669 68.5558 145.799 71.4232C146.922 74.2906 149.65 76.2135 152.717 76.2989C155.783 76.3899 159.088 74.6376 161.096 71.8612C163.004 69.2271 163.7 65.7566 162.891 62.9063C162.077 60.0617 159.789 57.9225 156.978 57.3877Z" fill="#6FCF97"/>
<path fill-rule="evenodd" clip-rule="evenodd" d="M244.967 137.259C243.487 137.504 242.257 135.672 242.263 133.954C242.269 132.236 243.107 130.688 243.915 129.249C244.402 128.384 244.884 127.525 245.371 126.66C246.066 128.293 246.584 130.034 246.893 131.821C247.267 133.977 246.857 136.947 244.967 137.259Z" fill="white"/>
<path fill-rule="evenodd" clip-rule="evenodd" d="M242.857 133.937C242.863 132.651 243.487 131.491 244.099 130.41C244.462 129.761 244.824 129.118 245.193 128.47C245.716 129.693 246.102 131.001 246.334 132.338C246.613 133.96 246.31 136.184 244.89 136.417C243.778 136.594 242.851 135.223 242.857 133.937ZM244.985 135.302C245.258 135.302 245.615 134.136 245.508 133.493C245.401 132.85 244.599 132.407 244.254 132.919C244.254 132.913 243.612 135.302 244.985 135.302Z" fill="#E7EAEE"/>
<path fill-rule="evenodd" clip-rule="evenodd" d="M128.748 215.208C130.964 214.73 133.229 214.452 135.499 214.372C136.135 214.349 136.973 214.491 137.068 215.089C134.518 216.363 131.333 216.409 128.748 215.208Z" fill="#E7EAEE"/>
<path fill-rule="evenodd" clip-rule="evenodd" d="M137.579 211.857C137.49 211.977 137.347 212.039 137.211 212.085C135.261 212.79 133.104 212.847 131.125 212.25C131.636 211.3 132.843 211.14 133.871 211.084C134.75 211.038 135.63 210.998 136.515 210.953C137.086 210.93 137.93 211.374 137.579 211.857Z" fill="#E7EAEE"/>
<path d="M191.484 115.708H25.1338C20.9379 115.708 17.5384 118.963 17.5384 122.979V246.027C17.5384 250.044 20.9379 253.298 25.1338 253.298H191.484C195.68 253.298 199.08 250.044 199.08 246.027V122.979C199.08 118.963 195.68 115.708 191.484 115.708Z" fill="#F2F5F4"/>
<path d="M199.888 106.953H33.5316C29.3357 106.953 25.9362 110.207 25.9362 114.224V237.271C25.9362 241.288 29.3357 244.542 33.5316 244.542H199.882C204.078 244.542 207.477 241.288 207.477 237.271V114.224C207.483 110.207 204.084 106.953 199.888 106.953Z" fill="white" stroke="#F2F5F4" stroke-width="0.9249" stroke-miterlimit="10"/>
<path d="M199.888 110.025H33.5316C29.3357 110.025 25.9362 113.279 25.9362 117.296V122.945H207.483V117.296C207.483 113.279 204.084 110.025 199.888 110.025Z" fill="#F2F5F4"/>
<path d="M199.888 106.953H33.5316C29.3357 106.953 25.9362 110.207 25.9362 114.224V119.873H207.483V114.224C207.483 110.207 204.084 106.953 199.888 106.953Z" fill="white"/>
<path d="M35.267 115.606C36.534 115.606 37.5611 114.623 37.5611 113.41C37.5611 112.197 36.534 111.214 35.267 111.214C34 111.214 32.9729 112.197 32.9729 113.41C32.9729 114.623 34 115.606 35.267 115.606Z" fill="#D57548"/>
<path d="M46.7136 113.41C46.7136 114.622 45.6855 115.606 44.4196 115.606C43.1537 115.606 42.1255 114.622 42.1255 113.41C42.1255 112.198 43.1537 111.214 44.4196 111.214C45.6855 111.214 46.7136 112.198 46.7136 113.41Z" fill="#FFB72F"/>
<path d="M55.8543 113.41C55.8543 114.622 54.8261 115.606 53.5602 115.606C52.2943 115.606 51.2661 114.622 51.2661 113.41C51.2661 112.198 52.2943 111.214 53.5602 111.214C54.832 111.214 55.8543 112.198 55.8543 113.41Z" fill="#AABC95"/>
<path d="M152.182 130.984H187.181" stroke="#F2F5F4" stroke-width="4.6244" stroke-miterlimit="10" stroke-linecap="round" stroke-linejoin="round"/>
<path d="M152.182 137.487H187.181" stroke="#F2F5F4" stroke-width="4.6244" stroke-miterlimit="10" stroke-linecap="round" stroke-linejoin="round"/>
<path d="M152.182 143.984H187.181" stroke="#F2F5F4" stroke-width="4.6244" stroke-miterlimit="10" stroke-linecap="round" stroke-linejoin="round"/>
<path d="M152.182 150.487H187.181" stroke="#F2F5F4" stroke-width="4.6244" stroke-miterlimit="10" stroke-linecap="round" stroke-linejoin="round"/>
<path d="M152.182 156.984H187.181" stroke="#F2F5F4" stroke-width="4.6244" stroke-miterlimit="10" stroke-linecap="round" stroke-linejoin="round"/>
<path d="M39.4985 169.984H187.181" stroke="#F2F5F4" stroke-width="4.6244" stroke-miterlimit="10" stroke-linecap="round" stroke-linejoin="round"/>
<path d="M39.4985 176.481H187.181" stroke="#F2F5F4" stroke-width="4.6244" stroke-miterlimit="10" stroke-linecap="round" stroke-linejoin="round"/>
<path d="M39.4985 182.984H187.181" stroke="#F2F5F4" stroke-width="4.6244" stroke-miterlimit="10" stroke-linecap="round" stroke-linejoin="round"/>
<path d="M39.4985 189.481H187.181" stroke="#F2F5F4" stroke-width="4.6244" stroke-miterlimit="10" stroke-linecap="round" stroke-linejoin="round"/>
<path d="M39.4985 195.984H187.181" stroke="#F2F5F4" stroke-width="4.6244" stroke-miterlimit="10" stroke-linecap="round" stroke-linejoin="round"/>
<path d="M102.063 206.47H154.856" stroke="#F2F5F4" stroke-width="4.6244" stroke-miterlimit="10" stroke-linecap="round" stroke-linejoin="round"/>
<path d="M102.063 212.967H154.856" stroke="#F2F5F4" stroke-width="4.6244" stroke-miterlimit="10" stroke-linecap="round" stroke-linejoin="round"/>
<path d="M102.063 219.47H154.856" stroke="#F2F5F4" stroke-width="4.6244" stroke-miterlimit="10" stroke-linecap="round" stroke-linejoin="round"/>
<path d="M102.063 225.967H138.97" stroke="#F2F5F4" stroke-width="4.6244" stroke-miterlimit="10" stroke-linecap="round" stroke-linejoin="round"/>
<path d="M102.063 232.47H138.97" stroke="#F2F5F4" stroke-width="4.6244" stroke-miterlimit="10" stroke-linecap="round" stroke-linejoin="round"/>
<path d="M146.23 148.933C148.56 139.341 142.327 129.758 132.307 127.528C122.288 125.297 112.277 131.264 109.947 140.856C107.617 150.447 113.85 160.03 123.87 162.261C133.889 164.491 143.9 158.524 146.23 148.933Z" stroke="#F2F5F4" stroke-width="4.6244" stroke-miterlimit="10" stroke-linecap="round" stroke-linejoin="round"/>
<path d="M128.088 127.059V144.883L141.763 156.984" stroke="#F2F5F4" stroke-width="4.6244" stroke-miterlimit="10" stroke-linecap="round" stroke-linejoin="round"/>
<path d="M75.5948 224.133C77.9247 214.542 71.6912 204.958 61.6718 202.728C51.6524 200.497 41.6413 206.465 39.3113 216.056C36.9813 225.647 43.2149 235.231 53.2343 237.461C63.2537 239.691 73.2648 233.724 75.5948 224.133Z" stroke="#F2F5F4" stroke-width="4.6244" stroke-miterlimit="10" stroke-linecap="round" stroke-linejoin="round"/>
<path d="M57.4529 202.254V220.084L71.1282 232.185" stroke="#F2F5F4" stroke-width="4.6244" stroke-miterlimit="10" stroke-linecap="round" stroke-linejoin="round"/>
<path d="M193.778 204.581H160.211V233.101H193.778V204.581Z" stroke="#F2F5F4" stroke-width="4.6244" stroke-miterlimit="10" stroke-linecap="round" stroke-linejoin="round"/>
<path d="M38.8388 130.626L69.4344 159.146H38.8388V130.626Z" stroke="#F2F5F4" stroke-width="4.6244" stroke-miterlimit="10" stroke-linecap="round" stroke-linejoin="round"/>
<path d="M257.275 103.596H185.529C181.333 103.596 177.934 106.85 177.934 110.867V151.568C177.934 155.585 181.333 158.839 185.529 158.839H257.275C261.471 158.839 264.871 155.585 264.871 151.568V110.867C264.871 106.856 261.471 103.596 257.275 103.596Z" fill="#F2F5F4"/>
<path d="M264.027 97.9922H192.286C188.091 97.9922 184.691 101.246 184.691 105.263V145.964C184.691 149.981 188.091 153.235 192.286 153.235H264.033C268.229 153.235 271.628 149.981 271.628 145.964V105.263C271.628 101.246 268.223 97.9922 264.027 97.9922Z" fill="white" stroke="#F1F1F3" stroke-width="0.9249" stroke-miterlimit="10"/>
<path d="M264.027 101.064H192.286C188.091 101.064 184.691 104.319 184.691 108.335V113.985H271.628V108.335C271.628 104.319 268.223 101.064 264.027 101.064Z" fill="#F2F5F4"/>
<path d="M264.027 97.9922H192.286C188.091 97.9922 184.691 101.246 184.691 105.263V110.913H271.628V105.263C271.628 101.246 268.223 97.9922 264.027 97.9922Z" fill="white" stroke="#F1F1F3" stroke-width="0.9249" stroke-miterlimit="10"/>
<path d="M222.549 104.455H234.21" stroke="#E3E9E7" stroke-width="4.6244" stroke-miterlimit="10" stroke-linecap="round" stroke-linejoin="round"/>
<path d="M239.689 104.455H263.379" stroke="#E3E9E7" stroke-width="4.6244" stroke-miterlimit="10" stroke-linecap="round" stroke-linejoin="round"/>
<path d="M196.316 104.455C196.316 105.667 195.288 106.651 194.022 106.651C192.756 106.651 191.728 105.667 191.728 104.455C191.728 103.243 192.756 102.259 194.022 102.259C195.288 102.253 196.316 103.238 196.316 104.455Z" fill="#D57548"/>
<path d="M205.462 104.455C205.462 105.667 204.434 106.651 203.168 106.651C201.903 106.651 200.874 105.667 200.874 104.455C200.874 103.243 201.903 102.259 203.168 102.259C204.434 102.259 205.462 103.238 205.462 104.455Z" fill="#FFB72F"/>
<path d="M214.609 104.455C214.609 105.667 213.581 106.651 212.315 106.651C211.049 106.651 210.021 105.667 210.021 104.455C210.021 103.243 211.049 102.259 212.315 102.259C213.581 102.253 214.609 103.238 214.609 104.455Z" fill="#AABC95"/>
<path d="M197.231 139.774C213.89 122.325 230.305 139.774 230.305 139.774C247.517 121.671 263.379 139.774 263.379 139.774" stroke="#EAA105" stroke-width="0.9249" stroke-miterlimit="10"/>
<path d="M197.231 139.774H263.379" stroke="#450000" stroke-width="0.9249" stroke-miterlimit="10"/>
<path d="M263.379 136.412V141.709" stroke="#450000" stroke-width="0.9249" stroke-miterlimit="10"/>
<path d="M197.231 136.412V141.709" stroke="#450000" stroke-width="0.9249" stroke-miterlimit="10"/>
<path d="M264.092 131.178H262.666C262.167 131.178 261.762 131.565 261.762 132.042V133.408C261.762 133.886 262.167 134.273 262.666 134.273H264.092C264.591 134.273 264.996 133.886 264.996 133.408V132.042C264.996 131.565 264.591 131.178 264.092 131.178Z" stroke="#450000" stroke-width="0.9249" stroke-miterlimit="10"/>
<path d="M197.944 131.178H196.518C196.019 131.178 195.615 131.565 195.615 132.042V133.408C195.615 133.886 196.019 134.273 196.518 134.273H197.944C198.444 134.273 198.848 133.886 198.848 133.408V132.042C198.848 131.565 198.444 131.178 197.944 131.178Z" stroke="#450000" stroke-width="0.9249" stroke-miterlimit="10"/>
<path d="M231.018 142.039H229.592C229.093 142.039 228.689 142.426 228.689 142.903V144.269C228.689 144.747 229.093 145.134 229.592 145.134H231.018C231.517 145.134 231.922 144.747 231.922 144.269V142.903C231.922 142.426 231.517 142.039 231.018 142.039Z" stroke="#450000" stroke-width="0.9249" stroke-miterlimit="10"/>
<path d="M230.305 148.217C232.977 148.217 235.143 146.144 235.143 143.586C235.143 141.028 232.977 138.955 230.305 138.955C227.633 138.955 225.467 141.028 225.467 143.586C225.467 146.144 227.633 148.217 230.305 148.217Z" stroke="#C43F00" stroke-width="0.9249" stroke-miterlimit="10"/>
<path d="M198.477 126.291L197.806 125.301L197.158 126.285C197.039 126.467 196.831 126.575 196.605 126.575H196.32C195.791 126.575 195.482 126.001 195.791 125.585L196.855 124.163L195.839 122.78C195.536 122.365 195.845 121.796 196.374 121.796H196.659C196.873 121.796 197.075 121.899 197.2 122.069L197.853 122.997L198.489 122.075C198.608 121.899 198.816 121.796 199.036 121.796H199.226C199.755 121.796 200.064 122.371 199.755 122.786L198.769 124.1L199.874 125.585C200.183 126.001 199.874 126.569 199.345 126.569H199.042C198.804 126.575 198.596 126.467 198.477 126.291Z" fill="#AABC95"/>
<path d="M210.556 124.846V125.955C210.556 126.302 210.265 126.581 209.902 126.581H209.522C209.159 126.581 208.868 126.302 208.868 125.955V124.829L207.572 122.752C207.311 122.337 207.626 121.808 208.131 121.808H208.387C208.618 121.808 208.832 121.922 208.945 122.115L209.777 123.458L210.615 122.109C210.734 121.922 210.948 121.802 211.174 121.802H211.287C211.792 121.802 212.107 122.326 211.846 122.747L210.556 124.846Z" fill="#AABC95"/>
<path d="M222.163 125.955C222.163 126.302 221.872 126.581 221.509 126.581H218.371C217.931 126.581 217.581 126.24 217.581 125.824C217.581 125.677 217.634 125.529 217.741 125.415L219.863 123.054H218.306C217.943 123.054 217.652 122.775 217.652 122.428C217.652 122.081 217.943 121.802 218.306 121.802H221.26C221.699 121.802 222.05 122.143 222.05 122.559C222.05 122.707 221.996 122.855 221.89 122.968L219.768 125.329H221.509C221.866 125.329 222.163 125.608 222.163 125.955Z" fill="#AABC95"/>
<path d="M205.742 123.861H202.913C202.634 123.861 202.408 123.645 202.408 123.378V122.997C202.408 122.729 202.634 122.513 202.913 122.513H205.742C206.021 122.513 206.247 122.729 206.247 122.997V123.378C206.247 123.645 206.021 123.861 205.742 123.861Z" fill="#AABC95"/>
<path d="M205.742 126.035H202.913C202.634 126.035 202.408 125.818 202.408 125.551V125.17C202.408 124.902 202.634 124.686 202.913 124.686H205.742C206.021 124.686 206.247 124.902 206.247 125.17V125.551C206.247 125.818 206.021 126.035 205.742 126.035Z" fill="#AABC95"/>
<path d="M215.423 125.722L213.426 123.81C213.23 123.622 213.23 123.315 213.426 123.127L213.712 122.854C213.908 122.667 214.229 122.667 214.425 122.854L216.422 124.766C216.618 124.954 216.618 125.261 216.422 125.449L216.137 125.722C215.94 125.909 215.619 125.909 215.423 125.722Z" fill="#AABC95"/>
<path d="M213.426 124.766L215.423 122.854C215.619 122.667 215.94 122.667 216.137 122.854L216.422 123.127C216.618 123.315 216.618 123.622 216.422 123.81L214.425 125.722C214.229 125.909 213.908 125.909 213.712 125.722L213.426 125.449C213.23 125.261 213.23 124.954 213.426 124.766Z" fill="#AABC95"/>
<path d="M228.16 121.955H263.379" stroke="#E3E9E7" stroke-width="4.6244" stroke-miterlimit="10" stroke-linecap="round" stroke-linejoin="round"/>
<path d="M228.16 127.127H245.769" stroke="#E3E9E7" stroke-width="4.6244" stroke-miterlimit="10" stroke-linecap="round" stroke-linejoin="round"/>
<path d="M148.372 259.88V281.431H262.832C265.62 281.431 267.997 279.617 268.882 277.073C269.132 276.379 269.263 275.628 269.263 274.843V266.463C269.263 265.632 269.108 264.841 268.835 264.108C267.914 261.633 265.566 259.875 262.826 259.875H148.372V259.88Z" fill="#B22900"/>
<path d="M204.119 264.113V277.073H268.888C269.138 276.379 269.269 275.628 269.269 274.843V266.463C269.269 265.632 269.114 264.841 268.841 264.108H204.119V264.113Z" fill="#C43F00"/>
<path d="M224.398 275.372C227.155 275.372 229.39 273.233 229.39 270.593C229.39 267.954 227.155 265.814 224.398 265.814C221.64 265.814 219.405 267.954 219.405 270.593C219.405 273.233 221.64 275.372 224.398 275.372Z" fill="#FFB72F"/>
<path d="M201.932 259.881H150.238V281.432H201.932C207.103 281.432 211.293 277.421 211.293 272.471V268.841C211.293 263.892 207.103 259.881 201.932 259.881Z" fill="#C43F00"/>
<path d="M147.11 259.878H156.976V263.11H147.11C146.236 263.11 145.535 262.387 145.535 261.494C145.529 260.601 146.236 259.878 147.11 259.878Z" fill="#C43F00"/>
<path d="M146.934 278.2H156.978V281.431H146.934C146.161 281.431 145.531 280.828 145.531 280.089V279.543C145.531 278.803 146.161 278.2 146.934 278.2Z" fill="#C43F00"/>
<path d="M200.69 263.112H148.372V278.2H200.69C204.31 278.2 207.245 275.389 207.245 271.925V269.381C207.245 265.917 204.31 263.112 200.69 263.112Z" fill="#E9EEEC"/>
<path d="M199.353 265.092H148.372V278.2H201.094C203.062 278.2 204.648 276.675 204.648 274.798V270.167C204.654 267.367 202.283 265.092 199.353 265.092Z" fill="white"/>
<path d="M205.118 267.806H148.372" stroke="#F1F4F6" stroke-width="0.9249" stroke-miterlimit="10"/>
<path d="M207.049 270.474H148.372" stroke="#F1F4F6" stroke-width="0.9249" stroke-miterlimit="10"/>
<path d="M207.049 273.142H148.372" stroke="#F1F4F6" stroke-width="0.9249" stroke-miterlimit="10"/>
<path d="M207.049 275.81H148.372" stroke="#F1F4F6" stroke-width="0.9249" stroke-miterlimit="10"/>
<path d="M258.88 277.073H258.28H252.509C251.611 279.617 249.246 281.426 246.459 281.426H252.23H252.83H258.601C261.388 281.426 263.759 279.617 264.651 277.073H258.88Z" fill="#EAA105"/>
<path d="M258.601 259.881H252.83H252.23H246.459C249.199 259.881 251.534 261.639 252.467 264.114H258.238H258.838H264.609C263.676 261.639 261.341 259.881 258.601 259.881Z" fill="#EAA105"/>
<path d="M264.603 264.108H258.833H258.232H252.461C252.735 264.836 252.883 265.632 252.883 266.463V274.843C252.883 275.628 252.753 276.379 252.503 277.073H258.274H258.874H264.645C264.895 276.379 265.025 275.628 265.025 274.843V266.463C265.031 265.632 264.883 264.841 264.603 264.108Z" fill="#FFB72F"/>
<path d="M190.908 267.771V277.074L194.129 275.19L197.344 277.074V267.771" fill="#DEE5E3"/>
<path d="M188.495 275.19L192.144 273.307L194.931 275.19L197.344 267.771H190.908L188.495 275.19Z" fill="#EAA105"/>
<path d="M257.472 244.315V259.932H159.872C157.495 259.932 155.468 258.617 154.714 256.774C154.5 256.273 154.387 255.727 154.387 255.158V249.088C154.387 248.485 154.517 247.91 154.749 247.381C155.534 245.589 157.537 244.315 159.872 244.315H257.472Z" fill="#EAA105"/>
<path d="M209.944 247.381V256.774H154.713C154.5 256.273 154.387 255.727 154.387 255.158V249.088C154.387 248.485 154.517 247.91 154.749 247.381H209.944Z" fill="#FFB72F"/>
<path d="M195.525 253.628H161.18C160.437 253.628 159.837 253.053 159.837 252.342V251.819C159.837 251.108 160.437 250.533 161.18 250.533H195.525C196.268 250.533 196.869 251.108 196.869 251.819V252.342C196.869 253.048 196.268 253.628 195.525 253.628Z" fill="#C43F00"/>
<path d="M210.609 244.315H255.885V259.932H210.609C206.865 259.932 203.828 257.024 203.828 253.44V250.806C203.822 247.222 206.859 244.315 210.609 244.315Z" fill="#FFB72F"/>
<path d="M258.553 244.315H250.138V246.653H258.553C259.296 246.653 259.896 246.13 259.896 245.481C259.896 244.838 259.296 244.315 258.553 244.315Z" fill="#FFB72F"/>
<path d="M258.88 257.593H250.138V259.932H258.88C259.439 259.932 259.896 259.494 259.896 258.959V258.566C259.896 258.026 259.439 257.593 258.88 257.593Z" fill="#FFB72F"/>
<path d="M257.472 246.659V257.593H212.987C212.012 257.593 211.091 257.354 210.288 256.939C208.494 256.017 207.275 254.203 207.275 252.12C207.275 250.613 207.917 249.247 208.951 248.257C209.985 247.267 211.412 246.653 212.993 246.653H257.472V246.659Z" fill="#E9EEEC"/>
<path d="M257.472 248.092V257.588H212.987C212.012 257.588 211.091 257.349 210.288 256.933C209.789 256.495 209.486 255.864 209.486 255.164V254.373C209.486 250.897 212.422 248.087 216.053 248.087H257.472V248.092Z" fill="white"/>
<path d="M209.088 250.055H257.471" stroke="#F1F4F6" stroke-width="0.9249" stroke-miterlimit="10"/>
<path d="M207.442 251.99H257.472" stroke="#F1F4F6" stroke-width="0.9249" stroke-miterlimit="10"/>
<path d="M207.442 253.924H257.472" stroke="#F1F4F6" stroke-width="0.9249" stroke-miterlimit="10"/>
<path d="M207.442 255.858H257.472" stroke="#F1F4F6" stroke-width="0.9249" stroke-miterlimit="10"/>
<path d="M263.236 222.883V244.315H155.849C152.164 244.315 148.889 242.608 146.857 239.979C145.472 238.193 144.652 235.985 144.652 233.596C144.652 231.201 145.472 228.993 146.857 227.213C147.183 226.792 147.54 226.393 147.932 226.024C149.959 224.083 152.758 222.883 155.849 222.883H263.236Z" fill="#450000"/>
<path d="M213.783 227.213V239.985H146.857C145.472 238.199 144.652 235.991 144.652 233.602C144.652 231.207 145.472 228.999 146.857 227.218H213.783V227.213Z" fill="#5E2222"/>
<path d="M205.623 222.883H261.251V244.315H205.623C200.482 244.315 196.316 240.326 196.316 235.405V231.792C196.316 226.871 200.482 222.883 205.623 222.883Z" fill="#5E2222"/>
<path d="M264.574 222.883H254.078V226.092H264.574C265.501 226.092 266.25 225.375 266.25 224.487C266.256 223.6 265.501 222.883 264.574 222.883Z" fill="#5E2222"/>
<path d="M264.859 241.1H254.084V244.309H264.859C265.631 244.309 266.256 243.712 266.256 242.972V242.431C266.256 241.698 265.631 241.1 264.859 241.1Z" fill="#5E2222"/>
<path d="M263.23 226.092V241.094H208.458C204.351 241.094 200.987 238.073 200.649 234.227C200.631 234.023 200.619 233.806 200.619 233.59C200.619 231.519 201.492 229.648 202.913 228.288C204.327 226.934 206.289 226.092 208.452 226.092H263.23Z" fill="#F2F5F4"/>
<path d="M263.23 228.521V241.094H208.458C204.351 241.094 200.987 238.073 200.649 234.228C200.797 232.726 201.492 231.372 202.544 230.359C203.733 229.221 205.373 228.516 207.192 228.516H263.23V228.521Z" fill="white"/>
<path d="M202.883 229.761H263.231" stroke="#F1F4F6" stroke-width="0.9249" stroke-miterlimit="10"/>
<path d="M200.827 232.748H263.23" stroke="#F1F4F6" stroke-width="0.9249" stroke-miterlimit="10"/>
<path d="M200.827 235.735H263.23" stroke="#F1F4F6" stroke-width="0.9249" stroke-miterlimit="10"/>
<path d="M200.827 238.722H263.23" stroke="#F1F4F6" stroke-width="0.9249" stroke-miterlimit="10"/>
<path d="M218.472 229.761V239.979L214.942 237.914L211.406 239.979V229.761" fill="#DEE5E3"/>
<path d="M221.123 237.914L217.117 235.843L214.056 237.914L211.406 229.761H218.472L221.123 237.914Z" fill="#C43F00"/>
<path d="M173.262 244.315H160.942C157.257 244.315 153.982 242.608 151.95 239.979C150.565 238.193 149.745 235.985 149.745 233.596C149.745 231.201 150.565 228.993 151.95 227.213C152.277 226.792 152.633 226.393 153.026 226.024C155.052 224.083 157.852 222.883 160.942 222.883H173.262C170.172 222.883 167.373 224.083 165.346 226.024C164.96 226.393 164.603 226.792 164.27 227.213C162.885 228.999 162.065 231.206 162.065 233.596C162.065 235.985 162.885 238.199 164.27 239.979C166.309 242.608 169.583 244.315 173.262 244.315Z" fill="#B22900"/>
<path d="M181.517 244.315H176.204C172.519 244.315 169.245 242.608 167.212 239.979C165.827 238.193 165.007 235.985 165.007 233.596C165.007 231.201 165.827 228.993 167.212 227.213C167.539 226.792 167.896 226.393 168.288 226.024C170.314 224.083 173.114 222.883 176.204 222.883H181.517C178.427 222.883 175.628 224.083 173.601 226.024C173.215 226.393 172.858 226.792 172.525 227.213C171.141 228.999 170.32 231.206 170.32 233.596C170.32 235.985 171.141 238.199 172.525 239.979C174.558 242.608 177.833 244.315 181.517 244.315Z" fill="#B22900"/>
<path d="M162.065 233.596C162.065 235.986 162.885 238.199 164.27 239.979H151.95C150.565 238.193 149.745 235.986 149.745 233.596C149.745 231.201 150.565 228.994 151.95 227.213H164.27C162.891 228.994 162.065 231.201 162.065 233.596Z" fill="#C43F00"/>
<path d="M170.32 233.596C170.32 235.986 171.141 238.199 172.525 239.979H167.212C165.827 238.193 165.007 235.986 165.007 233.596C165.007 231.201 165.827 228.994 167.212 227.213H172.525C171.141 228.994 170.32 231.201 170.32 233.596Z" fill="#C43F00"/>
<path d="M203.686 244.315H198.372C194.687 244.315 191.413 242.608 189.38 239.979C187.995 238.193 187.175 235.985 187.175 233.596C187.175 231.201 187.995 228.993 189.38 227.213C189.707 226.792 190.064 226.393 190.456 226.024C192.483 224.083 195.282 222.883 198.372 222.883H203.686C200.595 222.883 197.796 224.083 195.769 226.024C195.383 226.393 195.026 226.792 194.693 227.213C193.309 228.999 192.489 231.206 192.489 233.596C192.489 235.985 193.309 238.199 194.693 239.979C196.726 242.608 200.001 244.315 203.686 244.315Z" fill="#B22900"/>
<path d="M192.489 233.596C192.489 235.986 193.309 238.199 194.693 239.979H189.38C187.995 238.193 187.175 235.986 187.175 233.596C187.175 231.201 187.995 228.994 189.38 227.213H194.693C193.309 228.994 192.489 231.201 192.489 233.596Z" fill="#C43F00"/>
<path d="M186.438 174.456H231.642C234.471 174.456 236.771 172.26 236.771 169.546C236.771 166.838 234.477 164.636 231.642 164.636H186.438C183.609 164.636 181.309 166.832 181.309 169.546C181.315 172.26 183.609 174.456 186.438 174.456Z" fill="#F2F5F4"/>
<path d="M186.997 221.125H231.862C235 221.125 237.544 218.69 237.544 215.686V183.929C237.544 180.925 235 178.49 231.862 178.49H186.997C183.859 178.49 181.315 180.925 181.315 183.929V215.686C181.315 218.69 183.859 221.125 186.997 221.125Z" fill="#F2F5F4"/>
<path d="M195.222 218.138H240.088C243.226 218.138 245.769 215.703 245.769 212.699V180.942C245.769 177.938 243.226 175.503 240.088 175.503H195.222C192.084 175.503 189.541 177.938 189.541 180.942V212.699C189.541 215.703 192.084 218.138 195.222 218.138Z" fill="white" stroke="#F1F1F3" stroke-width="0.9249" stroke-miterlimit="10"/>
<path d="M194.67 171.469H239.88C242.709 171.469 245.009 169.273 245.009 166.559C245.009 163.851 242.715 161.649 239.88 161.649H194.67C191.841 161.649 189.541 163.845 189.541 166.559C189.541 169.273 191.835 171.469 194.67 171.469Z" fill="white" stroke="#F1F1F3" stroke-width="0.9249" stroke-miterlimit="10"/>
<path d="M198.212 166.559C198.212 167.771 197.184 168.755 195.918 168.755C194.652 168.755 193.624 167.771 193.624 166.559C193.624 165.347 194.652 164.363 195.918 164.363C197.184 164.363 198.212 165.347 198.212 166.559Z" fill="#D57548"/>
<path d="M207.358 166.559C207.358 167.771 206.33 168.755 205.064 168.755C203.798 168.755 202.77 167.771 202.77 166.559C202.77 165.347 203.798 164.363 205.064 164.363C206.33 164.363 207.358 165.347 207.358 166.559Z" fill="#FFB72F"/>
<path d="M216.505 166.559C216.505 167.771 215.477 168.755 214.211 168.755C212.945 168.755 211.917 167.771 211.917 166.559C211.917 165.347 212.945 164.363 214.211 164.363C215.477 164.363 216.505 165.347 216.505 166.559Z" fill="#AABC95"/>
<path d="M196.304 184.111H238.239" stroke="#E3E9E7" stroke-width="4.6244" stroke-miterlimit="10" stroke-linecap="round" stroke-linejoin="round"/>
<path d="M196.304 188.981H219.821" stroke="#E3E9E7" stroke-width="4.6244" stroke-miterlimit="10" stroke-linecap="round" stroke-linejoin="round"/>
<path d="M204.173 206.162H197.582V212.472H204.173V206.162Z" stroke="#FFB72F" stroke-width="2.7746" stroke-miterlimit="10"/>
<path d="M197.582 212.472V193.97L237.401 212.472H197.582Z" stroke="#AABC95" stroke-width="2.7746" stroke-miterlimit="10" stroke-linejoin="round"/>
<path d="M175.645 115.879C175.271 115.874 174.908 115.879 174.546 115.89" stroke="#EAA105" stroke-width="0.9249" stroke-miterlimit="10"/>
<path d="M173.399 115.968C159.45 117.373 153.834 134.123 160.282 143.328" stroke="#EAA105" stroke-width="0.9249" stroke-miterlimit="10" stroke-dasharray="3.84 3.84"/>
<path d="M160.603 143.768C160.817 144.053 161.049 144.326 161.287 144.593" stroke="#EAA105" stroke-width="0.9249" stroke-miterlimit="10"/>
<path d="M161.833 141.652C163.527 141.976 164.621 143.546 164.288 145.168C163.949 146.789 162.309 147.836 160.615 147.517C158.921 147.193 157.828 145.623 158.161 144.001C158.499 142.38 160.14 141.327 161.833 141.652Z" fill="#EAA105"/>
<path d="M250.191 187.041C250.554 187.115 250.916 187.183 251.273 187.234" stroke="white" stroke-width="0.9249" stroke-miterlimit="10"/>
<path d="M252.408 187.376C266.374 188.622 275.319 173.256 270.885 163.015" stroke="white" stroke-width="0.9249" stroke-miterlimit="10" stroke-dasharray="3.84 3.84"/>
<path d="M270.659 162.526C270.505 162.207 270.339 161.894 270.16 161.587" stroke="white" stroke-width="0.9249" stroke-miterlimit="10"/>
<path d="M269.019 164.375C267.426 163.743 266.672 161.991 267.331 160.466C267.991 158.941 269.822 158.219 271.414 158.85C273.007 159.482 273.762 161.234 273.102 162.759C272.442 164.284 270.612 165.006 269.019 164.375Z" fill="#EAA105"/>
<path d="M219.376 91.5915C219.488 91.2502 219.595 90.9145 219.685 90.5789" stroke="white" stroke-width="0.9249" stroke-miterlimit="10"/>
<path d="M219.94 89.5094C222.627 76.333 207.549 66.2801 196.465 69.4831" stroke="white" stroke-width="0.9249" stroke-miterlimit="10" stroke-dasharray="3.84 3.84"/>
<path d="M195.93 69.6481C195.585 69.7619 195.24 69.8927 194.907 70.035" stroke="white" stroke-width="0.9249" stroke-miterlimit="10"/>
<path d="M197.689 71.3948C196.869 72.8455 194.979 73.3917 193.457 72.6123C191.942 71.8272 191.371 70.018 192.185 68.5615C193.006 67.1108 194.895 66.5646 196.417 67.344C197.938 68.1291 198.509 69.944 197.689 71.3948Z" fill="white" stroke="white" stroke-miterlimit="10"/>
<path d="M53.0371 93.1962H65.0305" stroke="white" stroke-width="4.6244" stroke-miterlimit="10" stroke-linecap="round" stroke-linejoin="round"/>
<path d="M53.0371 99.079H59.7292" stroke="white" stroke-width="4.6244" stroke-miterlimit="10" stroke-linecap="round" stroke-linejoin="round"/>
<path d="M160.021 89.7371H201.273" stroke="white" stroke-width="4.6244" stroke-miterlimit="10" stroke-linecap="round" stroke-linejoin="round"/>
<path d="M160.021 95.4093H174.944" stroke="white" stroke-width="4.6244" stroke-miterlimit="10" stroke-linecap="round" stroke-linejoin="round"/>
<path d="M258.963 200.854H271.474" stroke="white" stroke-width="4.6244" stroke-miterlimit="10" stroke-linecap="round" stroke-linejoin="round"/>
<path d="M253.121 200.854H254.779" stroke="white" stroke-width="4.6244" stroke-miterlimit="10" stroke-linecap="round" stroke-linejoin="round"/>
<path d="M264.996 205.588H271.474" stroke="white" stroke-width="4.6244" stroke-miterlimit="10" stroke-linecap="round" stroke-linejoin="round"/>
<path d="M146.233 64.5618V71.9806L139.243 79.957H168.609C177.488 79.957 184.685 73.0673 184.685 64.5675C184.685 56.0677 177.488 49.178 168.609 49.178H162.309C153.43 49.1723 146.233 56.062 146.233 64.5618Z" fill="white"/>
<path d="M158.624 68.0151C158.624 69.5285 157.346 70.7517 155.765 70.7517C154.185 70.7517 152.907 69.5285 152.907 68.0151C152.907 66.5018 154.185 65.2786 155.765 65.2786C157.34 65.2786 158.624 66.5075 158.624 68.0151Z" fill="#6FCF97"/>
<path d="M168.335 68.0151C168.335 69.5285 167.058 70.7517 165.477 70.7517C163.896 70.7517 162.618 69.5285 162.618 68.0151C162.618 66.5018 163.896 65.2786 165.477 65.2786C167.058 65.2786 168.335 66.5075 168.335 68.0151Z" fill="#6FCF97"/>
<path d="M178.046 68.0151C178.046 69.5285 176.769 70.7517 175.188 70.7517C173.607 70.7517 172.329 69.5285 172.329 68.0151C172.329 66.5018 173.607 65.2786 175.188 65.2786C176.769 65.2786 178.046 66.5075 178.046 68.0151Z" fill="#6FCF97"/>
<path d="M135.927 267.772C138.527 267.772 140.634 265.754 140.634 263.266C140.634 260.777 138.527 258.76 135.927 258.76C133.327 258.76 131.22 260.777 131.22 263.266C131.22 265.754 133.327 267.772 135.927 267.772Z" fill="white"/>
<path d="M245.508 87.1028C247.205 87.1028 248.58 85.7859 248.58 84.1614C248.58 82.537 247.205 81.2201 245.508 81.2201C243.811 81.2201 242.435 82.537 242.435 84.1614C242.435 85.7859 243.811 87.1028 245.508 87.1028Z" fill="white"/>
<path d="M30.239 94.6808C32.6154 94.6808 34.5419 92.8367 34.5419 90.5618C34.5419 88.2869 32.6154 86.4427 30.239 86.4427C27.8626 86.4427 25.9361 88.2869 25.9361 90.5618C25.9361 92.8367 27.8626 94.6808 30.239 94.6808Z" fill="white" stroke="white" stroke-miterlimit="10"/>
<path d="M58.4217 260.535C58.4217 259.112 57.2152 257.958 55.7294 257.958C54.2436 257.958 53.0371 259.112 53.0371 260.535C53.0371 261.957 54.2436 263.112 55.7294 263.112C57.2152 263.112 58.4217 261.957 58.4217 260.535Z" fill="#D7E0DD"/>
<path d="M102.728 253.838C102.728 254.811 101.902 255.602 100.886 255.602C99.8696 255.602 99.0435 254.811 99.0435 253.838C99.0435 252.866 99.8696 252.075 100.886 252.075C101.902 252.075 102.728 252.866 102.728 253.838Z" fill="#AABC95"/>
<path d="M131.487 59.0205C131.487 58.0476 130.661 57.2568 129.645 57.2568C128.629 57.2568 127.803 58.0476 127.803 59.0205C127.803 59.9934 128.629 60.7842 129.645 60.7842C130.661 60.7899 131.487 59.9991 131.487 59.0205Z" fill="#AABC95"/>
<path d="M231.856 74.74C231.856 73.7614 231.03 72.9706 230.008 72.9706C228.986 72.9706 228.16 73.7614 228.16 74.74C228.16 75.7185 228.986 76.5093 230.008 76.5093C231.03 76.5093 231.856 75.7185 231.856 74.74Z" fill="white"/>
<path d="M20.2604 164.329C20.2604 165.842 18.9766 167.071 17.4017 167.071C15.8267 167.071 14.537 165.842 14.537 164.329C14.537 162.816 15.8208 161.587 17.4017 161.587C18.9826 161.587 20.2604 162.816 20.2604 164.329Z" fill="#AABC95"/>
<path d="M276.525 213.132C276.525 213.974 275.812 214.656 274.933 214.656C274.053 214.656 273.34 213.974 273.34 213.132C273.34 212.29 274.053 211.607 274.933 211.607C275.812 211.607 276.525 212.29 276.525 213.132Z" fill="#AABC95"/>
</svg>
