<svg id="Layer_1" data-name="Layer 1" xmlns="http://www.w3.org/2000/svg" viewBox="0 0 59 11"><path d="M13.61,2.43a1.67,1.67,0,0,1,.62.59V2.28h1.85V7.52a3.06,3.06,0,0,1-.29,1.34,2.2,2.2,0,0,1-.88,1,2.89,2.89,0,0,1-1.51.36,3.14,3.14,0,0,1-2-.57A2.22,2.22,0,0,1,10.59,8h1.82a.6.6,0,0,0,.29.39,1,1,0,0,0,.58.15c.63,0,1-.36,1-1.06V6.84a1.67,1.67,0,0,1-.62.59,2,2,0,0,1-.94.21,2.09,2.09,0,0,1-1.15-.33,2.24,2.24,0,0,1-.81-.95,3.25,3.25,0,0,1-.3-1.44,3.23,3.23,0,0,1,.3-1.43,2.27,2.27,0,0,1,.81-.94,2.09,2.09,0,0,1,1.15-.33A2,2,0,0,1,13.61,2.43ZM14,4.12a1,1,0,0,0-1.38,0,1.12,1.12,0,0,0-.27.8,1.17,1.17,0,0,0,.27.81.92.92,0,0,0,.69.3A.94.94,0,0,0,14,5.74a1.18,1.18,0,0,0,.28-.82A1.14,1.14,0,0,0,14,4.12Z" style="fill:#161616"/><path d="M19.74,2.5a1.78,1.78,0,0,1,1-.27v2h-.52a1.49,1.49,0,0,0-.9.23,1,1,0,0,0-.29.82V7.58H17.13V2.28H19v.94A2.37,2.37,0,0,1,19.74,2.5Z" style="fill:#161616"/><path d="M22.39,7.31a2.46,2.46,0,0,1-1-.94,2.81,2.81,0,0,1-.36-1.45,2.79,2.79,0,0,1,.36-1.43,2.42,2.42,0,0,1,1-.94,3.22,3.22,0,0,1,2.84,0,2.42,2.42,0,0,1,1,.94,2.7,2.7,0,0,1,.37,1.43,2.71,2.71,0,0,1-.37,1.44,2.38,2.38,0,0,1-1,.95,3.24,3.24,0,0,1-2.85,0Zm2.07-1.56a1.21,1.21,0,0,0,.26-.83,1.2,1.2,0,0,0-.26-.82.83.83,0,0,0-.64-.28.81.81,0,0,0-.63.28,1.2,1.2,0,0,0-.25.82,1.23,1.23,0,0,0,.24.83.82.82,0,0,0,.63.29A.84.84,0,0,0,24.46,5.75Z" style="fill:#161616"/><path d="M35.18,2.28l-1.35,5.3H31.75L31,4.37l-.76,3.21H28.18l-1.34-5.3h1.84l.6,3.51.78-3.51h2l.81,3.52.59-3.52Z" style="fill:#161616"/><path d="M37.18,7.2A3.2,3.2,0,0,1,35.94,6a3.38,3.38,0,0,1-.46-1.76,3.33,3.33,0,0,1,.46-1.76,3.23,3.23,0,0,1,1.24-1.22A3.45,3.45,0,0,1,38.89.82a3.5,3.5,0,0,1,1.73.43,3.2,3.2,0,0,1,1.23,1.22,3.41,3.41,0,0,1,.45,1.76A3.47,3.47,0,0,1,41.85,6,3.2,3.2,0,0,1,40.61,7.2a3.56,3.56,0,0,1-3.43,0ZM40,5.46a1.76,1.76,0,0,0,.41-1.23A1.76,1.76,0,0,0,40,3a1.59,1.59,0,0,0-2.24,0,1.81,1.81,0,0,0-.4,1.25,1.81,1.81,0,0,0,.4,1.24,1.44,1.44,0,0,0,1.12.45A1.4,1.4,0,0,0,40,5.46Z" style="fill:#fdc31a"/><path d="M48.05,2.84a2.41,2.41,0,0,1,.54,1.65V7.58H46.74V4.74A1,1,0,0,0,46.5,4a.92.92,0,0,0-1.28,0,1,1,0,0,0-.24.72V7.58H43.13V2.28H45V3a1.85,1.85,0,0,1,.66-.58,2,2,0,0,1,1-.23A1.86,1.86,0,0,1,48.05,2.84Z" style="fill:#fdc31a"/></svg>